<svg width="21" height="12" viewBox="0 0 21 12" fill="none" xmlns="http://www.w3.org/2000/svg"><path d="M12.781 6c0 3.314-2.655 6-5.93 6C3.573 12 .918 9.314.918 6S3.574 0 6.85 0s5.931 2.686 5.931 6" fill="#ED0006"/><path d="M20.476 6c0 3.314-2.656 6-5.931 6S8.614 9.314 8.614 6s2.655-6 5.93-6 5.932 2.686 5.932 6" fill="#0099DF"/><path fill-rule="evenodd" clip-rule="evenodd" d="M10.697 10.569a6.02 6.02 0 0 0 2.084-4.567 6.02 6.02 0 0 0-2.084-4.566 6.02 6.02 0 0 0-2.084 4.566c0 1.829.809 3.466 2.084 4.567" fill="#6C6BBD"/></svg>