<svg width="20" height="12" viewBox="0 0 20 12" fill="none" xmlns="http://www.w3.org/2000/svg"><path fill-rule="evenodd" clip-rule="evenodd" d="M9.779 10.567A5.87 5.87 0 0 1 5.93 12C2.655 12 0 9.314 0 6s2.655-6 5.931-6C7.4 0 8.743.54 9.78 1.433A5.87 5.87 0 0 1 13.626 0c3.276 0 5.931 2.686 5.931 6s-2.655 6-5.931 6a5.87 5.87 0 0 1-3.847-1.434" fill="#ED0006"/><path fill-rule="evenodd" clip-rule="evenodd" d="M9.779 10.567A6.02 6.02 0 0 0 11.862 6 6.02 6.02 0 0 0 9.78 1.433 5.87 5.87 0 0 1 13.626 0c3.276 0 5.931 2.686 5.931 6s-2.655 6-5.931 6a5.87 5.87 0 0 1-3.847-1.433" fill="#F9A000"/><path fill-rule="evenodd" clip-rule="evenodd" d="M9.779 10.567A6.02 6.02 0 0 0 11.862 6 6.02 6.02 0 0 0 9.78 1.434 6.02 6.02 0 0 0 7.695 6c0 1.829.808 3.466 2.084 4.567" fill="#FF5E00"/></svg>