<svg width="18" height="22" viewBox="0 0 18 22" fill="none" xmlns="http://www.w3.org/2000/svg"><path d="M.333 12.82V4.893q0-.933.36-1.363.369-.44 1.128-.765.339-.147.955-.388.615-.24 1.365-.513.75-.284 1.488-.556T6.973.827q.616-.22.954-.315.258-.063.534-.115a2.4 2.4 0 0 1 .534-.063q.267 0 .544.052.287.052.533.126.338.116.945.336.615.219 1.354.492.75.262 1.488.535.75.273 1.365.514.616.23.954.377.77.336 1.13.765.359.43.359 1.363v7.926q0 1.436-.41 2.515-.412 1.069-1.345 2.003-.924.922-2.453 1.897a72 72 0 0 1-3.736 2.212q-.204.106-.4.157a1 1 0 0 1-.328.063q-.134 0-.329-.063a2 2 0 0 1-.39-.157 72 72 0 0 1-3.735-2.222q-1.519-.975-2.453-1.898-.924-.922-1.344-1.992-.41-1.08-.41-2.516m8.847 6.604q.082-.032.184-.084.103-.042.226-.126a155 155 0 0 0 2.915-1.834q1.19-.776 1.898-1.468.718-.69 1.026-1.5.308-.817.308-1.98V5.23q0-.272-.072-.41-.071-.145-.277-.22-.472-.167-1.077-.387-.596-.22-1.262-.461-.657-.241-1.304-.483-.646-.24-1.221-.45a49 49 0 0 1-.985-.388.8.8 0 0 0-.206-.063 2 2 0 0 0-.153-.032z" fill="#009411"/></svg>