<svg width="23" height="14" viewBox="0 0 23 14" fill="none" xmlns="http://www.w3.org/2000/svg"><path d="M4.743.002h5.585c.78 0 1.265.635 1.083 1.418l-2.6 11.164C8.627 13.364 7.845 14 7.065 14H1.481C.703 14 .217 13.364.4 12.584L3 1.42C3.182.637 3.962.002 4.743.002" fill="#E21836"/><path d="M9.863 0h6.423c.78 0 .428.636.245 1.418l-2.6 11.164c-.182.78-.125 1.416-.907 1.416H6.601c-.781 0-1.264-.636-1.08-1.416L8.12 1.418C8.305.636 9.083 0 9.863 0" fill="#00447C"/><path d="M16.032 0h5.585c.78 0 1.266.636 1.082 1.418l-2.6 11.164c-.183.78-.964 1.416-1.745 1.416h-5.583c-.78 0-1.265-.636-1.083-1.416L14.29 1.418C14.471.636 15.251 0 16.032 0" fill="#007B84"/><path d="M6.201 3.578c-.574.006-.744 0-.798-.012a447 447 0 0 1-.41 1.888c-.083.362-.144.62-.35.786a.62.62 0 0 1-.412.143c-.255 0-.403-.126-.428-.366l-.005-.082.078-.487s.407-1.63.48-1.845l.005-.025c-.791.007-.932 0-.942-.012l-.024.118-.416 1.836-.035.156-.07.51q0 .224.09.378c.189.331.728.38 1.034.38.393 0 .762-.083 1.012-.236.433-.255.546-.655.647-1.01l.047-.183s.419-1.692.49-1.912q.003-.017.007-.025m1.426 1.365c-.1 0-.285.025-.451.106q-.088.048-.177.102l.054-.195-.03-.033c-.352.07-.43.08-.755.126l-.027.018A10 10 0 0 1 6.03 6.23l-.164.681.015.029c.333-.018.434-.018.723-.013l.023-.025c.037-.189.042-.233.123-.614.039-.181.118-.578.158-.72a.5.5 0 0 1 .211-.066c.162 0 .143.141.136.198a7 7 0 0 1-.126.669l-.04.171-.088.375.012.025c.329-.018.429-.018.709-.013l.033-.025c.05-.295.065-.373.155-.801l.045-.197c.088-.385.132-.58.066-.74-.07-.178-.24-.22-.394-.22m1.593.404c-.175.033-.286.055-.396.07l-.385.057-.014.012-.012.01c-.017.125-.03.233-.053.361-.02.132-.05.282-.1.497a2 2 0 0 1-.08.28c-.02.059-.044.115-.087.277l.01.015.009.014c.157-.008.26-.013.366-.014.106-.004.215 0 .385.001l.015-.012.016-.013c.024-.147.028-.186.043-.257.015-.077.04-.183.103-.466l.094-.4.097-.402-.005-.016zm.004-.544c-.159-.093-.437-.064-.624.065-.187.127-.208.307-.05.401.156.091.435.064.62-.066.187-.13.21-.307.054-.4m.958 2.166c.32 0 .65-.088.897-.35.19-.213.277-.53.307-.66.099-.432.022-.633-.074-.756-.146-.187-.405-.247-.673-.247-.16 0-.545.016-.845.292-.215.2-.315.47-.375.73-.06.264-.13.74.308.917.135.058.33.074.455.074m-.025-.972c.074-.327.161-.601.384-.601.174 0 .187.204.11.532-.014.073-.078.344-.164.46-.06.084-.132.136-.21.136-.024 0-.163 0-.165-.207-.001-.102.02-.206.045-.32m2.03.93.026-.025c.035-.189.041-.233.12-.614.04-.18.12-.578.159-.72.072-.033.142-.066.213-.066.16 0 .141.141.135.198a6 6 0 0 1-.127.669l-.038.17-.09.376.013.025c.33-.018.425-.018.707-.013l.034-.025c.05-.295.063-.373.155-.801l.045-.197c.088-.385.133-.58.067-.74-.072-.177-.242-.22-.394-.22a1.1 1.1 0 0 0-.628.207l.05-.195-.027-.033c-.351.071-.431.08-.756.126l-.025.018c-.04.313-.071.548-.21 1.163l-.165.681.015.029c.334-.018.433-.018.722-.013m2.42.013.144-.7s.105-.44.111-.455c0 0 .033-.046.066-.064h.049c.457 0 .973 0 1.378-.298.276-.204.464-.506.548-.872.021-.09.038-.197.038-.304a.64.64 0 0 0-.11-.387c-.206-.29-.617-.294-1.092-.297l-.234.003c-.607.007-.85.005-.95-.007-.01.044-.025.123-.025.123l-.218 1.01-.545 2.244c.53-.006.748-.006.84.004m.403-1.791.23-1.003.007-.051.004-.04.092.01s.477.04.488.042c.189.073.266.26.212.506a.74.74 0 0 1-.381.503c-.154.077-.342.083-.536.083H15zm1.44.867c-.061.26-.132.737.304.906a.85.85 0 0 0 .39.07.64.64 0 0 0 .372-.17l-.031.119.02.025c.313-.013.41-.013.75-.01l.03-.024c.05-.291.096-.574.225-1.131q.093-.4.19-.798l-.01-.029c-.35.065-.445.079-.782.127l-.025.02-.01.08A.48.48 0 0 0 17.628 5c-.15-.06-.502.017-.804.292-.213.197-.315.467-.373.725m.736.016c.075-.321.16-.593.384-.593.141 0 .216.13.2.353q-.016.081-.04.18-.033.143-.07.284a.7.7 0 0 1-.082.167.4.4 0 0 1-.273.132c-.023 0-.16 0-.165-.203-.001-.101.02-.206.046-.32m3.843-1.06-.027-.031c-.347.07-.41.081-.728.124l-.024.024-.003.015-.001-.006c-.237.547-.23.43-.424.86 0-.02 0-.032-.002-.053l-.048-.933-.03-.031c-.364.07-.372.081-.708.124l-.026.024-.006.036.003.005c.041.214.031.167.073.505.02.166.046.333.066.497.033.274.051.409.092.828-.227.373-.28.515-.498.843l.001.003-.154.243q-.024.04-.055.05a.2.2 0 0 1-.101.015h-.085l-.127.42.434.008c.255 0 .415-.12.501-.28l.273-.468h-.004l.029-.033c.183-.395 1.579-2.79 1.579-2.79m-4.58 5.524h-.183l.68-2.253h.227l.072-.232.007.258c-.009.16.117.301.446.278h.382l.13-.434h-.143q-.123.001-.116-.065l-.006-.263h-.707v.001c-.228.005-.91.022-1.048.059-.167.043-.343.17-.343.17l.07-.233h-.661l-.138.461-.69 2.288h-.134l-.132.43h1.316l-.044.144h.648l.043-.143h.182zm-.54-1.795c-.105.03-.302.118-.302.118l.175-.576h.525l-.126.42s-.163.01-.271.038m.011.823s-.165.02-.273.045a3 3 0 0 0-.308.135l.181-.6h.528zm-.294.978H15.1l.152-.506h.525zm1.268-1.398h.759l-.11.353h-.768l-.116.386h.673l-.51.718a.2.2 0 0 1-.103.086.3.3 0 0 1-.136.04h-.187l-.128.422h.488a.6.6 0 0 0 .514-.267l.35-.478.075.486c.016.09.08.144.125.164.049.025.1.067.17.073q.115.006.17.006h.24l.143-.473h-.094c-.055 0-.148-.01-.164-.026-.016-.02-.016-.053-.024-.101l-.077-.487h-.311l.136-.163h.768l.118-.386h-.71l.11-.353h.708l.132-.435h-2.112zm-6.41 1.496.178-.589h.727l.134-.438h-.73l.112-.363h.712l.132-.424H9.968l-.13.424h.405l-.108.363H9.73l-.134.445H10l-.236.78c-.032.103.015.143.045.19s.061.078.13.096a.8.8 0 0 0 .187.025h.82l.147-.485-.364.05c-.07 0-.265-.009-.243-.074m.084-2.82-.184.333a.4.4 0 0 1-.107.139q-.043.025-.165.025h-.097l-.128.426h.32a.7.7 0 0 0 .327-.084c.061-.033.077-.014.124-.06l.108-.093h.998l.132-.444h-.73l.127-.242zm1.474 2.829c-.017-.025-.005-.068.02-.158l.274-.903h.97a7 7 0 0 0 .31-.008.6.6 0 0 0 .234-.079.44.44 0 0 0 .17-.156c.041-.058.109-.185.167-.38l.343-1.143-1.007.006s-.31.046-.447.096c-.138.057-.335.214-.335.214l.091-.313h-.622l-.87 2.889q-.05.168-.057.242c-.002.053.066.105.11.144.052.04.13.033.203.04q.115.009.341.01h.479l.146-.496-.428.04a.11.11 0 0 1-.092-.045m.47-1.67h1.02l-.066.202c-.009.005-.03-.01-.134.003h-.883zm.204-.682h1.028l-.074.245s-.485-.005-.562.01c-.342.058-.541.24-.541.24zm.773 1.565a.1.1 0 0 1-.04.062q-.03.02-.104.018h-.146l.009-.247h-.604l-.025 1.21c0 .087.008.137.071.178.064.05.261.057.526.057h.379l.136-.453-.33.018-.109.006a.1.1 0 0 1-.045-.028c-.014-.014-.038-.005-.034-.092l.003-.31.345-.015c.187 0 .267-.06.335-.118.065-.056.086-.12.11-.206l.059-.274h-.475z" fill="#FEFEFE"/></svg>