<svg width="29" height="9" viewBox="0 0 29 9" fill="none" xmlns="http://www.w3.org/2000/svg"><path fill-rule="evenodd" clip-rule="evenodd" d="M7.7 8.932H5.26L3.43 1.95c-.087-.321-.272-.605-.543-.739A8 8 0 0 0 .65.472V.203h3.93c.543 0 .95.404 1.018.873l.95 5.036L8.987.203h2.372zm5.017 0h-2.305L12.31.203h2.305zm4.88-6.313c.067-.47.474-.739.95-.739a4.3 4.3 0 0 1 2.236.403l.407-1.88A5.8 5.8 0 0 0 19.09 0c-2.237 0-3.865 1.209-3.865 2.887 0 1.277 1.153 1.947 1.967 2.35.88.403 1.22.672 1.152 1.075 0 .604-.678.872-1.356.872-.813 0-1.627-.2-2.372-.537l-.407 1.88c.814.335 1.694.47 2.508.47 2.508.067 4.067-1.141 4.067-2.954 0-2.283-3.186-2.417-3.186-3.424M28.85 8.932 27.02.203h-1.966a1.02 1.02 0 0 0-.95.672l-3.389 8.057h2.373l.474-1.275h2.915l.271 1.275zM25.393 2.55l.677 3.29h-1.898z" fill="#172B85"/></svg>