<svg width="35" height="10" viewBox="0 0 35 10" fill="none" xmlns="http://www.w3.org/2000/svg"><g clip-path="url(#a)"><path d="M.47.431h3.163c.288 0 1.15-.097 1.534 1.264.287.875.67 2.236 1.246 4.278h.191C7.18 3.834 7.658 2.376 7.85 1.695 8.233.334 9.192.431 9.575.431h2.97v9.334H9.48V4.223h-.191l-1.63 5.542h-2.3L3.73 4.223h-.287v5.542H.47M13.79.43h3.067v5.542h.288l2.012-4.57A1.66 1.66 0 0 1 20.403.43h2.875v9.334h-3.066V4.223h-.192l-2.013 4.57c-.383.874-1.341.972-1.341.972h-2.875M27.4 6.945v2.82h-2.875V4.903h9.392c-.384 1.167-1.725 2.042-3.259 2.042" fill="#0F754E"/><path d="M34.108 4.319c.384-1.75-.766-3.89-3.258-3.89h-6.517c.192 2.042 1.917 3.89 3.738 3.89" fill="url(#b)"/></g><defs><linearGradient id="b" x1="32.958" y1="-.834" x2="25.292" y2="-.834" gradientUnits="userSpaceOnUse"><stop stop-color="#1F5CD7"/><stop offset="1" stop-color="#02AEFF"/></linearGradient><clipPath id="a"><path fill="#fff" d="M0 0h35v10H0z"/></clipPath></defs></svg>