<svg width="19" height="18" viewBox="0 0 19 18" fill="none" xmlns="http://www.w3.org/2000/svg"><path d="M5.432 13.037A24 24 0 0 1 2.917 10.1Q1.801 8.56 1.15 7.027.5 5.487.5 4.09q0-.93.32-1.744A4.3 4.3 0 0 1 1.86.843Q2.732 0 3.732 0q.389 0 .738.165.35.155.602.504L7.16 3.606q.243.339.36.63.126.291.126.552 0 .33-.185.64-.184.31-.505.64l-.689.707a.5.5 0 0 0-.146.36q0 .105.03.212.038.097.077.175.233.446.835 1.153t1.31 1.425q.72.717 1.428 1.318.709.592 1.165.834.067.03.165.068a.7.7 0 0 0 .223.039.5.5 0 0 0 .37-.155l.689-.679q.33-.33.64-.504a1.24 1.24 0 0 1 .641-.184q.263 0 .554.116.291.117.63.35l2.981 2.112q.35.243.495.582.146.33.146.698 0 .495-.223.979-.224.494-.612.92-.66.727-1.476 1.067-.815.339-1.757.339-1.388 0-2.942-.66-1.552-.658-3.107-1.783a24.6 24.6 0 0 1-2.951-2.52" fill="#000"/></svg>