<svg width="16" height="16" viewBox="0 0 16 16" fill="none" xmlns="http://www.w3.org/2000/svg"><path d="M.97 15.197a.94.94 0 0 1-.27-.466 1.14 1.14 0 0 1 0-.54q.074-.27.27-.457l5.714-5.739L.97 2.265a.9.9 0 0 1-.26-.456 1.14 1.14 0 0 1 0-.54.97.97 0 0 1 .26-.466 1 1 0 0 1 .475-.27q.27-.066.54 0 .27.065.465.26l5.725 5.73L13.89.793a.9.9 0 0 1 .465-.26q.27-.066.53 0 .27.065.485.27.195.195.26.466.075.27 0 .54-.065.261-.26.466l-5.715 5.72 5.715 5.73q.195.205.26.475.066.261 0 .531a.97.97 0 0 1-.26.466 1 1 0 0 1-.475.27q-.27.066-.54 0a.97.97 0 0 1-.465-.26l-5.715-5.73-5.725 5.73a.97.97 0 0 1-.465.26 1.1 1.1 0 0 1-.54 0 1 1 0 0 1-.475-.27" fill="#000"/></svg>