<svg width="20" height="18" viewBox="0 0 20 18" fill="none" xmlns="http://www.w3.org/2000/svg"><path d="M4.136 18q-.435 0-.662-.215a.7.7 0 0 1-.235-.524 1 1 0 0 1 .21-.61q.192-.248.46-.644.27-.387.537-.817.268-.429.46-.807a8.2 8.2 0 0 1-2.32-1.633 7.5 7.5 0 0 1-1.541-2.268A6.7 6.7 0 0 1 .5 7.81q0-1.624.729-3.041a7.9 7.9 0 0 1 2.036-2.484Q4.57 1.211 6.297.61 8.022 0 10 0t3.703.61q1.725.602 3.024 1.675a7.8 7.8 0 0 1 2.036 2.484q.737 1.417.737 3.041 0 1.35-.503 2.552a7.1 7.1 0 0 1-1.415 2.174 8.8 8.8 0 0 1-2.187 1.684q-1.264.695-2.815 1.056a13 13 0 0 1-3.3.31q-.847.627-1.827 1.177a15 15 0 0 1-1.868.893q-.888.345-1.45.344m.88-1.426q.377-.164.954-.499.579-.335 1.198-.747.62-.404 1.131-.782.236-.19.453-.275.226-.094.486-.094.25.008.444.017H10a9.8 9.8 0 0 0 3.167-.499q1.475-.498 2.58-1.374a6.6 6.6 0 0 0 1.742-2.037 5.1 5.1 0 0 0 .629-2.474q0-1.323-.629-2.474a6.6 6.6 0 0 0-1.742-2.037q-1.105-.884-2.58-1.383A9.8 9.8 0 0 0 10 1.418a9.8 9.8 0 0 0-3.167.498 8.5 8.5 0 0 0-2.588 1.383A6.6 6.6 0 0 0 2.51 5.336a5.14 5.14 0 0 0-.62 2.474q0 1.143.486 2.174a6.2 6.2 0 0 0 1.407 1.89q.93.85 2.245 1.478.402.197.47.48.067.284-.11.62a8.5 8.5 0 0 1-.645.996q-.427.593-.779 1.04-.033.043-.017.069.018.034.067.017M6.12 7.896q0-.327.193-.524a.7.7 0 0 1 .528-.206h2.463V4.64q0-.327.192-.533a.65.65 0 0 1 .495-.206q.318 0 .51.206.202.198.202.533v2.526h2.471q.319 0 .511.206a.7.7 0 0 1 .201.524.68.68 0 0 1-.712.704h-2.471v2.535a.73.73 0 0 1-.201.533.68.68 0 0 1-.511.197.66.66 0 0 1-.495-.197.75.75 0 0 1-.192-.533V8.6H6.842a.68.68 0 0 1-.72-.705" fill="#2481CC"/></svg>