<svg width="19" height="19" viewBox="0 0 19 19" fill="none" xmlns="http://www.w3.org/2000/svg"><path d="M9.333 15.757q.1-.297.149-.61.05-.313.058-.634h7.329q.157 0 .223-.05.075-.05.075-.18 0-.504-.39-1.162-.38-.668-1.134-1.286-.753-.617-1.855-1.021-1.093-.412-2.517-.412-.854 0-1.59.165-.738.165-1.342.445a4 4 0 0 0-.447-.503 5 5 0 0 0-.489-.445 7.7 7.7 0 0 1 1.764-.659 8.6 8.6 0 0 1 2.104-.247q1.68 0 3.022.51 1.342.512 2.278 1.327.943.807 1.432 1.722.497.914.497 1.722 0 1.317-2.029 1.318zm1.938-7.62a3.25 3.25 0 0 1-1.79-.52 3.9 3.9 0 0 1-1.3-1.4 4.05 4.05 0 0 1-.488-1.936q0-1.046.48-1.903a3.8 3.8 0 0 1 1.3-1.367A3.33 3.33 0 0 1 11.272.5a3.36 3.36 0 0 1 1.805.503q.81.503 1.292 1.359.48.848.48 1.903 0 1.062-.489 1.944a3.86 3.86 0 0 1-1.291 1.4 3.23 3.23 0 0 1-1.797.528m0-1.244q.612 0 1.117-.355.514-.354.82-.947.307-.6.307-1.326 0-.717-.307-1.285a2.3 2.3 0 0 0-.811-.907 2 2 0 0 0-1.126-.33q-.613 0-1.127.339a2.5 2.5 0 0 0-.811.914 2.7 2.7 0 0 0-.307 1.285q0 .726.307 1.318.315.594.82.948.513.346 1.118.346M4.207 18.5q-.861 0-1.623-.33a4.2 4.2 0 0 1-1.342-.898 4.3 4.3 0 0 1-.91-1.334A4 4 0 0 1 0 14.315q0-.866.331-1.614.332-.758.911-1.335a4.1 4.1 0 0 1 1.342-.906 4 4 0 0 1 1.623-.33q.87 0 1.631.33a4.2 4.2 0 0 1 2.244 2.232q.332.758.332 1.623 0 .857-.332 1.615-.33.758-.919 1.334a4.3 4.3 0 0 1-1.341.907q-.762.33-1.615.329m0-1.565a.48.48 0 0 0 .364-.14.5.5 0 0 0 .141-.363v-1.614h1.623q.224 0 .364-.14a.47.47 0 0 0 .141-.363.5.5 0 0 0-.14-.37.5.5 0 0 0-.365-.132H4.712v-1.615a.5.5 0 0 0-.14-.363.48.48 0 0 0-.365-.14.5.5 0 0 0-.373.14.5.5 0 0 0-.132.363v1.615H2.079q-.224 0-.365.131a.5.5 0 0 0-.14.371q0 .231.14.363.141.14.365.14h1.623v1.614q0 .224.132.363.14.14.373.14" fill="#2481CC"/></svg>