<svg width="20" height="13" viewBox="0 0 20 13" fill="none" xmlns="http://www.w3.org/2000/svg"><path d="M.5 12.345V7.752q0-1.101.577-1.687.578-.594 1.65-.594h14.546q1.08 0 1.65.594.577.585.577 1.687v4.593q0 .3-.172.478a.62.62 0 0 1-.465.177h-.45a.64.64 0 0 1-.465-.177.66.66 0 0 1-.172-.478v-1.14q-.06.015-.218.03a6 6 0 0 1-.292.008H2.734a6 6 0 0 1-.292-.008q-.15-.015-.217-.03v1.14q0 .3-.18.478a.6.6 0 0 1-.458.177h-.45a.62.62 0 0 1-.465-.177.66.66 0 0 1-.172-.478m1.8-7.976V2.158q0-1.071.54-1.61Q3.38 0 4.39 0h11.233q1.005 0 1.544.547.547.54.547 1.61V4.37h-1.912V3.26q0-.539-.292-.824-.285-.285-.847-.285H12.04q-.562 0-.855.285-.285.285-.285.825v1.11H9.198V3.26q0-.54-.285-.825-.278-.285-.81-.285H5.306q-.532 0-.817.285t-.285.825v1.11z" fill="#999"/></svg>