<svg width="13" height="10" viewBox="0 0 13 10" fill="none" xmlns="http://www.w3.org/2000/svg"><path d="M12.332 5.007a.66.66 0 0 1-.233.498L7.816 9.78a.7.7 0 0 1-.49.207.65.65 0 0 1-.465-.182.63.63 0 0 1-.182-.465q0-.133.041-.257a.55.55 0 0 1 .141-.208l1.146-1.187 2.233-2.009H.918q-.3 0-.481-.19a.67.67 0 0 1-.183-.482q0-.29.183-.482a.64.64 0 0 1 .481-.19h9.315l-2.226-2.01L6.86 1.14a.55.55 0 0 1-.14-.208.8.8 0 0 1-.042-.257A.63.63 0 0 1 6.86.21a.65.65 0 0 1 .465-.183q.274 0 .49.208l4.283 4.275q.232.216.232.498" fill="#000"/></svg>