<svg width="22" height="16" viewBox="0 0 22 16" fill="none" xmlns="http://www.w3.org/2000/svg"><path d="M0 15.233V8.991q0-1.303.756-1.985.756-.69 2.167-.69h16.145q1.43 0 2.176.69Q22 7.687 22 8.99v6.242a.7.7 0 0 1-.23.554q-.222.213-.6.213h-.59q-.368 0-.6-.213a.7.7 0 0 1-.23-.554v-1.21q-.073.026-.285.042a10 10 0 0 1-.397.009H2.932q-.184 0-.396-.009a1.5 1.5 0 0 1-.286-.042v1.21a.7.7 0 0 1-.23.554q-.231.213-.6.213H.83q-.378 0-.609-.213-.22-.204-.221-.554m2.323-10.28V2.497q0-1.236.692-1.866.7-.63 2.02-.631h11.95q1.308 0 2.01.63.7.631.7 1.867v2.455h-2.462v-1.16q0-.63-.369-.954-.368-.332-1.078-.332H13.53q-.72 0-1.088.332-.369.324-.369.955v1.159H10.01v-1.16q0-.63-.36-.954-.36-.332-1.05-.332H6.204q-.69 0-1.06.332-.36.324-.36.955v1.159z" fill="#6D6D71"/></svg>