<svg width="24" height="24" viewBox="0 0 24 24" fill="none" xmlns="http://www.w3.org/2000/svg"><path d="M5.836 20q-1.418 0-2.132-.678Q3 18.653 3 17.306V6.694q0-1.347.704-2.016Q4.418 4 5.836 4h12.337q1.418 0 2.123.678.704.669.704 2.016v10.612q0 1.347-.704 2.016-.705.678-2.123.678zM5.7 18.6h12.59q.606 0 .93-.312.326-.304.326-.904V9.188q0-.6-.325-.903-.325-.313-.93-.313H5.7q-.597 0-.922.313-.325.304-.325.903v8.196q0 .6.325.904.325.313.921.313m4.543-7.5q-.235 0-.334-.086-.09-.088-.09-.313v-.513q0-.226.09-.304.1-.087.334-.087h.533q.235 0 .325.087.1.078.1.304v.513q0 .226-.1.313-.09.087-.325.087zm2.999 0q-.235 0-.325-.086-.09-.088-.09-.313v-.513q0-.226.09-.304.09-.087.325-.087h.533q.244 0 .334.087.09.078.09.304v.513q0 .226-.09.313t-.334.087zm3.007 0q-.243 0-.334-.086-.09-.088-.09-.313v-.513q0-.226.09-.304.09-.087.334-.087h.524q.244 0 .334.087.09.078.09.304v.513q0 .226-.09.313t-.334.087zm-9.004 2.842q-.244 0-.334-.087-.09-.086-.09-.312v-.504q0-.235.09-.313.09-.087.334-.087h.533q.235 0 .325.087.09.078.09.313v.504q0 .226-.09.313t-.325.086zm2.998 0q-.235 0-.334-.087-.09-.086-.09-.312v-.504q0-.235.09-.313.1-.087.334-.087h.533q.235 0 .325.087.1.078.1.313v.504q0 .226-.1.313-.09.087-.325.086zm2.999 0q-.235 0-.325-.087-.09-.086-.09-.312v-.504q0-.235.09-.313.09-.087.325-.087h.533q.244 0 .334.087.09.078.09.313v.504q0 .226-.09.313t-.334.086zm3.007 0q-.243 0-.334-.087-.09-.086-.09-.312v-.504q0-.235.09-.313.09-.087.334-.087h.524q.244 0 .334.087.09.078.09.313v.504q0 .226-.09.313t-.334.086zm-9.004 2.842q-.244 0-.334-.078-.09-.087-.09-.321v-.505q0-.234.09-.312.09-.087.334-.087h.533q.235 0 .325.087.09.078.09.313v.504q0 .234-.09.321-.09.078-.325.078zm2.998 0q-.235 0-.334-.078-.09-.087-.09-.321v-.505q0-.234.09-.312.1-.087.334-.087h.533q.235 0 .325.087.1.078.1.313v.504q0 .234-.1.321-.09.078-.325.078zm2.999 0q-.235 0-.325-.078-.09-.087-.09-.321v-.505q0-.234.09-.312.09-.087.325-.087h.533q.244 0 .334.087.09.078.09.313v.504q0 .234-.09.321-.09.078-.334.078z" fill="#8E8E93"/></svg>