<svg width="22" height="18" viewBox="0 0 22 18" fill="none" xmlns="http://www.w3.org/2000/svg"><path d="M4.02 3.9h1.53v13.171H4.02zm12.42 0h1.53v13.171h-1.53zM2.938 18q-1.464 0-2.205-.706Q0 16.598 0 15.167V6.13q0-1.431.732-2.127.741-.706 2.205-.706h16.127q1.473 0 2.204.706Q22 4.7 22 6.13v9.037q0 1.431-.732 2.127-.732.705-2.204.706zm.019-1.486h16.089q.694 0 1.054-.353.37-.352.371-1.068V6.204q0-.714-.37-1.068-.362-.353-1.056-.353H2.956q-.695 0-1.065.353-.36.354-.361 1.068v8.889q0 .715.361 1.068.37.353 1.065.353M6.177 4.105V2.563q0-1.31.722-1.931Q7.622 0 8.838 0h4.315q1.292 0 1.976.632.684.621.684 1.931v1.524H14.34V2.46q0-.53-.304-.817-.303-.288-.855-.288H8.819q-.56 0-.865.288t-.304.817v1.644z" fill="#000"/></svg>