<svg width="20" height="20" viewBox="0 0 20 20" fill="none" xmlns="http://www.w3.org/2000/svg"><path d="M5.913 0c-1.117 0-2.054 0-2.8.1-.788.106-1.51.34-2.091.922C.44 1.603.206 2.325.1 3.114 0 3.859 0 4.796 0 5.913v5.053a3.49 3.49 0 0 0 3.49 3.489.997.997 0 1 0 0-1.994c-.827 0-1.496-.67-1.496-1.495V5.98c0-1.203.002-2.005.082-2.601.077-.569.207-.8.356-.948.149-.15.38-.28.948-.356.596-.08 1.398-.082 2.601-.082h5.483c.55 0 .997.446.997.997a.997.997 0 0 0 1.994 0A2.99 2.99 0 0 0 11.465 0z" fill="#fff"/><path fill-rule="evenodd" clip-rule="evenodd" d="M11.458 5.545c-1.116 0-2.054 0-2.799.1-.79.106-1.51.341-2.092.922-.581.581-.816 1.303-.922 2.092-.1.745-.1 1.683-.1 2.8v2.628c0 1.117 0 2.054.1 2.8.106.788.341 1.51.922 2.091s1.303.816 2.092.922c.745.1 1.683.1 2.8.1h2.628c1.117 0 2.054 0 2.8-.1.788-.106 1.51-.34 2.091-.922.581-.581.816-1.303.922-2.092.1-.745.1-1.682.1-2.799v-2.629c0-1.116 0-2.054-.1-2.799-.106-.79-.34-1.51-.922-2.092-.581-.581-1.303-.816-2.092-.922-.745-.1-1.682-.1-2.799-.1zM7.977 7.977c.149-.149.38-.28.948-.356.596-.08 1.398-.082 2.601-.082h2.493c1.203 0 2.005.002 2.601.082.569.077.8.207.948.356.15.149.28.38.356.948.08.596.082 1.398.082 2.601v2.493c0 1.203-.002 2.005-.082 2.601-.076.569-.207.8-.356.948-.149.15-.38.28-.948.356-.596.08-1.398.082-2.601.082h-2.492c-1.203 0-2.006-.002-2.602-.082-.568-.076-.8-.207-.948-.356-.149-.149-.28-.38-.356-.948-.08-.596-.082-1.398-.082-2.601v-2.492c0-1.203.002-2.006.082-2.602.077-.568.207-.8.356-.948" fill="#fff"/></svg>