<svg width="24" height="24" viewBox="0 0 24 24" fill="none" xmlns="http://www.w3.org/2000/svg"><path d="M12 20.506q-.918 0-1.73-.635-.802-.636-1.42-1.783-.609-1.148-.962-2.69a15.6 15.6 0 0 1-.344-3.38q0-1.826.344-3.38.354-1.56.962-2.709.608-1.155 1.412-1.79.81-.636 1.738-.636.926 0 1.73.635.81.635 1.42 1.791.618 1.147.962 2.71.345 1.552.344 3.379 0 1.826-.353 3.38-.344 1.543-.962 2.69-.61 1.148-1.42 1.783-.804.635-1.721.635M12 4.57q-.644 0-1.235.6-.591.591-1.05 1.623T8.99 9.176a14.7 14.7 0 0 0-.265 2.842q0 1.482.265 2.814t.724 2.374q.459 1.033 1.05 1.623.591.6 1.235.6t1.235-.6q.591-.591 1.05-1.623.459-1.04.724-2.374.264-1.332.264-2.814 0-1.5-.264-2.842-.265-1.35-.724-2.382t-1.05-1.623q-.591-.6-1.235-.6m-.573-.945h1.155v16.712h-1.155zM12 15.318q1.36 0 2.576.23a10 10 0 0 1 2.189.643q.98.415 1.597.98l-.891.732a5.4 5.4 0 0 0-1.403-.776 8.3 8.3 0 0 0-1.845-.486A14 14 0 0 0 12 16.474q-1.2 0-2.232.167a8.5 8.5 0 0 0-1.844.486 5.4 5.4 0 0 0-1.395.776l-.89-.732q.616-.565 1.587-.98a10 10 0 0 1 2.198-.644q1.217-.23 2.576-.23m8.144-3.9v1.156H3.856v-1.156zM12 8.726q-1.36 0-2.576-.22a10.7 10.7 0 0 1-2.198-.644q-.97-.424-1.588-.988l.891-.733q.583.46 1.395.785a9.3 9.3 0 0 0 1.844.486Q10.8 7.57 12 7.57t2.223-.16a9 9 0 0 0 1.845-.485 5.6 5.6 0 0 0 1.403-.785l.89.733q-.617.564-1.596.988-.97.413-2.189.644-1.217.22-2.576.22M12 21a8.7 8.7 0 0 1-3.476-.706 9.2 9.2 0 0 1-2.868-1.95 9.2 9.2 0 0 1-1.95-2.868A8.7 8.7 0 0 1 3 12q0-1.844.706-3.468a9.3 9.3 0 0 1 1.941-2.876 9.2 9.2 0 0 1 2.868-1.95A8.7 8.7 0 0 1 11.99 3q1.844 0 3.477.706a9.2 9.2 0 0 1 2.876 1.95q1.245 1.245 1.95 2.876A8.6 8.6 0 0 1 21 12q0 1.845-.706 3.476a9.2 9.2 0 0 1-1.95 2.868 9.2 9.2 0 0 1-2.876 1.95A8.6 8.6 0 0 1 12 21m0-1.2a7.4 7.4 0 0 0 3.009-.618 7.9 7.9 0 0 0 2.488-1.685 7.9 7.9 0 0 0 1.685-2.488A7.4 7.4 0 0 0 19.8 12a7.4 7.4 0 0 0-.618-3.009 7.9 7.9 0 0 0-1.694-2.488A7.9 7.9 0 0 0 15 4.818a7.4 7.4 0 0 0-3.009-.618 7.4 7.4 0 0 0-3.009.618 7.9 7.9 0 0 0-2.488 1.685A8.1 8.1 0 0 0 4.81 8.99 7.5 7.5 0 0 0 4.2 12q0 1.598.609 3.009.617 1.411 1.694 2.488a7.9 7.9 0 0 0 2.488 1.685A7.4 7.4 0 0 0 12 19.8" fill="#8E8E93"/></svg>