<svg width="24" height="24" viewBox="0 0 24 24" fill="none" xmlns="http://www.w3.org/2000/svg"><path d="M11.137 19q-.953 0-1.34-.265-.38-.257-.38-.77 0-.748.469-1.581.468-.834 1.355-1.558.888-.732 2.139-1.183 1.259-.46 2.825-.46 1.573 0 2.824.46 1.26.451 2.139 1.183.888.724 1.356 1.558.476.833.476 1.58 0 .515-.387.771-.388.265-1.34.265zm5.076-7.21a3 3 0 0 1-1.606-.452 3.5 3.5 0 0 1-1.178-1.23 3.46 3.46 0 0 1-.444-1.744q0-.951.444-1.713a3.4 3.4 0 0 1 1.186-1.207A3.03 3.03 0 0 1 16.213 5q.863 0 1.598.436.735.435 1.178 1.2.444.755.444 1.712a3.47 3.47 0 0 1-1.622 2.99 3 3 0 0 1-1.598.452M2.42 19q-.766 0-1.097-.288Q1 18.432 1 17.91q0-.81.412-1.643a5.2 5.2 0 0 1 1.178-1.534 6 6 0 0 1 1.864-1.137q1.098-.436 2.462-.436 1.13 0 2.001.288a6.5 6.5 0 0 1 1.558.717 6.03 6.03 0 0 0-1.93 2.46 3.7 3.7 0 0 0-.298 1.308q-.015.624.299 1.067zm4.496-7.031q-.75 0-1.397-.397a3 3 0 0 1-1.024-1.075 3 3 0 0 1-.388-1.51 2.8 2.8 0 0 1 .388-1.495 3 3 0 0 1 1.033-1.044q.645-.39 1.388-.39.75.001 1.388.382.645.375 1.033 1.036.387.654.387 1.495t-.387 1.526q-.387.678-1.025 1.075a2.6 2.6 0 0 1-1.396.397" fill="#8E8E93"/></svg>