<svg width="20" height="20" viewBox="0 0 20 20" fill="none" xmlns="http://www.w3.org/2000/svg"><path d="M4.816 3.326a4 4 0 0 0-1.316.937 4.6 4.6 0 0 0-.917 1.48c-.218.564-.333 1.21-.333 1.948 0 1.046.271 2.103.837 3.178.573 1.085 1.389 2.16 2.46 3.219q1.624 1.591 3.818 3.049l.01.006q.24.165.486.293c.064.033.109.05.137.06l.006.001.007-.002a1 1 0 0 0 .137-.06q.243-.126.486-.292l.01-.007a27 27 0 0 0 2.781-2.1c.38.354.819.644 1.303.851a28 28 0 0 1-3.25 2.496q-.312.213-.637.383c-.242.126-.53.234-.837.234s-.595-.108-.837-.234a6 6 0 0 1-.636-.383Q6.235 16.86 4.496 15.16l-.003-.003c-1.16-1.148-2.076-2.343-2.733-3.587v-.001C1.093 10.303.75 9.008.75 7.691c0-.896.14-1.73.434-2.49l.002-.003a6 6 0 0 1 1.222-1.963 5.5 5.5 0 0 1 1.804-1.282l.002-.001A5.4 5.4 0 0 1 6.41 1.5c.965 0 1.837.248 2.579.774q.57.397 1.014.92a5.3 5.3 0 0 1 1.008-.92c.747-.525 1.62-.774 2.588-.774a5.4 5.4 0 0 1 3.995 1.737A5.9 5.9 0 0 1 18.807 5.2c.3.76.443 1.595.443 2.491q0 .243-.016.485a4.5 4.5 0 0 0-1.49-.752 5.1 5.1 0 0 0-.334-1.677l-.003-.007a4.4 4.4 0 0 0-.907-1.477l-.003-.003A3.9 3.9 0 0 0 13.598 3c-.699 0-1.262.176-1.725.501v.001c-.5.349-.9.804-1.207 1.379a.75.75 0 0 1-1.324 0A3.85 3.85 0 0 0 8.13 3.504l-.006-.005C7.668 3.176 7.11 3 6.41 3q-.853.001-1.594.326" fill="#fff"/><path d="M17.25 9.25a.75.75 0 0 0-1.5 0V11H14a.75.75 0 0 0 0 1.5h1.75v1.75a.75.75 0 0 0 1.5 0V12.5H19a.75.75 0 0 0 0-1.5h-1.75z" fill="#fff"/></svg>