<svg width="20" height="18" viewBox="0 0 20 18" fill="none" xmlns="http://www.w3.org/2000/svg"><path d="M.4 15.853V4.614q0-.56.25-.962.25-.4.785-.677L5.173.993q.268-.142.5-.234T6.1.617v14.718l-3.265 1.664q-.473.242-.946.242-.615 0-1.053-.351T.4 15.853m7.146-.836V.6q.214.059.473.184.268.117.59.284l3.755 2.083V17.4a2 2 0 0 1-.473-.143 6 6 0 0 1-.454-.21zm6.264 2.316v-14.7l3.078-1.598Q17.424.75 17.976.75q.705 0 1.16.342.464.334.464 1.063v11.08q0 .576-.259.978-.258.402-.83.694l-4.318 2.275q-.097.05-.196.083-.098.042-.187.067" fill="#fff"/></svg>