<svg width="16" height="18" viewBox="0 0 16 18" fill="none" xmlns="http://www.w3.org/2000/svg"><path d="M4.836 3.09q0-.852.422-1.549.43-.705 1.145-1.123A3.1 3.1 0 0 1 7.996 0q.885 0 1.6.418.717.418 1.138 1.123.43.696.43 1.55 0 .72-.312 1.335a3.2 3.2 0 0 1-.85 1.05q-.54.433-1.223.598v5.188q0 .91-.075 1.607-.077.696-.194 1.172-.11.475-.253.721-.135.238-.261.238-.127 0-.261-.238-.135-.246-.253-.721a9 9 0 0 1-.194-1.172q-.075-.697-.076-1.607V6.074a3.1 3.1 0 0 1-1.221-.599 3.2 3.2 0 0 1-.851-1.049 3 3 0 0 1-.304-1.336m2.258.164q.447 0 .767-.311a1.02 1.02 0 0 0 0-1.484 1.06 1.06 0 0 0-.767-.311q-.43 0-.758.311a1.02 1.02 0 0 0 0 1.484q.329.31.758.311M8.004 18Q6.1 18 4.61 17.705q-1.484-.287-2.511-.787-1.028-.492-1.567-1.123Q0 15.172 0 14.492q0-.648.38-1.189.378-.549 1.01-.975a7 7 0 0 1 1.399-.721 9 9 0 0 1 1.567-.46 7.5 7.5 0 0 1 1.491-.163v1.196a6.4 6.4 0 0 0-1.323.172q-.716.157-1.356.435a3.7 3.7 0 0 0-1.053.664q-.405.385-.405.844 0 .532.464.976.471.443 1.314.762.85.32 1.997.492 1.155.18 2.52.18 1.356 0 2.502-.18 1.155-.173 1.996-.5.852-.32 1.323-.763.472-.435.472-.967 0-.459-.413-.844a3.7 3.7 0 0 0-1.053-.664 7.3 7.3 0 0 0-1.357-.435 6.3 6.3 0 0 0-1.322-.172v-1.196q.699 0 1.491.164a9 9 0 0 1 1.567.459q.775.295 1.407.72.633.427 1.003.976.38.54.379 1.189 0 .68-.53 1.303-.532.63-1.56 1.123-1.027.5-2.519.787Q9.91 18 8.004 18" fill="#8E8E93"/></svg>