<svg width="16" height="16" viewBox="0 0 16 16" fill="none" xmlns="http://www.w3.org/2000/svg"><path d="M0 6.471q0-1.338.508-2.505a6.5 6.5 0 0 1 1.408-2.068A6.6 6.6 0 0 1 3.996.503 6.4 6.4 0 0 1 6.534 0q1.351 0 2.53.503a6.6 6.6 0 0 1 2.089 1.395 6.5 6.5 0 0 1 1.408 2.068q.508 1.167.508 2.505 0 1.111-.36 2.109a6.4 6.4 0 0 1-.983 1.808l4.004 3.99a.85.85 0 0 1 .196.3q.075.17.074.365 0 .268-.123.487a.8.8 0 0 1-.327.34.93.93 0 0 1-.492.13 1 1 0 0 1-.376-.073 1 1 0 0 1-.32-.203l-4.028-3.998a6.8 6.8 0 0 1-1.769.892 6.3 6.3 0 0 1-2.03.325q-1.352 0-2.54-.503A6.62 6.62 0 0 1 .509 8.985 6.3 6.3 0 0 1 0 6.471m1.4 0q0 1.055.393 1.98a5.17 5.17 0 0 0 2.743 2.708 5.05 5.05 0 0 0 1.998.397q1.065 0 1.99-.397a5.2 5.2 0 0 0 2.743-2.709 4.9 4.9 0 0 0 .401-1.979q0-1.054-.4-1.97a5.1 5.1 0 0 0-1.106-1.622 5 5 0 0 0-1.638-1.095 5 5 0 0 0-1.99-.397q-1.064 0-1.998.397A5.1 5.1 0 0 0 2.9 2.88 5.1 5.1 0 0 0 1.793 4.5 4.95 4.95 0 0 0 1.4 6.47" fill="#3C3C43" fill-opacity=".6"/></svg>