<svg width="24" height="24" viewBox="0 0 24 24" fill="none" xmlns="http://www.w3.org/2000/svg"><path d="M11.009 22.5a1.54 1.54 0 0 1-.981-.324 1.48 1.48 0 0 1-.53-.864l-.432-1.837-.314-.108-1.59.982q-.48.305-1 .236a1.57 1.57 0 0 1-.923-.472l-1.364-1.365a1.55 1.55 0 0 1-.481-.923q-.06-.521.245-.992l.991-1.592-.108-.294-1.835-.432a1.5 1.5 0 0 1-.863-.54 1.53 1.53 0 0 1-.324-.973v-1.945q0-.56.314-.972.324-.412.873-.54l1.816-.443.118-.314-.992-1.591a1.46 1.46 0 0 1-.245-.982q.069-.52.481-.933l1.364-1.376q.402-.392.913-.461.52-.069 1 .226l1.59.982.334-.128.432-1.837q.127-.54.53-.864a1.54 1.54 0 0 1 .98-.324h1.983q.57 0 .972.324.411.324.54.864l.421 1.837.334.128 1.6-.982a1.46 1.46 0 0 1 .99-.226q.521.07.913.461l1.374 1.376q.402.413.471.933.069.51-.235.982L19.37 8.788l.127.314 1.816.442q.54.129.863.54.324.414.324.973v1.945q0 .56-.324.972a1.5 1.5 0 0 1-.863.54l-1.835.433-.118.294 1 1.592q.306.471.236.992a1.57 1.57 0 0 1-.47.923l-1.375 1.365a1.57 1.57 0 0 1-.922.472 1.43 1.43 0 0 1-.991-.236l-1.6-.982-.314.108-.422 1.836a1.46 1.46 0 0 1-.54.865 1.5 1.5 0 0 1-.97.324zm.157-1.532h1.668q.245 0 .275-.226l.598-2.436q.452-.108.854-.275.402-.177.717-.373l2.139 1.316q.186.128.373-.05l1.148-1.158q.166-.148.04-.364l-1.316-2.121q.176-.315.344-.717.175-.404.294-.855l2.444-.58q.225-.038.225-.284v-1.64q0-.237-.226-.285l-2.433-.59a5 5 0 0 0-.304-.894 20 20 0 0 0-.324-.687l1.305-2.122q.137-.216-.03-.383L17.8 5.104q-.176-.156-.382-.048l-2.13 1.296a8 8 0 0 0-.726-.344 5 5 0 0 0-.854-.294l-.598-2.456q-.03-.226-.275-.226h-1.668q-.245 0-.285.226l-.579 2.436a7.2 7.2 0 0 0-1.609.648l-2.12-1.286q-.195-.108-.373.049l-1.167 1.14q-.158.166-.03.382L6.308 8.75l-.323.687a5 5 0 0 0-.305.894l-2.423.59q-.226.048-.226.284v1.64q0 .247.226.286l2.433.58q.118.45.295.854.176.402.343.717l-1.315 2.121q-.117.216.04.364l1.157 1.159q.187.177.363.049l2.14-1.316q.314.195.716.373.413.167.864.275l.588 2.436q.04.226.285.226M12 15.752a3.6 3.6 0 0 1-1.884-.51 3.95 3.95 0 0 1-1.354-1.356A3.6 3.6 0 0 1 8.252 12q0-1.022.51-1.866.51-.855 1.354-1.356A3.6 3.6 0 0 1 12 8.268q1.03 0 1.874.51.854.501 1.354 1.356.51.845.51 1.866a3.6 3.6 0 0 1-.51 1.886 3.8 3.8 0 0 1-1.354 1.365q-.843.501-1.874.501m0-1.522q.599 0 1.1-.305.5-.304.794-.805.304-.51.304-1.12 0-.609-.304-1.11a2.2 2.2 0 0 0-.795-.796A2.1 2.1 0 0 0 12 9.79q-.608 0-1.119.305a2.3 2.3 0 0 0-.804.795A2.15 2.15 0 0 0 9.782 12q0 .619.295 1.13.303.5.804.805.51.294 1.119.295" fill="#000"/></svg>