<svg width="22" height="22" viewBox="0 0 22 22" fill="none" xmlns="http://www.w3.org/2000/svg"><path d="M0 10.8c0-1.68 0-2.52.327-3.162a3 3 0 0 1 1.311-1.311C2.28 6 3.12 6 4.8 6h12.4c1.68 0 2.52 0 3.162.327a3 3 0 0 1 1.311 1.311C22 8.28 22 9.12 22 10.8v6.4c0 1.68 0 2.52-.327 3.162a3 3 0 0 1-1.311 1.311C19.72 22 18.88 22 17.2 22H4.8c-1.68 0-2.52 0-3.162-.327a3 3 0 0 1-1.311-1.311C0 19.72 0 18.88 0 17.2zm3-6.3h16A1.5 1.5 0 0 0 17.5 3h-13A1.5 1.5 0 0 0 3 4.5m14-3H5A1.5 1.5 0 0 1 6.5 0h9A1.5 1.5 0 0 1 17 1.5" fill="#fff"/></svg>