<svg width="49" height="40" viewBox="0 0 49 40" fill="none" xmlns="http://www.w3.org/2000/svg"><path d="M5.973 40q-2.736 0-4.105-1.398Q.5 37.222.5 34.462v-18.51q0-2.742 1.368-4.121 1.37-1.399 4.105-1.399h37.054q2.718 0 4.087 1.399 1.386 1.38 1.386 4.121v18.51q0 2.74-1.386 4.14Q45.744 40 43.027 40zM3.94 7.47q.198-1.251.846-1.913.648-.681 1.999-.681h35.45q1.35 0 1.98.68.65.663.865 1.914zm3.709-5.096q.072-1.178.72-1.767Q9.034 0 10.277 0h28.446q1.26 0 1.909.607.648.589.738 1.767z" fill="#C8C7CB"/></svg>