<svg width="16" height="20" viewBox="0 0 16 20" fill="none" xmlns="http://www.w3.org/2000/svg"><path d="M2.83 20q-1.414 0-2.127-.691Q0 18.627 0 17.253V8.409q0-1.372.703-2.055.713-.692 2.127-.692h2.515V7.09H2.848q-.675 0-1.036.355-.36.354-.36 1.045v8.684q0 .692.36 1.046t1.036.354h10.295q.667 0 1.036-.354.37-.354.37-1.046V8.49q0-.691-.37-1.045-.37-.355-1.037-.355h-2.487V5.662h2.515q1.415 0 2.118.692.712.69.712 2.055v8.844q0 1.365-.712 2.056-.703.69-2.118.691zm5.165-6.938a.7.7 0 0 1-.504-.204.66.66 0 0 1-.208-.488v-9.1l.054-1.33-.612.63-1.362 1.435a.63.63 0 0 1-.495.213.64.64 0 0 1-.47-.177.6.6 0 0 1-.18-.452.65.65 0 0 1 .208-.46L7.473.238q.144-.132.261-.186a.67.67 0 0 1 .523 0 .9.9 0 0 1 .261.186l3.047 2.889q.216.213.216.46a.6.6 0 0 1-.189.453.66.66 0 0 1-.469.177.62.62 0 0 1-.486-.213L9.267 2.57l-.604-.63.054 1.33v9.1a.65.65 0 0 1-.217.488.7.7 0 0 1-.505.204" fill="#fff"/></svg>