<svg width="18" height="14" viewBox="0 0 18 14" fill="none" xmlns="http://www.w3.org/2000/svg"><path d="M4.1.224A.66.66 0 0 1 4.615 0q.3 0 .516.224L9.008 4.06a.68.68 0 0 1 .215.492q0 .298-.192.484a.67.67 0 0 1-.485.179.65.65 0 0 1-.477-.194L6.462 3.42 5.23 2.034l.07 1.721v9.574a.664.664 0 0 1-.685.67.67.67 0 0 1-.5-.193.64.64 0 0 1-.192-.477V3.755L4 2.035 2.762 3.42l-1.6 1.602a.67.67 0 0 1-.485.194q-.3 0-.492-.18A.66.66 0 0 1 0 4.554q0-.276.215-.492zm9.808 13.56a.7.7 0 0 1-.523.216.7.7 0 0 1-.508-.216L9 9.932a.65.65 0 0 1-.223-.492.62.62 0 0 1 .192-.477.7.7 0 0 1 .493-.179q.276 0 .476.187l1.6 1.601 1.239 1.394-.077-1.721V.67q0-.291.192-.477a.7.7 0 0 1 .5-.194q.3 0 .493.194a.64.64 0 0 1 .192.477v9.574l-.07 1.72 1.24-1.392 1.6-1.602a.66.66 0 0 1 .476-.187q.3 0 .485.18A.62.62 0 0 1 18 9.44a.66.66 0 0 1-.215.492z" fill="#000"/></svg>