<svg width="24" height="24" viewBox="0 0 24 24" fill="none" xmlns="http://www.w3.org/2000/svg"><path d="M5.524 21Q3 21 3 19.445q0-.953.618-2.031.618-1.08 1.783-2.032 1.174-.962 2.833-1.564 1.67-.603 3.771-.603 2.092 0 3.75.603 1.67.602 2.834 1.564 1.174.952 1.793 2.032.618 1.079.618 2.03Q21 21 18.476 21zm-.484-1.468h13.93q.196 0 .278-.058.093-.058.093-.214 0-.593-.484-1.37-.474-.787-1.412-1.516-.937-.73-2.308-1.205-1.359-.487-3.132-.487-1.772 0-3.142.486-1.37.477-2.308 1.206T5.133 17.89q-.474.777-.474 1.37 0 .156.082.214.093.058.3.058m6.965-7.522a4.23 4.23 0 0 1-2.236-.613 4.74 4.74 0 0 1-1.617-1.652 4.5 4.5 0 0 1-.598-2.284q0-1.234.598-2.245A4.6 4.6 0 0 1 9.77 3.603 4.3 4.3 0 0 1 12.005 3q1.236 0 2.246.593t1.608 1.604q.597 1 .597 2.245 0 1.254-.608 2.293a4.65 4.65 0 0 1-1.607 1.653 4.2 4.2 0 0 1-2.236.622m0-1.468q.762 0 1.391-.418a3.06 3.06 0 0 0 1.02-1.118q.381-.71.381-1.564 0-.846-.38-1.517a2.8 2.8 0 0 0-1.01-1.069 2.6 2.6 0 0 0-1.402-.388q-.762 0-1.401.398a3 3 0 0 0-1.01 1.079 3 3 0 0 0-.381 1.516q0 .855.381 1.555.392.7 1.02 1.118.64.408 1.391.408" fill="#000"/></svg>