<svg width="10" height="15" viewBox="0 0 10 15" fill="none" xmlns="http://www.w3.org/2000/svg"><path d="M1.657 14.76q-.199.24-.46.24a.66.66 0 0 1-.452-.158.67.67 0 0 1-.24-.424q-.035-.26.205-.547l2.039-2.408.336-1.545 1.105 1.381-.15.466q-.062.184-.117.28-.048.09-.2.267zm5.025-.205-1.435-2.9-.075-.15a1 1 0 0 0-.137-.206L3.64 9.562q-.39-.486-.542-.841-.144-.363-.096-.93l.11-1.498q.006-.137-.138-.192-.137-.06-.274.062l-.501.451-.158 1.772q-.021.328-.192.492t-.46.144a.58.58 0 0 1-.44-.205Q.793 8.618.82 8.31l.124-1.614a1.8 1.8 0 0 1 .13-.568 1.7 1.7 0 0 1 .357-.485l1.05-1.033q.5-.486.92-.746.42-.266.96-.266.729 0 1.113.479.39.471.343 1.17L5.68 7.222a7 7 0 0 1-.124.916q-.083.39-.254.924l-.061.184.885 1.252q.095.137.2.308.102.164.184.321l1.4 2.825q.172.349.07.602a.65.65 0 0 1-.35.37.73.73 0 0 1-.522.027q-.268-.075-.426-.397m2.134-8.29q.309 0 .495.171a.57.57 0 0 1 .192.445.56.56 0 0 1-.192.451q-.186.165-.495.164H7.595q-.309 0-.487-.061a.9.9 0 0 1-.337-.226l-.398-.397.117-1.648.995 1.101zM5.131 2.982q-.42 0-.762-.198a1.55 1.55 0 0 1-.536-.54 1.47 1.47 0 0 1-.199-.753q0-.417.2-.752.198-.342.535-.54.343-.2.762-.199.411 0 .748.198.344.2.542.54.2.336.2.753a1.47 1.47 0 0 1-.742 1.293 1.45 1.45 0 0 1-.748.198" fill="#000"/></svg>