<svg width="9" height="8" viewBox="0 0 9 8" fill="none" xmlns="http://www.w3.org/2000/svg"><path d="M.682 7.818a.6.6 0 0 1-.162-.285.7.7 0 0 1 0-.324.6.6 0 0 1 .157-.28l2.926-2.931L.677 1.07A.55.55 0 0 1 .52.796a.8.8 0 0 1 0-.33.6.6 0 0 1 .162-.284.57.57 0 0 1 .28-.162.7.7 0 0 1 .328 0 .6.6 0 0 1 .285.157l2.926 2.927L7.427.177a.6.6 0 0 1 .28-.157.7.7 0 0 1 .324 0 .6.6 0 0 1 .285.167.57.57 0 0 1 .162.28q.045.162 0 .324a.6.6 0 0 1-.157.28L5.4 3.998l2.92 2.931q.12.118.158.28a.7.7 0 0 1 0 .324.6.6 0 0 1-.162.285.6.6 0 0 1-.285.162.7.7 0 0 1-.324 0 .6.6 0 0 1-.28-.157L4.501 4.896 1.575 7.823a.6.6 0 0 1-.28.157.7.7 0 0 1-.329 0 .6.6 0 0 1-.284-.162" fill="#999"/></svg>