<svg width="16" height="15" viewBox="0 0 16 15" fill="none" xmlns="http://www.w3.org/2000/svg"><path d="M3.068 14.873a.67.67 0 0 1-.274-.438q-.043-.276.094-.658L4.394 9.38.546 6.666q-.339-.234-.468-.48a.65.65 0 0 1 .295-.89q.252-.129.67-.122l4.72.029L7.197.785q.129-.39.324-.587A.66.66 0 0 1 7.996 0q.281 0 .476.198.201.198.331.587l1.434 4.418 4.72-.029q.418-.006.67.12a.65.65 0 0 1 .295.891q-.129.247-.468.48L11.606 9.38l1.506 4.397q.136.382.087.658a.65.65 0 0 1-.267.438.6.6 0 0 1-.504.113q-.282-.05-.613-.283l-3.819-2.75-3.811 2.75q-.331.234-.613.283a.6.6 0 0 1-.504-.113" fill="#000"/></svg>