<svg width="8" height="8" viewBox="0 0 8 8" fill="none" xmlns="http://www.w3.org/2000/svg"><path d="M1.534 7.932a.36.36 0 0 1-.137-.234.8.8 0 0 1 .047-.35l.753-2.345L.273 3.555A.74.74 0 0 1 .04 3.3a.356.356 0 0 1 .148-.475.7.7 0 0 1 .335-.064l2.36.015.716-2.357A.8.8 0 0 1 3.76.106a.318.318 0 0 1 .476 0 .8.8 0 0 1 .166.312l.717 2.357 2.36-.015a.7.7 0 0 1 .334.064.356.356 0 0 1 .148.475.74.74 0 0 1-.234.256L5.803 5.003l.753 2.345a.7.7 0 0 1 .043.35.35.35 0 0 1-.133.234.29.29 0 0 1-.252.06.8.8 0 0 1-.306-.15l-1.91-1.467-1.906 1.467a.8.8 0 0 1-.306.15.29.29 0 0 1-.252-.06m.519-.746q.007.011.032-.008l1.733-1.383a.28.28 0 0 1 .18-.072q.097 0 .184.072l1.733 1.383q.025.019.032.008.004-.008 0-.034L5.23 4.995a.4.4 0 0 1-.025-.135.25.25 0 0 1 .036-.117.3.3 0 0 1 .094-.102l1.794-1.297q.026-.015.018-.03-.004-.011-.033-.011l-2.18.041a.3.3 0 0 1-.183-.045.3.3 0 0 1-.104-.17L4.02.946q-.007-.03-.022-.03-.01 0-.018.03L3.353 3.13a.3.3 0 0 1-.104.17.3.3 0 0 1-.184.045l-2.18-.041q-.029 0-.032.01-.008.015.018.031l1.794 1.297q.061.045.094.102a.2.2 0 0 1 .032.117.4.4 0 0 1-.021.135l-.717 2.157q-.007.026 0 .034" fill="#FF9500"/></svg>