<svg width="8" height="8" viewBox="0 0 8 8" fill="none" xmlns="http://www.w3.org/2000/svg"><path d="M1.538 7.562a.52.52 0 0 1-.201-.328.9.9 0 0 1 .048-.45l.664-1.966L.362 3.61a.96.96 0 0 1-.31-.34.47.47 0 0 1-.02-.383.5.5 0 0 1 .245-.294.9.9 0 0 1 .443-.092l2.07.017.63-1.982A.9.9 0 0 1 3.648.14.5.5 0 0 1 4.003 0a.5.5 0 0 1 .351.14.9.9 0 0 1 .228.396l.628 1.982 2.069-.017a.9.9 0 0 1 .443.092q.18.096.249.294a.48.48 0 0 1-.024.385.94.94 0 0 1-.307.338L5.953 4.818l.661 1.966a.9.9 0 0 1 .051.45.5.5 0 0 1-.2.328.47.47 0 0 1-.372.099 1 1 0 0 1-.42-.191l-1.67-1.232L2.326 7.47a.94.94 0 0 1-.42.19.46.46 0 0 1-.368-.098" fill="#FF9500"/></svg>