<svg width="16" height="15" viewBox="0 0 16 15" fill="none" xmlns="http://www.w3.org/2000/svg"><path d="M3.068 14.873a.67.67 0 0 1-.274-.438q-.043-.276.094-.658L4.394 9.38.546 6.666q-.339-.234-.468-.48a.65.65 0 0 1 .295-.89q.252-.129.67-.122l4.72.029L7.197.785q.129-.39.324-.587A.66.66 0 0 1 7.996 0q.281 0 .476.198.201.198.331.587l1.434 4.418 4.72-.029q.418-.006.67.12a.65.65 0 0 1 .295.891q-.129.247-.468.48L11.606 9.38l1.506 4.397q.136.382.087.658a.65.65 0 0 1-.267.438.6.6 0 0 1-.504.113q-.282-.05-.613-.283l-3.819-2.75-3.811 2.75q-.331.234-.613.283a.6.6 0 0 1-.504-.113m1.038-1.4q.014.021.064-.014l3.466-2.594a.58.58 0 0 1 .36-.135.6.6 0 0 1 .368.135l3.466 2.594q.05.035.064.014.008-.014 0-.064l-1.433-4.043a.7.7 0 0 1-.05-.254.44.44 0 0 1 .071-.22.65.65 0 0 1 .188-.19l3.588-2.432q.05-.029.036-.057-.008-.02-.065-.02l-4.36.077a.63.63 0 0 1-.367-.085.56.56 0 0 1-.209-.318L8.04 1.774q-.014-.056-.044-.056-.021 0-.036.056L6.707 5.867a.56.56 0 0 1-.21.318.63.63 0 0 1-.367.085l-4.359-.078q-.057 0-.065.021-.014.03.036.057L5.33 8.702q.123.084.188.19a.4.4 0 0 1 .065.22.6.6 0 0 1-.044.254L4.106 13.41q-.015.05 0 .063" fill="#000"/></svg>