<svg width="20" height="19" viewBox="0 0 20 19" fill="none" xmlns="http://www.w3.org/2000/svg"><path d="M3.835 18.839a.85.85 0 0 1-.342-.555q-.054-.349.117-.833l1.882-5.57-4.81-3.438Q.26 8.147.098 7.835a.8.8 0 0 1-.054-.645.82.82 0 0 1 .424-.484q.315-.16.837-.152l5.9.036L8.995.994Q9.158.502 9.4.25A.82.82 0 0 1 9.996 0q.351 0 .594.25.252.252.414.744l1.793 5.596 5.899-.036q.522-.009.837.152.316.162.424.484a.8.8 0 0 1-.054.645q-.162.313-.586.608l-4.81 3.439 1.883 5.569q.171.483.108.833a.82.82 0 0 1-.333.555.75.75 0 0 1-.63.143q-.352-.063-.766-.358L9.996 15.14 5.23 18.624q-.414.295-.766.358a.75.75 0 0 1-.63-.143m1.297-1.773q.018.027.081-.018l4.332-3.286a.72.72 0 0 1 .45-.17.73.73 0 0 1 .46.17l4.332 3.286q.063.045.081.018.009-.018 0-.08l-1.792-5.122a.9.9 0 0 1-.063-.323.56.56 0 0 1 .09-.277.8.8 0 0 1 .234-.242l4.485-3.08q.063-.036.045-.072-.01-.026-.08-.026l-5.45.098a.8.8 0 0 1-.46-.107q-.18-.126-.26-.403l-1.568-5.185q-.017-.07-.053-.071-.028 0-.046.071L8.383 7.432q-.08.277-.26.403a.8.8 0 0 1-.46.107l-5.45-.098q-.07 0-.08.026-.018.036.045.072l4.485 3.08q.153.107.234.242a.5.5 0 0 1 .081.277.8.8 0 0 1-.054.323l-1.792 5.121q-.018.063 0 .081" fill="#FF9500"/></svg>