<svg width="20" height="19" viewBox="0 0 20 19" fill="none" xmlns="http://www.w3.org/2000/svg"><path d="M0 6.086q0-1.34.423-2.448a5.8 5.8 0 0 1 1.208-1.935A5.4 5.4 0 0 1 3.444.443 5.8 5.8 0 0 1 5.71 0q1.4 0 2.508.615Q9.325 1.23 10 2.247A5.14 5.14 0 0 1 11.783.615Q12.89 0 14.29 0q1.229 0 2.266.443a5.3 5.3 0 0 1 1.813 1.26 5.7 5.7 0 0 1 1.198 1.935Q20 4.746 20 6.086q0 2.145-1.138 4.252-1.128 2.097-3.212 4.091-2.075 1.985-4.915 3.799a2 2 0 0 1-.372.181.9.9 0 0 1-.363.091 1 1 0 0 1-.363-.09 2.3 2.3 0 0 1-.362-.182q-2.84-1.815-4.925-3.799-2.084-1.995-3.222-4.09Q0 8.231 0 6.085m1.621 0q0 1.4.675 2.842.674 1.43 1.833 2.81a23 23 0 0 0 2.618 2.64q1.47 1.251 3.052 2.298.16.12.201.121.04 0 .211-.12a31 31 0 0 0 3.042-2.298q1.47-1.26 2.618-2.64 1.158-1.38 1.833-2.811.675-1.441.675-2.842 0-1.34-.534-2.338a3.84 3.84 0 0 0-1.45-1.561q-.917-.565-2.085-.565-.946 0-1.631.343-.675.333-1.168.846a8 8 0 0 0-.826.998q-.222.292-.363.403a.5.5 0 0 1-.322.11.6.6 0 0 1-.332-.1q-.141-.111-.353-.413A6.6 6.6 0 0 0 8.51 2.8a4 4 0 0 0-1.179-.836q-.694-.343-1.641-.343-1.168 0-2.095.565-.915.554-1.45 1.561-.524.998-.524 2.338" fill="#000"/></svg>