<svg width="22" height="17" viewBox="0 0 22 17" fill="none" xmlns="http://www.w3.org/2000/svg"><path d="M4.248 4.968q-.088.336.062.518.15.18.521.163l1.395-.06q.804-.034 1.961-.052 1.157-.026 2.809-.026 1.66 0 2.817.026 1.157.018 1.96.052l1.405.06q.37.018.512-.163.15-.182.07-.518-.087-.362-.22-.776a20 20 0 0 0-.265-.776 4 4 0 0 0-.247-.561q-.213-.397-.504-.578t-.777-.25q-.424-.07-1.59-.095-1.165-.026-3.161-.026-1.987 0-3.153.035-1.166.026-1.59.086-.486.07-.777.25t-.504.578q-.106.198-.247.56-.133.362-.265.777a9 9 0 0 0-.212.776m.124 6.952q.67 0 1.121-.44.45-.448.45-1.095 0-.664-.45-1.104t-1.121-.44-1.122.44-.45 1.104q0 .646.45 1.095.45.44 1.122.44m4.16-.397h4.937q.503 0 .82-.31a1.1 1.1 0 0 0 .319-.811q0-.492-.318-.802t-.821-.31H8.532q-.504 0-.822.31t-.318.802.318.81q.318.311.822.311m9.096.397q.672 0 1.122-.44.45-.448.45-1.095 0-.664-.45-1.104t-1.122-.44q-.67 0-1.121.44-.45.439-.45 1.104 0 .646.45 1.095.45.44 1.121.44m-6.632 2.527q-1.157 0-2.43-.026-1.27-.026-2.48-.069-1.211-.052-2.218-.112a35 35 0 0 1-1.625-.13q-1.06-.12-1.651-.707Q0 12.81 0 11.816v-1.362q0-.82.097-1.415.106-.603.345-1.113.247-.517.67-1.052l.831-.992q.168-.776.397-1.535.231-.759.45-1.363.23-.603.39-.923Q3.567 1.242 4.3.76A3.9 3.9 0 0 1 6.006.147q.352-.044 1.06-.078Q7.771.035 8.77.017 9.776 0 10.996 0q1.227 0 2.225.017 1.006.018 1.714.052.706.025 1.06.078.97.12 1.704.612.741.483 1.13 1.302.15.319.371.923.23.604.46 1.363.23.76.388 1.535l.84.992q.423.535.662 1.052.247.51.344 1.113.105.595.106 1.415v1.362q0 .993-.592 1.579-.591.586-1.651.716-.627.069-1.634.129-.998.06-2.217.112-1.21.043-2.482.07-1.263.024-2.428.025M1.236 17q-.52 0-.883-.354A1.15 1.15 0 0 1 0 15.792v-4.114l3.577 1.846v2.269q0 .508-.362.853A1.2 1.2 0 0 1 2.34 17zm18.424 0q-.522 0-.875-.354a1.15 1.15 0 0 1-.353-.854v-2.268L22 11.678v4.115q0 .508-.362.853a1.2 1.2 0 0 1-.875.354z" fill="#999"/></svg>