<svg width="22" height="18" viewBox="0 0 22 18" fill="none" xmlns="http://www.w3.org/2000/svg"><path d="M20.988 12.207q0 .964-.458 1.487-.448.522-1.293.522H2.482q-.678 0-1.021-.46-.343-.459-.343-1.36l3.361-3.108a2 2 0 0 1 .546-.378q.29-.126.59-.126.307 0 .607.135.3.126.572.378l2.173 2.01H8.58l4.523-4.136q.3-.279.625-.405.335-.135.695-.135.361 0 .695.135.344.135.634.414zM7.172 7.288A2 2 0 0 1 6.125 7a2.15 2.15 0 0 1-1.039-1.856q0-.576.282-1.054.282-.486.757-.775a2 2 0 0 1 1.047-.288q.563 0 1.03.288.466.289.748.775.28.477.281 1.054 0 .595-.281 1.081A2.2 2.2 0 0 1 8.202 7a1.9 1.9 0 0 1-1.03.288m-4.91 7.658q-1.118 0-1.69-.586Q0 13.775 0 12.63V2.307Q0 1.172.572.586T2.262 0h17.476q1.118 0 1.69.586T22 2.306v10.325q0 1.143-.572 1.73-.572.585-1.69.585zm.026-1.45h17.424q.44 0 .651-.217.22-.225.22-.666V2.333q0-.441-.22-.657-.21-.225-.651-.226H2.288q-.431 0-.651.226-.22.216-.22.657v10.28q0 .441.22.666.22.216.651.216M6.574 18a.68.68 0 0 1-.502-.216.7.7 0 0 1-.211-.514q0-.298.211-.513a.68.68 0 0 1 .502-.216h8.852q.29 0 .502.216a.7.7 0 0 1 .211.513.7.7 0 0 1-.211.514.68.68 0 0 1-.502.216z" fill="#999"/></svg>