<svg width="22" height="16" viewBox="0 0 22 16" fill="none" xmlns="http://www.w3.org/2000/svg"><path d="M10.657 12.082q-1.605 0-2.91-.514a6.4 6.4 0 0 1-2.24-1.457A6.6 6.6 0 0 1 4.07 7.883q-.5-1.293-.5-2.85v-1.63q0-1.028.935-1.792Q5.442.85 7.126.428 8.812 0 11.052 0q2.242 0 3.918.428 1.686.421 2.62 1.184.936.765.936 1.792v1.628q0 1.581-.5 2.882a6.3 6.3 0 0 1-1.435 2.228 6.4 6.4 0 0 1-2.241 1.441q-1.299.5-2.91.499zm.395-6.98q1.613 0 2.903-.233 1.298-.234 2.055-.616.765-.39.766-.849 0-.468-.766-.849-.758-.382-2.055-.615-1.29-.242-2.903-.242t-2.91.242q-1.29.233-2.056.615-.757.38-.757.85 0 .458.757.848.766.382 2.056.616 1.298.233 2.91.233m6.417 3.31v-1.62h.79q.67 0 1.024-.256a.84.84 0 0 0 .363-.725.81.81 0 0 0-.363-.709q-.355-.257-1.024-.257h-.733v-1.62h.733q1.427 0 2.25.693.822.693.822 1.893 0 1.215-.822 1.909-.814.693-2.25.693zM11.004 16q-2.427 0-4.442-.32-2.015-.319-3.49-.919-1.468-.591-2.274-1.41Q0 12.527 0 11.522q0-.998.806-1.815.806-.825 2.274-1.426a7.4 7.4 0 0 0 1.676 2.571 7.65 7.65 0 0 0 2.588 1.683q1.5.592 3.313.592h.782q2.37 0 4.176-.974a7.2 7.2 0 0 0 2.838-2.695q.54-.024 1.008-.125a4.4 4.4 0 0 0 .878-.304q.797.522 1.226 1.153.435.63.435 1.34 0 1.005-.806 1.83-.798.819-2.265 1.41-1.468.6-3.483.92T11.004 16" fill="#999"/></svg>