<svg width="18" height="24" viewBox="0 0 18 24" fill="none" xmlns="http://www.w3.org/2000/svg"><path d="M12.695 5.042q-.691 0-1.27-.33a2.6 2.6 0 0 1-.918-.91 2.54 2.54 0 0 1-.33-1.281q0-.693.33-1.26.34-.58.918-.92T12.696 0q.69 0 1.26.34.576.342.918.92.34.57.34 1.26 0 .704-.34 1.282a2.6 2.6 0 0 1-.919.91q-.567.33-1.259.33M8.381 24q-2.55 0-4.428-1.054a7.46 7.46 0 0 1-2.92-2.924Q0 18.153 0 15.714q0-.96.217-1.85.216-.897.609-1.694.309-.63.774-.774.465-.146.877.051.423.197.599.63.176.424-.093.94-.32.6-.485 1.282-.165.671-.165 1.415 0 1.726.743 3.079A5.44 5.44 0 0 0 5.18 20.9q1.362.765 3.2.764 1.734 0 3.055-.713A5.23 5.23 0 0 0 13.5 18.98q.753-1.26.753-2.883 0-.588-.381-.93-.372-.34-.98-.34H9.463q-.825 0-1.372-.414a2.04 2.04 0 0 1-.733-1.115q-.176-.693.113-1.53L8.68 8.359q.114-.3 0-.496t-.433-.279l-2.292-.62L2.002 9.05q-.453.238-.877.155a1.08 1.08 0 0 1-.692-.465 1.07 1.07 0 0 1-.216-.867q.093-.476.505-.713l4.325-2.44q.32-.186.588-.227.269-.051.589.031l4.448 1.116q1.146.29 1.63 1.147.496.857.135 1.952l-.99 3.007q-.063.175.01.29.081.102.247.102h1.435q1.661 0 2.55 1.034.886 1.022.887 2.923 0 2.325-1.032 4.102a7.17 7.17 0 0 1-2.87 2.79Q10.827 24 8.381 24m8.298 0q-.547 0-.929-.382a1.24 1.24 0 0 1-.382-.93q0-.558.382-.94.382-.372.929-.372.557 0 .94.372.381.382.381.94t-.382.93a1.28 1.28 0 0 1-.94.382" fill="#999"/></svg>