<svg width="22" height="22" viewBox="0 0 22 22" fill="none" xmlns="http://www.w3.org/2000/svg"><path d="M10.995 22q-2.259 0-4.248-.865a11.1 11.1 0 0 1-3.509-2.375 11.2 11.2 0 0 1-2.384-3.5Q0 13.271 0 11q0-2.26.854-4.25a11.4 11.4 0 0 1 2.374-3.51A11.1 11.1 0 0 1 6.736.865 10.6 10.6 0 0 1 10.995 0q2.259 0 4.248.865A11 11 0 0 1 18.75 3.24a11.3 11.3 0 0 1 2.385 3.51Q22 8.74 22 11q0 2.271-.864 4.26a11.2 11.2 0 0 1-2.384 3.5 11 11 0 0 1-3.499 2.375 10.6 10.6 0 0 1-4.258.865m.01-9.448q1.114 0 1.177-1.146l.177-4.49q.02-.582-.365-.947-.385-.375-1-.375-.624 0-1.01.364-.374.365-.343.948l.167 4.51q.062 1.136 1.197 1.136m0 3.77q.625.001 1.041-.364.427-.364.427-.958t-.427-.958q-.416-.365-1.04-.365-.626 0-1.052.365-.427.364-.427.958t.427.958q.437.365 1.051.365" fill="#000"/></svg>