<svg width="14" height="22" viewBox="0 0 14 22" fill="none" xmlns="http://www.w3.org/2000/svg"><path d="M3.335 22q-.62 0-.986-.353-.359-.343-.35-.958l.184-10.408q0-.335-.096-.506a.65.65 0 0 0-.323-.28 4.2 4.2 0 0 1-1.04-.66 2.1 2.1 0 0 1-.584-.923q-.175-.57-.131-1.483L.27.913Q.288.56.47.362A.67.67 0 0 1 .987.154q.315 0 .48.208.174.207.174.57l-.078 5.334q-.009.561.489.561.226 0 .358-.145a.57.57 0 0 0 .148-.389L2.645.751q.009-.344.192-.543A.63.63 0 0 1 3.335 0q.315 0 .498.208.183.199.192.543l.096 5.542q0 .255.13.398.14.135.368.136a.45.45 0 0 0 .349-.145q.13-.144.13-.416L5.029.931q.001-.36.175-.57a.6.6 0 0 1 .48-.207q.673 0 .717.76l.253 5.515q.043.913-.14 1.483a2 2 0 0 1-.576.922 4.3 4.3 0 0 1-1.03.66.7.7 0 0 0-.332.28q-.096.173-.087.507L4.67 20.69q0 .615-.358.958-.358.353-.978.353m8.142-8.201a.95.95 0 0 0-.096-.489 1.2 1.2 0 0 0-.35-.37l-.375-.263q-.428-.299-.602-.65-.175-.354-.175-.878v-.551q0-1.348.184-2.767.191-1.421.532-2.767.349-1.357.803-2.496.463-1.148 1.013-1.935.227-.325.428-.48A.74.74 0 0 1 13.302 0a.68.68 0 0 1 .497.199Q14 .398 14 .75v19.974q0 .597-.358.931-.358.345-.986.344-.621 0-.987-.353-.358-.343-.35-.976z" fill="#999"/></svg>