<svg width="20" height="19" viewBox="0 0 20 19" fill="none" xmlns="http://www.w3.org/2000/svg"><path d="M10.005 18.5q-.24 0-.577-.172a6 6 0 0 1-.663-.393q-2.643-1.724-4.623-3.63-1.97-1.914-3.056-3.935Q0 8.34 0 6.291q0-1.417.452-2.566A6.1 6.1 0 0 1 1.71 1.733 5.6 5.6 0 0 1 3.546.45Q4.594 0 5.776 0q1.47 0 2.528.737a5.34 5.34 0 0 1 1.7 1.896A5.4 5.4 0 0 1 11.697.737Q12.764 0 14.233 0q1.173 0 2.22.45t1.836 1.283q.797.834 1.25 1.992.46 1.149.461 2.566 0 2.049-1.086 4.08-1.086 2.02-3.056 3.935-1.97 1.905-4.613 3.629a6 6 0 0 1-.663.393q-.337.172-.577.172" fill="#000"/></svg>