<svg width="20" height="18" viewBox="0 0 20 18" fill="none" xmlns="http://www.w3.org/2000/svg"><path d="M.5 8.151q0-.861.28-1.556.289-.703.777-1.108a1.68 1.68 0 0 1 1.101-.413q.615 0 1.102.413.496.405.777 1.108.289.695.289 1.556 0 .87-.29 1.566-.28.694-.776 1.108a1.7 1.7 0 0 1-2.203 0Q1.069 10.41.78 9.717A4.2 4.2 0 0 1 .5 8.15m4.38-5.073q0-.87.289-1.566.288-.694.776-1.099A1.68 1.68 0 0 1 7.047 0q.615 0 1.102.413.496.404.785 1.1.29.694.29 1.565 0 .861-.29 1.565-.288.695-.785 1.1a1.7 1.7 0 0 1-2.203 0q-.489-.405-.777-1.1a4.1 4.1 0 0 1-.29-1.565m5.906 0q0-.87.28-1.566.288-.694.776-1.099A1.7 1.7 0 0 1 12.952 0q.606 0 1.094.413.496.404.785 1.1.29.694.29 1.565 0 .861-.29 1.565-.288.695-.785 1.1-.488.404-1.093.404-.615 0-1.11-.405-.489-.404-.777-1.1a4.2 4.2 0 0 1-.28-1.564m4.388 5.073q0-.861.29-1.556.288-.703.776-1.108a1.66 1.66 0 0 1 2.194 0q.497.405.777 1.108.29.695.289 1.556a4 4 0 0 1-.289 1.566q-.28.694-.777 1.108-.488.404-1.092.404a1.68 1.68 0 0 1-1.102-.404q-.488-.414-.777-1.108a4 4 0 0 1-.289-1.566M3.21 14.958q0-.757.271-1.293.271-.537.686-.932.416-.405.867-.765.37-.29.714-.59a3.4 3.4 0 0 0 .596-.677q.199-.29.36-.597.172-.317.317-.625.325-.668.66-1.266.342-.607.875-.976.533-.378 1.445-.378t1.445.378q.532.37.867.976.343.598.668 1.275.145.307.307.624.17.309.38.607.244.37.586.668.344.29.714.58.442.361.858.766.424.396.695.932t.27 1.293q0 .887-.387 1.574a2.7 2.7 0 0 1-1.066 1.072q-.686.396-1.59.396-.668 0-1.182-.15-.515-.15-.976-.307a14 14 0 0 0-.767-.238A3.3 3.3 0 0 0 10 17.21q-.443 0-.83.096-.38.105-.76.238-.468.158-.984.308-.514.15-1.183.149-.902 0-1.589-.396a2.8 2.8 0 0 1-1.066-1.072q-.379-.686-.379-1.575" fill="#999"/></svg>