<svg width="24" height="18" viewBox="0 0 24 18" fill="none" xmlns="http://www.w3.org/2000/svg"><path d="M14.402 5.778c-.366 0-.641-.264-.641-.606 0-.332.275-.596.641-.596h5.557c.357 0 .631.264.631.596 0 .342-.274.606-.63.606zm0 3.833c-.366 0-.641-.274-.641-.616 0-.332.275-.587.641-.587h5.557c.357 0 .631.255.631.587a.62.62 0 0 1-.63.616zm0 3.823c-.366 0-.641-.254-.641-.587 0-.342.275-.616.641-.616h5.557c.357 0 .631.274.631.616 0 .333-.274.587-.63.587zm-10.606.068c-.335 0-.498-.215-.498-.508 0-.92 1.425-3.285 4.468-3.285s4.478 2.366 4.478 3.285c0 .293-.162.508-.498.508zm3.97-4.478c-1.232 0-2.23-.997-2.23-2.336 0-1.252.998-2.288 2.23-2.288 1.242 0 2.229 1.036 2.229 2.288 0 1.34-.987 2.346-2.23 2.336M3.196 18h17.608C22.942 18 24 16.993 24 14.979V3.03C24 1.017 22.942 0 20.804 0H3.196C1.069 0 0 1.017 0 3.031v11.948C0 16.993 1.069 18 3.196 18" fill="#999"/></svg>