<svg width="22" height="18" viewBox="0 0 22 18" fill="none" xmlns="http://www.w3.org/2000/svg"><path d="M17.452 18a4.52 4.52 0 0 1-3.94-2.209 4.3 4.3 0 0 1-.608-2.258q0-1.01.399-1.98.399-.969.828-1.758l2.234-4.178q.36-.67 1.087-.67.728 0 1.077.67l2.244 4.178q.42.789.818 1.759.41.97.409 1.979a4.3 4.3 0 0 1-.608 2.258 4.54 4.54 0 0 1-1.646 1.61 4.5 4.5 0 0 1-2.294.599M4.336 5.997a7.3 7.3 0 0 1-1.915-.25 7.6 7.6 0 0 1-1.775-.74q-.519-.3-.618-.78a1.15 1.15 0 0 1 .16-.889 1.1 1.1 0 0 1 .628-.46q.399-.11.817.12.719.42 1.357.6.638.17 1.346.17 1.207 0 2.254-.38a13.4 13.4 0 0 0 2.035-.94q.987-.559 2.015-1.119 1.028-.57 2.184-.95Q13.992.002 15.387 0a7.2 7.2 0 0 1 1.905.25q.928.24 1.786.74.518.31.618.799.11.48-.17.89a1.14 1.14 0 0 1-.638.44q-.39.1-.798-.13a5.5 5.5 0 0 0-1.366-.59 5.2 5.2 0 0 0-1.337-.17q-1.216 0-2.274.38-1.048.38-2.044.949-.988.56-2.015 1.12t-2.184.939q-1.148.38-2.534.38m.01 5.367a7.3 7.3 0 0 1-1.915-.25 8 8 0 0 1-1.775-.75q-.51-.3-.618-.78a1.13 1.13 0 0 1 .17-.889q.228-.35.628-.46.399-.11.807.12.719.42 1.357.6t1.346.18q1.167 0 2.165-.35 1.007-.35 1.945-.87l1.895-1.069q.957-.549 2.044-.96a8.4 8.4 0 0 1 2.384-.499l-.688 1.29q-.35.639-.688 1.279-.898.25-1.746.67a34 34 0 0 0-1.675.879q-.828.47-1.706.89-.877.42-1.845.699-.967.27-2.085.27m-.01 5.357a7 7 0 0 1-1.915-.26 7.6 7.6 0 0 1-1.775-.74q-.519-.3-.618-.78a1.15 1.15 0 0 1 .16-.889 1.1 1.1 0 0 1 .628-.46q.399-.11.817.12.719.42 1.357.6t1.346.18q1.068 0 1.995-.3a11 11 0 0 0 1.795-.76q.878-.46 1.746-.969.877-.51 1.845-.92-.189.63-.27 1.3-.07.66.02 1.23a29 29 0 0 0-1.625.859q-.808.46-1.666.86-.848.409-1.805.669-.948.26-2.035.26" fill="#999"/></svg>