<svg width="24" height="13" viewBox="0 0 24 13" fill="none" xmlns="http://www.w3.org/2000/svg"><path d="M1.392 11.148a1.43 1.43 0 0 1-.99-.36A1.17 1.17 0 0 1 0 9.892V3.116q0-.538.402-.904.404-.368.99-.368.596 0 .998.368.402.367.403.904v6.776q0 .528-.403.896-.401.36-.998.36M5.826 13q-.981 0-1.585-.566-.603-.566-.603-1.455V2.036q0-.897.603-1.463Q4.844 0 5.826 0q.99 0 1.594.573.603.566.603 1.463v8.943q0 .89-.603 1.455T5.826 13M8.91 8.22V4.78h6.223v3.44zM18.214 13q-.982 0-1.586-.566-.603-.566-.603-1.455V2.036q0-.897.603-1.463Q17.232 0 18.214 0q.99 0 1.593.573.604.566.604 1.463v8.943q0 .89-.604 1.455-.603.566-1.593.566m4.386-1.852a1.43 1.43 0 0 1-.99-.36 1.18 1.18 0 0 1-.395-.896V3.116q0-.538.395-.904.402-.368.99-.368.586 0 .99.368.41.367.41.904v6.776q0 .528-.41.896a1.43 1.43 0 0 1-.99.36" fill="#999"/></svg>