<svg width="24" height="16" viewBox="0 0 24 16" fill="none" xmlns="http://www.w3.org/2000/svg"><path d="M16.303 5.161q-.65 0-1.177-.31a2.5 2.5 0 0 1-.852-.83 2.2 2.2 0 0 1-.316-1.16q0-.64.316-1.159.325-.528.852-.838a2.27 2.27 0 0 1 1.177-.311q.642 0 1.178.31.536.311.842.84.316.517.316 1.159 0 .63-.316 1.159a2.3 2.3 0 0 1-.842.83q-.537.31-1.178.31m-4.308 4.25q-.622 0-1.13-.226a13 13 0 0 1-1.024-.546 6.3 6.3 0 0 0-1.196-.556q-.67-.245-1.609-.245a9 9 0 0 0-1.436.085 6 6 0 0 0-1.024.245l4.72-3.045q.19-.122.2-.292t-.143-.32L7.735 2.87 4.672 5q-.48.33-.948.254a1.27 1.27 0 0 1-.756-.386 1.3 1.3 0 0 1-.326-.895q0-.538.575-.943L7.15.29q.46-.33.977-.283t.89.433l7.256 7.436q-.755.104-1.311.35-.556.244-1.024.527-.47.274-.929.471a2.7 2.7 0 0 1-1.015.189M.785 12.39a.8.8 0 0 1-.565-.217.76.76 0 0 1-.22-.546q0-.32.22-.547a.77.77 0 0 1 .565-.226h1.11q.66 0 1.159-.236a10 10 0 0 0 1.005-.556q.517-.32 1.187-.556.68-.236 1.704-.236.92 0 1.58.236.66.235 1.196.556.546.32 1.082.556t1.187.236q.66 0 1.197-.236a10 10 0 0 0 1.072-.556 6.7 6.7 0 0 1 1.197-.556q.66-.236 1.589-.236 1.014 0 1.685.236.68.235 1.187.556.517.32 1.015.556t1.158.236h1.11q.336 0 .565.226.23.226.23.547a.74.74 0 0 1-.23.546.8.8 0 0 1-.565.217h-1.11q-1.053 0-1.752-.236a5.7 5.7 0 0 1-1.197-.556 11 11 0 0 0-.986-.556 2.5 2.5 0 0 0-1.11-.236 2.2 2.2 0 0 0-1.015.236q-.46.236-.995.556-.527.322-1.255.556-.727.236-1.79.236-1.053 0-1.78-.236a6.2 6.2 0 0 1-1.264-.556 16 16 0 0 0-1.005-.556 2.15 2.15 0 0 0-.996-.236q-.64.001-1.12.236-.479.236-.986.556-.507.322-1.206.556-.69.236-1.743.236zm.134 3.11a.67.67 0 0 1-.488-.198.64.64 0 0 1-.201-.471.65.65 0 0 1 .2-.48.67.67 0 0 1 .489-.199q.278 0 .479.198a.65.65 0 0 1 .2.48q0 .274-.2.472a.66.66 0 0 1-.479.198m1.905-.33a.7.7 0 0 1-.488-.198.65.65 0 0 1-.201-.48q0-.274.2-.472a.7.7 0 0 1 .49-.198q.286 0 .478.198.2.199.2.472a.65.65 0 0 1-.2.48.64.64 0 0 1-.479.198m1.752-.82a.68.68 0 0 1-.479-.188.66.66 0 0 1-.2-.49q0-.274.2-.472a.66.66 0 0 1 .479-.197.67.67 0 0 1 .488.197.64.64 0 0 1 .201.472.66.66 0 0 1-.2.49.7.7 0 0 1-.489.188m1.886-.528a.67.67 0 0 1-.488-.197.64.64 0 0 1-.201-.472.63.63 0 0 1 .2-.48.67.67 0 0 1 .489-.198q.278 0 .479.198a.63.63 0 0 1 .2.48q0 .274-.2.471a.66.66 0 0 1-.48.198m1.867.528a.7.7 0 0 1-.489-.188.68.68 0 0 1-.191-.49q0-.274.191-.472a.67.67 0 0 1 .489-.197q.277 0 .478.197.21.198.211.472 0 .292-.21.49a.68.68 0 0 1-.48.188m1.761.82a.67.67 0 0 1-.488-.198.65.65 0 0 1-.201-.48q0-.274.2-.472a.67.67 0 0 1 .49-.198q.276 0 .478.198.2.199.2.472a.65.65 0 0 1-.2.48.66.66 0 0 1-.479.198m1.915.33a.67.67 0 0 1-.488-.198.64.64 0 0 1-.201-.471.65.65 0 0 1 .2-.48.67.67 0 0 1 .489-.199q.277 0 .478.198a.65.65 0 0 1 .201.48q0 .274-.2.472a.66.66 0 0 1-.48.198m1.905-.33a.66.66 0 0 1-.479-.198.65.65 0 0 1-.2-.48q0-.274.2-.472a.66.66 0 0 1 .479-.198.67.67 0 0 1 .488.198q.201.199.201.472a.65.65 0 0 1-.2.48.67.67 0 0 1-.49.198m1.761-.82a.7.7 0 0 1-.488-.188.66.66 0 0 1-.2-.49q0-.274.2-.472a.7.7 0 0 1 .488-.197q.287 0 .479.197a.64.64 0 0 1 .201.472.66.66 0 0 1-.201.49.66.66 0 0 1-.479.188m1.867-.528a.66.66 0 0 1-.479-.197.64.64 0 0 1-.2-.472.63.63 0 0 1 .2-.48.66.66 0 0 1 .48-.198.67.67 0 0 1 .487.198.63.63 0 0 1 .201.48q0 .274-.2.471a.67.67 0 0 1-.489.198m1.886.528a.7.7 0 0 1-.488-.188.66.66 0 0 1-.201-.49q0-.274.2-.472a.7.7 0 0 1 .489-.197q.288 0 .479.197a.64.64 0 0 1 .2.472.66.66 0 0 1-.2.49.66.66 0 0 1-.479.188m1.752.82a.665.665 0 0 1-.68-.678q0-.274.192-.472a.67.67 0 0 1 .488-.198.67.67 0 0 1 .488.198q.201.199.201.472a.65.65 0 0 1-.2.48.67.67 0 0 1-.49.198m1.905.33a.66.66 0 0 1-.479-.198.64.64 0 0 1-.2-.471.65.65 0 0 1 .2-.48.66.66 0 0 1 .479-.199.67.67 0 0 1 .488.198.65.65 0 0 1 .201.48q0 .274-.2.472a.67.67 0 0 1-.489.198" fill="#000"/></svg>