<svg width="20" height="22" viewBox="0 0 20 22" fill="none" xmlns="http://www.w3.org/2000/svg"><path d="M9.99 12.407a6.4 6.4 0 0 1-2.462-.475 6.6 6.6 0 0 1-2.023-1.31 6.3 6.3 0 0 1-1.363-1.943 5.7 5.7 0 0 1-.494-2.366v-.158q.009-.079.009-.158A3.14 3.14 0 0 1 1.25 4.432a2.9 2.9 0 0 1-.366-1.434q0-.826.42-1.503Q1.727.81 2.44.405A3.16 3.16 0 0 1 4.023 0Q4.79 0 5.44.334q.659.325 1.09.88.75-.475 1.628-.73A6.3 6.3 0 0 1 9.99.22q.96 0 1.83.264.879.255 1.639.73.429-.555 1.08-.88A3.1 3.1 0 0 1 15.965 0q.86 0 1.574.404.714.405 1.135 1.09.43.678.43 1.504 0 .783-.375 1.434a3.13 3.13 0 0 1-2.398 1.565v.316a5.7 5.7 0 0 1-.494 2.366 6.1 6.1 0 0 1-1.364 1.943 6.4 6.4 0 0 1-2.022 1.31 6.4 6.4 0 0 1-2.462.475m-2.471-6.49q.337 0 .585-.228a.76.76 0 0 0 .247-.571.76.76 0 0 0-.247-.563.82.82 0 0 0-.585-.238q-.33 0-.577.238a.76.76 0 0 0-.247.563q0 .334.247.571a.82.82 0 0 0 .577.229m4.96 0a.8.8 0 0 0 .567-.228.76.76 0 0 0 .247-.571.76.76 0 0 0-.247-.563.8.8 0 0 0-.568-.238q-.347 0-.594.238a.77.77 0 0 0-.238.563q0 .334.238.571a.85.85 0 0 0 .594.229M4.022 1.364q-.705 0-1.208.484a1.54 1.54 0 0 0-.504 1.151q0 .608.403 1.064a1.7 1.7 0 0 0 1.18.563q.22-.72.614-1.363a6.3 6.3 0 0 1 .915-1.178 1.7 1.7 0 0 0-.595-.519 1.64 1.64 0 0 0-.805-.202m11.942 0a1.7 1.7 0 0 0-.814.202 1.7 1.7 0 0 0-.595.519q.531.528.924 1.178.393.642.604 1.363.055 0 .165-.017.613-.088 1.016-.546.402-.465.402-1.064 0-.668-.503-1.151a1.67 1.67 0 0 0-1.199-.484m-5.948 10.235q.786 0 1.437-.378.659-.378 1.052-1.003.393-.633.393-1.398t-.393-1.389a2.9 2.9 0 0 0-1.053-1.002 2.8 2.8 0 0 0-1.436-.378q-.796 0-1.455.378-.66.378-1.053 1.01a2.6 2.6 0 0 0-.384 1.381q0 .765.384 1.398.394.633 1.044 1.012.659.369 1.464.369m-.028-2.436q-.274 0-.622-.202a3.5 3.5 0 0 1-.604-.457q-.247-.247-.247-.36 0-.273.42-.572.422-.3 1.053-.3.632 0 1.034.3.412.3.412.571 0 .115-.247.36-.238.247-.576.458-.34.202-.623.202m8.1 1.864q.832.36 1.317 1.056.494.694.576 1.53a2.9 2.9 0 0 1-.292 1.617q-.285.581-.75.985-.459.405-1.044.616-.375-1.328-1.345-2.163a3.3 3.3 0 0 0-2.242-.844q-1.08 0-1.95.606-.86.607-1.372 1.636-.504 1.02-.504 2.268 0 .836.23 1.574.237.739.64 1.328-.412.053-.888.062a13 13 0 0 1-.942 0 8 8 0 0 1-.87-.062 4.9 4.9 0 0 0 .632-1.328 5.1 5.1 0 0 0 .238-1.574q0-1.248-.513-2.268-.512-1.029-1.373-1.636a3.3 3.3 0 0 0-1.94-.607q-1.272 0-2.242.845-.97.836-1.354 2.163a3.3 3.3 0 0 1-1.052-.616 3 3 0 0 1-.732-.985 2.95 2.95 0 0 1-.302-1.617 3.25 3.25 0 0 1 .576-1.53 3.1 3.1 0 0 1 1.327-1.056L5.313 9.55l3.77 2.471h1.84l3.77-2.47zM5.696 22a2.44 2.44 0 0 1-1.482-.492q-.66-.493-1.052-1.328a4.4 4.4 0 0 1-.385-1.847q0-1.002.385-1.829.393-.825 1.052-1.319a2.44 2.44 0 0 1 1.482-.492q.825 0 1.483.492.66.493 1.043 1.32a4.2 4.2 0 0 1 .394 1.828q0 1.012-.394 1.847-.384.836-1.043 1.328T5.697 22m8.612 0q-.825 0-1.483-.492-.66-.493-1.052-1.328a4.4 4.4 0 0 1-.385-1.847q0-1.002.385-1.829.393-.825 1.052-1.319.66-.492 1.483-.492.814 0 1.473.492.66.493 1.043 1.32a4.2 4.2 0 0 1 .394 1.828q0 1.012-.394 1.847-.384.836-1.043 1.328-.66.492-1.473.492" fill="#000"/></svg>