<svg width="20" height="20" viewBox="0 0 20 20" fill="none" xmlns="http://www.w3.org/2000/svg"><rect width="20" height="20" rx="10" fill="#999"/><path d="M6.248 13.753a.86.86 0 0 1-.222-.398 1 1 0 0 1 0-.449.8.8 0 0 1 .213-.378l2.525-2.531L6.24 7.476a.77.77 0 0 1-.208-.379 1 1 0 0 1 0-.454.8.8 0 0 1 .217-.392.8.8 0 0 1 .393-.223q.231-.051.454 0a.77.77 0 0 1 .383.209l2.526 2.52 2.52-2.516a.8.8 0 0 1 .384-.213.9.9 0 0 1 .444 0 .8.8 0 0 1 .393.227q.17.166.227.388a.9.9 0 0 1 0 .45.8.8 0 0 1-.213.383l-2.516 2.521 2.516 2.526a.8.8 0 0 1 .213.388.9.9 0 0 1 0 .45.8.8 0 0 1-.227.387.83.83 0 0 1-.393.222.9.9 0 0 1-.444.005.77.77 0 0 1-.384-.217l-2.52-2.522-2.526 2.526a.8.8 0 0 1-.383.208.9.9 0 0 1-.45 0 .83.83 0 0 1-.397-.217" fill="#fff"/></svg>