<svg width="36" height="40" viewBox="0 0 36 40" fill="none" xmlns="http://www.w3.org/2000/svg"><path d="M0 8c0-3.771 0-5.657 1.172-6.828S4.229 0 8 0h20c3.771 0 5.657 0 6.828 1.172S36 4.229 36 8v27H0z" fill="#FF3B30"/><path d="M18 25.308q-1.512 0-2.593-.809t-1.66-2.294q-.582-1.494-.581-3.542v-.018q0-2.048.58-3.533t1.661-2.294T18 12.01t2.593.808q1.08.81 1.66 2.294.59 1.485.59 3.533v.018q0 2.048-.59 3.542-.58 1.485-1.66 2.294-1.08.81-2.593.809m0-1.828q.81 0 1.38-.58t.87-1.653q.308-1.08.308-2.584v-.018q0-1.502-.308-2.575-.3-1.072-.87-1.643-.57-.58-1.38-.58t-1.38.58q-.57.57-.879 1.643-.299 1.073-.299 2.575v.018q0 1.503.3 2.584.306 1.073.878 1.652.57.58 1.38.58" fill="#fff"/><path d="M0 34h36c0 1.505 0 2.257-.17 2.838-.512 1.753-2.1 3.011-3.979 3.153-.622.047-1.385-.1-2.911-.395l-9.881-1.91c-.528-.103-.792-.154-1.059-.154s-.531.051-1.059.153l-9.88 1.91c-1.527.296-2.29.444-2.912.396-1.879-.142-3.467-1.4-3.98-3.153C0 36.258 0 35.505 0 34" fill="#FF3B30"/></svg>