<svg width="40" height="45" viewBox="0 0 40 45" fill="none" xmlns="http://www.w3.org/2000/svg"><path fill="#FF3B30" d="M0 0h40v38H0z"/><path d="M20 28.322q-1.69 0-2.9-.898-1.212-.9-1.866-2.549-.645-1.65-.644-3.916v-.02q0-2.265.644-3.916.655-1.65 1.866-2.539 1.21-.898 2.9-.898t2.89.898q1.212.89 1.866 2.54t.654 3.915v.02q0 2.265-.654 3.916t-1.865 2.549q-1.202.898-2.891.898m0-2.04q.908 0 1.553-.636.645-.645.976-1.835.342-1.192.342-2.852v-.02q0-1.66-.342-2.841-.332-1.192-.976-1.826A2.13 2.13 0 0 0 20 15.637q-.908 0-1.553.634-.645.635-.986 1.827-.332 1.181-.332 2.842v.019q0 1.66.332 2.852.342 1.191.986 1.835.645.636 1.553.635" fill="#fff"/><path d="M0 37.5h40c0 1.756 0 2.633-.189 3.31-.57 2.046-2.334 3.514-4.42 3.68-.692.055-1.54-.117-3.236-.462L21.177 41.8c-.587-.119-.88-.178-1.177-.178s-.59.06-1.177.178L7.845 44.03c-1.696.344-2.544.516-3.235.46-2.087-.165-3.852-1.633-4.421-3.678C0 40.133 0 39.256 0 37.5" fill="#FF3B30"/></svg>