<svg width="20" height="22" viewBox="0 0 20 22" fill="none" xmlns="http://www.w3.org/2000/svg"><path d="M0 6.4c0-2.24 0-3.36.436-4.216A4 4 0 0 1 2.184.436C3.04 0 4.16 0 6.4 0h7.2c2.24 0 3.36 0 4.216.436a4 4 0 0 1 1.748 1.748C20 3.04 20 4.16 20 6.4V17H0zM0 17h20c0 1.79 0 2.686-.305 3.315a3 3 0 0 1-2.208 1.659c-.685.113-1.534-.144-3.234-.659l-2.529-.765c-.856-.26-1.284-.39-1.724-.39s-.868.13-1.724.39l-2.529.765c-1.7.515-2.55.772-3.234.659a3 3 0 0 1-2.209-1.659C0 19.686 0 18.791 0 17" fill="#FF3B30"/><path d="M9.994 14.222q-1.06 0-1.816-.584-.755-.584-1.161-1.657-.407-1.079-.407-2.558v-.012q0-1.48.407-2.552t1.161-1.657 1.816-.584 1.815.584q.755.585 1.162 1.657.412 1.073.412 2.552v.012q0 1.48-.412 2.558-.406 1.074-1.162 1.657-.755.585-1.815.584m0-1.187q.616 0 1.047-.438.438-.438.666-1.244.235-.813.235-1.93v-.012q0-1.117-.235-1.924-.228-.806-.666-1.237a1.42 1.42 0 0 0-1.047-.438 1.43 1.43 0 0 0-1.048.438q-.431.431-.666 1.237-.23.807-.229 1.924v.012q0 1.117.229 1.93.235.806.666 1.244a1.43 1.43 0 0 0 1.048.438" fill="#fff"/></svg>