<svg width="36" height="40" viewBox="0 0 36 40" fill="none" xmlns="http://www.w3.org/2000/svg"><path d="M0 8c0-3.771 0-5.657 1.172-6.828S4.229 0 8 0h20c3.771 0 5.657 0 6.828 1.172S36 4.229 36 8v27H0z" fill="#FD5F28"/><path d="M17.982 25V14.55h-.149l-3.155 2.223v-2.126l3.313-2.33h2.25V25z" fill="#fff"/><path d="M0 34h36c0 1.505 0 2.257-.17 2.838-.512 1.753-2.1 3.011-3.979 3.153-.622.047-1.385-.1-2.911-.395l-9.881-1.91c-.528-.103-.792-.154-1.059-.154s-.531.051-1.059.153l-9.88 1.91c-1.527.296-2.29.444-2.912.396-1.879-.142-3.467-1.4-3.98-3.153C0 36.258 0 35.505 0 34" fill="#FD5F28"/></svg>