<svg width="20" height="22" viewBox="0 0 20 22" fill="none" xmlns="http://www.w3.org/2000/svg"><path d="M0 6.4c0-2.24 0-3.36.436-4.216A4 4 0 0 1 2.184.436C3.04 0 4.16 0 6.4 0h7.2c2.24 0 3.36 0 4.216.436a4 4 0 0 1 1.748 1.748C20 3.04 20 4.16 20 6.4V17H0zM0 17h20c0 1.79 0 2.686-.305 3.315a3 3 0 0 1-2.208 1.659c-.685.113-1.534-.144-3.234-.659l-2.529-.765c-.856-.26-1.284-.39-1.724-.39s-.868.13-1.724.39l-2.529.765c-1.7.515-2.55.772-3.234.659a3 3 0 0 1-2.209-1.659C0 19.686 0 18.791 0 17" fill="#34C759"/><path d="M5.907 14V6.307h-.102L3.501 7.95V6.554L5.913 4.84h1.422V14zm7.177.222q-1.06 0-1.815-.584-.756-.584-1.162-1.657-.405-1.079-.406-2.558v-.012q0-1.48.406-2.552.405-1.073 1.162-1.657.755-.584 1.815-.584t1.816.584q.754.585 1.161 1.657.413 1.073.413 2.552v.012q0 1.48-.413 2.558-.405 1.074-1.162 1.657-.755.585-1.815.584m0-1.187q.615 0 1.048-.438.438-.438.666-1.244.235-.813.235-1.93v-.012q0-1.117-.235-1.924-.228-.806-.666-1.237a1.42 1.42 0 0 0-1.048-.438 1.43 1.43 0 0 0-1.047.438q-.432.431-.667 1.237-.228.807-.228 1.924v.012q0 1.117.228 1.93.235.806.667 1.244a1.43 1.43 0 0 0 1.047.438" fill="#fff"/></svg>