<svg width="36" height="40" viewBox="0 0 36 40" fill="none" xmlns="http://www.w3.org/2000/svg"><path d="M0 8c0-3.771 0-5.657 1.172-6.828S4.229 0 8 0h20c3.771 0 5.657 0 6.828 1.172S36 4.229 36 8v27H0z" fill="#FD5F28"/><path d="M13.676 25v-1.53l4.175-4.262a26 26 0 0 0 1.327-1.424q.483-.57.668-1.002.193-.439.193-.923v-.017q0-.589-.255-1.046a1.8 1.8 0 0 0-.73-.712q-.474-.264-1.124-.264-.677 0-1.187.282-.51.272-.79.773a2.26 2.26 0 0 0-.282 1.143l-.009.035h-2.11l-.008-.035q0-1.179.571-2.083a3.97 3.97 0 0 1 1.591-1.415q1.01-.51 2.33-.51 1.238 0 2.196.466.96.457 1.503 1.274.546.818.545 1.89v.026q0 .721-.272 1.406-.264.677-.923 1.486-.65.8-1.802 1.907l-3.164 3.067.607-1.02v1.02l-.598-.404h6.346V25z" fill="#fff"/><path d="M0 34h36c0 1.505 0 2.257-.17 2.838-.512 1.753-2.1 3.011-3.979 3.153-.622.047-1.385-.1-2.911-.395l-9.881-1.91c-.528-.103-.792-.154-1.059-.154s-.531.051-1.059.153l-9.88 1.91c-1.527.296-2.29.444-2.912.396-1.879-.142-3.467-1.4-3.98-3.153C0 36.258 0 35.505 0 34" fill="#FD5F28"/></svg>