<svg width="40" height="45" viewBox="0 0 40 45" fill="none" xmlns="http://www.w3.org/2000/svg"><path fill="#FD5F28" d="M0 0h40v38H0z"/><path d="M15.186 28v-1.709l4.707-4.746a28 28 0 0 0 1.464-1.572q.528-.626.733-1.104.205-.488.205-1.015v-.03q0-.644-.293-1.142a2 2 0 0 0-.81-.791q-.52-.293-1.24-.293-.753 0-1.329.312a2.3 2.3 0 0 0-.898.86 2.6 2.6 0 0 0-.323 1.26v.048H15.06l-.01-.039q0-1.308.635-2.314a4.4 4.4 0 0 1 1.767-1.573q1.133-.566 2.588-.566 1.387 0 2.451.518 1.074.517 1.68 1.425.605.909.605 2.09v.03q0 .8-.302 1.552-.294.753-1.016 1.64-.723.88-2.002 2.11l-3.603 3.486.712-1.24v1.24l-.712-.517h7.138V28z" fill="#fff"/><path d="M0 37.5h40c0 1.756 0 2.633-.189 3.31-.57 2.046-2.334 3.514-4.42 3.68-.692.055-1.54-.117-3.236-.462L21.177 41.8c-.587-.119-.88-.178-1.177-.178s-.59.06-1.177.178L7.845 44.03c-1.696.344-2.544.516-3.235.46-2.087-.165-3.852-1.633-4.421-3.678C0 40.133 0 39.256 0 37.5" fill="#FD5F28"/></svg>