<svg width="20" height="22" viewBox="0 0 20 22" fill="none" xmlns="http://www.w3.org/2000/svg"><path d="M0 6.4c0-2.24 0-3.36.436-4.216A4 4 0 0 1 2.184.436C3.04 0 4.16 0 6.4 0h7.2c2.24 0 3.36 0 4.216.436a4 4 0 0 1 1.748 1.748C20 3.04 20 4.16 20 6.4V17H0zM0 17h20c0 1.79 0 2.686-.305 3.315a3 3 0 0 1-2.208 1.659c-.685.113-1.534-.144-3.234-.659l-2.529-.765c-.856-.26-1.284-.39-1.724-.39s-.868.13-1.724.39l-2.529.765c-1.7.515-2.55.772-3.234.659a3 3 0 0 1-2.209-1.659C0 19.686 0 18.791 0 17" fill="#FD5F28"/><path d="M6.966 14v-.971l3.047-3.187q.609-.635.946-1.04.335-.414.47-.737.139-.324.139-.698v-.013a1.6 1.6 0 0 0-.197-.8 1.34 1.34 0 0 0-.552-.552 1.74 1.74 0 0 0-.863-.203q-.508 0-.895.21-.389.209-.603.583-.216.375-.216.876v.026l-1.346-.007-.006-.012q.006-.838.406-1.48a2.73 2.73 0 0 1 1.11-1.009q.712-.368 1.632-.368.85 0 1.517.337.673.33 1.06.92.387.585.387 1.34v.018q0 .52-.19 1.01-.19.489-.66 1.072-.464.585-1.295 1.41l-2.31 2.304.368-.641v.64l-.362-.247h4.595V14z" fill="#fff"/></svg>