<svg width="36" height="40" viewBox="0 0 36 40" fill="none" xmlns="http://www.w3.org/2000/svg"><path d="M0 8c0-3.771 0-5.657 1.172-6.828S4.229 0 8 0h20c3.771 0 5.657 0 6.828 1.172S36 4.229 36 8v27H0z" fill="#FE8B20"/><path d="M18.026 25.255q-1.388 0-2.434-.466-1.038-.475-1.644-1.3a3.76 3.76 0 0 1-.694-1.908l-.009-.114h2.171l.009.097q.061.535.395.949t.897.65 1.3.237q.739 0 1.284-.255.553-.255.861-.703t.308-1.037v-.017q0-1.002-.695-1.538-.693-.537-1.916-.537h-1.503v-1.687h1.46q.694 0 1.221-.246a2 2 0 0 0 .818-.668 1.7 1.7 0 0 0 .29-.985v-.017q0-.59-.255-.993a1.6 1.6 0 0 0-.73-.633q-.474-.22-1.16-.22-.66 0-1.178.229-.517.22-.826.641-.3.414-.36.976l-.009.088h-2.11l.01-.106q.096-1.098.676-1.907a3.83 3.83 0 0 1 1.547-1.265q.975-.457 2.25-.457 1.318 0 2.285.43.967.422 1.494 1.17.537.746.536 1.748v.018q0 .782-.351 1.388-.343.598-.95.994a3.9 3.9 0 0 1-1.362.553v.044q1.406.132 2.26.932.852.79.852 2.11v.017q0 1.107-.607 1.969-.598.852-1.66 1.335-1.065.484-2.47.484" fill="#fff"/><path d="M0 34h36c0 1.505 0 2.257-.17 2.838-.512 1.753-2.1 3.011-3.979 3.153-.622.047-1.385-.1-2.911-.395l-9.881-1.91c-.528-.103-.792-.154-1.059-.154s-.531.051-1.059.153l-9.88 1.91c-1.527.296-2.29.444-2.912.396-1.879-.142-3.467-1.4-3.98-3.153C0 36.258 0 35.505 0 34" fill="#FE8B20"/></svg>