<svg width="40" height="45" viewBox="0 0 40 45" fill="none" xmlns="http://www.w3.org/2000/svg"><path fill="#FE8B20" d="M0 0h40v38H0z"/><path d="M20.02 28.273q-1.544 0-2.706-.517-1.151-.518-1.826-1.436a4.2 4.2 0 0 1-.771-2.119l-.01-.117h2.412l.01.098q.068.595.44 1.054a2.5 2.5 0 0 0 .995.723q.626.255 1.446.254.82 0 1.425-.283.616-.285.948-.782a1.97 1.97 0 0 0 .342-1.142v-.02q0-1.113-.772-1.709-.762-.595-2.119-.595h-1.67v-1.875h1.621q.771 0 1.358-.274a2.2 2.2 0 0 0 .908-.742q.322-.479.322-1.094v-.02q0-.644-.283-1.103a1.76 1.76 0 0 0-.81-.703q-.528-.244-1.29-.244-.732 0-1.308.254-.576.244-.918.703-.333.459-.41 1.094l-.01.088H15.01l.01-.108q.107-1.22.752-2.119a4.26 4.26 0 0 1 1.718-1.406q1.084-.498 2.5-.498 1.455 0 2.53.469 1.083.468 1.67 1.308.595.83.595 1.934v.02q0 .868-.39 1.542-.381.664-1.055 1.104a4.3 4.3 0 0 1-1.514.615v.049q1.563.146 2.51 1.035.947.879.947 2.344v.02q0 1.23-.674 2.187-.664.947-1.845 1.484-1.182.527-2.744.527" fill="#fff"/><path d="M0 37.5h40c0 1.756 0 2.633-.189 3.31-.57 2.046-2.334 3.514-4.42 3.68-.692.055-1.54-.117-3.236-.462L21.177 41.8c-.587-.119-.88-.178-1.177-.178s-.59.06-1.177.178L7.845 44.03c-1.696.344-2.544.516-3.235.46-2.087-.165-3.852-1.633-4.421-3.678C0 40.133 0 39.256 0 37.5" fill="#FE8B20"/></svg>