<svg width="20" height="22" viewBox="0 0 20 22" fill="none" xmlns="http://www.w3.org/2000/svg"><path d="M0 6.4c0-2.24 0-3.36.436-4.216A4 4 0 0 1 2.184.436C3.04 0 4.16 0 6.4 0h7.2c2.24 0 3.36 0 4.216.436a4 4 0 0 1 1.748 1.748C20 3.04 20 4.16 20 6.4V17H0zM0 17h20c0 1.79 0 2.686-.305 3.315a3 3 0 0 1-2.208 1.659c-.685.113-1.534-.144-3.234-.659l-2.529-.765c-.856-.26-1.284-.39-1.724-.39s-.868.13-1.724.39l-2.529.765c-1.7.515-2.55.772-3.234.659a3 3 0 0 1-2.209-1.659C0 19.686 0 18.791 0 17" fill="#FE8B20"/><path d="M10.038 14.171q-.977 0-1.707-.33a2.9 2.9 0 0 1-1.156-.92 2.64 2.64 0 0 1-.495-1.34l-.006-.082h1.37l.007.07q.045.412.299.73.253.317.685.501a2.7 2.7 0 0 0 1.003.178q.566 0 .984-.19a1.6 1.6 0 0 0 .654-.54q.234-.35.235-.793v-.013q0-.774-.527-1.187-.527-.42-1.441-.42H8.832V8.72h1.066q.528 0 .92-.184.395-.19.617-.52t.222-.756v-.013a1.4 1.4 0 0 0-.19-.755 1.2 1.2 0 0 0-.56-.483q-.36-.171-.882-.171-.508 0-.901.171a1.46 1.46 0 0 0-.908 1.238l-.006.057H6.864l.007-.063q.075-.78.482-1.352a2.74 2.74 0 0 1 1.092-.895q.686-.324 1.58-.324.914 0 1.594.305.68.304 1.053.844.375.533.375 1.244v.013q0 .57-.254 1.009a2.15 2.15 0 0 1-.686.724q-.43.285-.99.4v.031q1.01.082 1.625.667.616.584.616 1.549v.012q0 .788-.425 1.403a2.9 2.9 0 0 1-1.175.959q-.742.342-1.72.342" fill="#fff"/></svg>