<svg width="36" height="40" viewBox="0 0 36 40" fill="none" xmlns="http://www.w3.org/2000/svg"><path d="M0 8c0-3.771 0-5.657 1.172-6.828S4.229 0 8 0h20c3.771 0 5.657 0 6.828 1.172S36 4.229 36 8v27H0z" fill="#FE8B20"/><path d="M19.143 25v-2.435h-6.206v-1.854q.493-.861 1.003-1.714a166 166 0 0 1 2.074-3.41q.527-.844 1.046-1.661.527-.817 1.046-1.609h3.199v8.376h1.714v1.872h-1.714V25zm-4.105-4.254h4.14v-6.618h-.123q-.396.598-.809 1.23a176 176 0 0 0-1.643 2.62 164 164 0 0 0-1.565 2.645z" fill="#fff"/><path d="M0 34h36c0 1.505 0 2.257-.17 2.838-.512 1.753-2.1 3.011-3.979 3.153-.622.047-1.385-.1-2.911-.395l-9.881-1.91c-.528-.103-.792-.154-1.059-.154s-.531.051-1.059.153l-9.88 1.91c-1.527.296-2.29.444-2.912.396-1.879-.142-3.467-1.4-3.98-3.153C0 36.258 0 35.505 0 34" fill="#FE8B20"/></svg>