<svg width="40" height="45" viewBox="0 0 40 45" fill="none" xmlns="http://www.w3.org/2000/svg"><path fill="#FE8B20" d="M0 0h40v38H0z"/><path d="M21.299 28v-2.705h-6.914v-2.08a289 289 0 0 1 2.265-3.79q.587-.946 1.172-1.874t1.162-1.836q.586-.918 1.162-1.807h3.565v9.317h1.904v2.07h-1.904V28zm-4.6-4.727h4.649V15.9h-.127q-.45.675-.909 1.387-.448.713-.918 1.445-.458.733-.917 1.475-.46.743-.909 1.484-.439.733-.869 1.465z" fill="#fff"/><path d="M0 37.5h40c0 1.756 0 2.633-.189 3.31-.57 2.046-2.334 3.514-4.42 3.68-.692.055-1.54-.117-3.236-.462L21.177 41.8c-.587-.119-.88-.178-1.177-.178s-.59.06-1.177.178L7.845 44.03c-1.696.344-2.544.516-3.235.46-2.087-.165-3.852-1.633-4.421-3.678C0 40.133 0 39.256 0 37.5" fill="#FE8B20"/></svg>