<svg width="20" height="22" viewBox="0 0 20 22" fill="none" xmlns="http://www.w3.org/2000/svg"><path d="M0 6.4c0-2.24 0-3.36.436-4.216A4 4 0 0 1 2.184.436C3.04 0 4.16 0 6.4 0h7.2c2.24 0 3.36 0 4.216.436a4 4 0 0 1 1.748 1.748C20 3.04 20 4.16 20 6.4V17H0zM0 17h20c0 1.79 0 2.686-.305 3.315a3 3 0 0 1-2.208 1.659c-.685.113-1.534-.144-3.234-.659l-2.529-.765c-.856-.26-1.284-.39-1.724-.39s-.868.13-1.724.39l-2.529.765c-1.7.515-2.55.772-3.234.659a3 3 0 0 1-2.209-1.659C0 19.686 0 18.791 0 17" fill="#FE8B20"/><path d="M10.901 14v-1.815H6.433v-1.213q.36-.622.736-1.25l.762-1.257q.387-.63.774-1.238.387-.616.774-1.212.389-.603.762-1.175h2.038v6.132h1.263v1.213h-1.263V14zm-3.097-3.002h3.116V6.046h-.082q-.298.445-.603.92l-.622.966q-.312.495-.622.996-.311.502-.61 1.003-.298.495-.577.978z" fill="#fff"/></svg>