<svg width="36" height="40" viewBox="0 0 36 40" fill="none" xmlns="http://www.w3.org/2000/svg"><path d="M0 8c0-3.771 0-5.657 1.172-6.828S4.229 0 8 0h20c3.771 0 5.657 0 6.828 1.172S36 4.229 36 8v27H0z" fill="#FEBA19"/><path d="M18.08 25.308q-1.293 0-2.277-.475-.985-.483-1.565-1.31a3.8 3.8 0 0 1-.668-1.88l-.008-.115h2.091l.01.07q.087.51.412.941.325.422.844.677.527.246 1.178.246.738 0 1.3-.325.572-.326.888-.897.317-.58.317-1.318v-.018q0-.738-.326-1.3a2.25 2.25 0 0 0-.878-.888 2.53 2.53 0 0 0-1.293-.325q-.535 0-.984.158a2.54 2.54 0 0 0-1.134.8q-.15.176-.263.395H13.78l.615-7.427h7.62v1.855h-5.853l-.351 3.858h.149q.264-.43.668-.73.404-.297.923-.456a3.7 3.7 0 0 1 1.116-.167q1.195 0 2.11.545.922.536 1.45 1.476t.527 2.162v.018q0 1.31-.598 2.311a4.17 4.17 0 0 1-1.652 1.565q-1.046.554-2.426.554" fill="#fff"/><path d="M0 34h36c0 1.505 0 2.257-.17 2.838-.512 1.753-2.1 3.011-3.979 3.153-.622.047-1.385-.1-2.911-.395l-9.881-1.91c-.528-.103-.792-.154-1.059-.154s-.531.051-1.059.153l-9.88 1.91c-1.527.296-2.29.444-2.912.396-1.879-.142-3.467-1.4-3.98-3.153C0 36.258 0 35.505 0 34" fill="#FEBA19"/></svg>