<svg width="40" height="45" viewBox="0 0 40 45" fill="none" xmlns="http://www.w3.org/2000/svg"><path fill="#FEBA19" d="M0 0h40v38H0z"/><path d="M20.098 28.322q-1.436 0-2.54-.527a4.54 4.54 0 0 1-1.748-1.465 4.2 4.2 0 0 1-.742-2.08l-.01-.127h2.325l.02.068q.096.577.458 1.055.371.469.948.752.576.273 1.308.273.82 0 1.455-.36.634-.363.987-.997.36-.634.36-1.465v-.02q0-.82-.36-1.445a2.6 2.6 0 0 0-.987-.976q-.624-.361-1.445-.361-.595 0-1.104.175a2.8 2.8 0 0 0-1.26.889q-.165.195-.292.44h-2.168l.683-8.243h8.506v2.06H17.96l-.39 4.278h.136a3 3 0 0 1 .752-.81q.459-.333 1.045-.508.585-.186 1.25-.186 1.328 0 2.354.606 1.035.596 1.62 1.64.587 1.046.587 2.403v.02q0 1.454-.665 2.567a4.63 4.63 0 0 1-1.845 1.729q-1.172.615-2.705.615" fill="#fff"/><path d="M0 37.5h40c0 1.756 0 2.633-.189 3.31-.57 2.046-2.334 3.514-4.42 3.68-.692.055-1.54-.117-3.236-.462L21.177 41.8c-.587-.119-.88-.178-1.177-.178s-.59.06-1.177.178L7.845 44.03c-1.696.344-2.544.516-3.235.46-2.087-.165-3.852-1.633-4.421-3.678C0 40.133 0 39.256 0 37.5" fill="#FEBA19"/></svg>