<svg width="20" height="22" viewBox="0 0 20 22" fill="none" xmlns="http://www.w3.org/2000/svg"><path d="M0 6.4c0-2.24 0-3.36.436-4.216A4 4 0 0 1 2.184.436C3.04 0 4.16 0 6.4 0h7.2c2.24 0 3.36 0 4.216.436a4 4 0 0 1 1.748 1.748C20 3.04 20 4.16 20 6.4V17H0zM0 17h20c0 1.79 0 2.686-.305 3.315a3 3 0 0 1-2.208 1.659c-.685.113-1.534-.144-3.234-.659l-2.529-.765c-.856-.26-1.284-.39-1.724-.39s-.868.13-1.724.39l-2.529.765c-1.7.515-2.55.772-3.234.659a3 3 0 0 1-2.209-1.659C0 19.686 0 18.791 0 17" fill="#FEBA19"/><path d="M10.038 14.222q-.896 0-1.587-.343a2.9 2.9 0 0 1-1.105-.933 2.76 2.76 0 0 1-.482-1.333l-.007-.082h1.34l.006.05q.063.4.305.73.247.33.647.521.4.19.895.19.566 0 .997-.247.432-.255.673-.692.247-.437.247-1.01v-.012q0-.565-.247-1.003a1.76 1.76 0 0 0-.673-.68 1.9 1.9 0 0 0-.984-.247q-.412 0-.768.127-.35.12-.622.368-.12.116-.229.248-.108.127-.19.286H7.022l.457-5.32h5.333v1.206H8.603l-.28 2.92h.102q.196-.31.49-.527.297-.215.672-.33.375-.114.793-.114.864 0 1.524.394a2.8 2.8 0 0 1 1.047 1.079q.381.686.381 1.568v.012q0 .933-.425 1.65-.42.718-1.162 1.124-.736.4-1.707.4" fill="#fff"/></svg>