<svg width="40" height="45" viewBox="0 0 40 45" fill="none" xmlns="http://www.w3.org/2000/svg"><path fill="#FEBA19" d="M0 0h40v38H0z"/><path d="M20.176 28.322a5.7 5.7 0 0 1-2.158-.41 5 5 0 0 1-1.807-1.289q-.78-.87-1.23-2.227-.45-1.367-.45-3.261v-.02q0-2.363.684-4.052.693-1.69 1.963-2.579 1.279-.898 3.056-.898 1.299 0 2.334.469a4.7 4.7 0 0 1 1.729 1.299q.693.83.908 1.904l.03.107h-2.481l-.04-.088a2.4 2.4 0 0 0-.536-.859 2.2 2.2 0 0 0-.84-.566 2.9 2.9 0 0 0-1.113-.206q-1.114 0-1.827.665-.713.654-1.064 1.757a9.7 9.7 0 0 0-.4 2.451q-.01.138-.01.274v.273l.43 2.354q0 .801.37 1.455.382.645 1.016 1.025.634.372 1.416.372a2.75 2.75 0 0 0 2.422-1.377 2.7 2.7 0 0 0 .381-1.416v-.02q0-.81-.361-1.436a2.57 2.57 0 0 0-.987-.986q-.625-.36-1.435-.361a2.95 2.95 0 0 0-1.436.351 2.73 2.73 0 0 0-1.015.967q-.372.615-.372 1.416v.01h-.576v-2.55h.303a3.7 3.7 0 0 1 .772-1.064 3.8 3.8 0 0 1 1.25-.782q.741-.293 1.709-.293 1.357 0 2.392.606 1.035.595 1.621 1.65.585 1.045.586 2.383v.02q0 1.435-.674 2.549a4.85 4.85 0 0 1-1.855 1.747q-1.172.635-2.705.635" fill="#fff"/><path d="M0 37.5h40c0 1.756 0 2.633-.189 3.31-.57 2.046-2.334 3.514-4.42 3.68-.692.055-1.54-.117-3.236-.462L21.177 41.8c-.587-.119-.88-.178-1.177-.178s-.59.06-1.177.178L7.845 44.03c-1.696.344-2.544.516-3.235.46-2.087-.165-3.852-1.633-4.421-3.678C0 40.133 0 39.256 0 37.5" fill="#FEBA19"/></svg>