<svg width="36" height="40" viewBox="0 0 36 40" fill="none" xmlns="http://www.w3.org/2000/svg"><path d="M0 8c0-3.771 0-5.657 1.172-6.828S4.229 0 8 0h20c3.771 0 5.657 0 6.828 1.172S36 4.229 36 8v27H0z" fill="#FEBA19"/><path d="M18.176 25.316q-1.02 0-1.934-.377a4.5 4.5 0 0 1-1.626-1.16q-.703-.783-1.107-2.013-.405-1.23-.405-2.945v-.017q0-2.136.616-3.656.615-1.52 1.757-2.33 1.152-.808 2.743-.808 1.17 0 2.1.43.94.422 1.556 1.17.624.738.817 1.713l.027.097h-2.233l-.035-.08a2.1 2.1 0 0 0-.475-.781 2.3 2.3 0 0 0-.755-.51 2.6 2.6 0 0 0-1.002-.185q-1.002 0-1.644.598-.633.59-.949 1.59a8.5 8.5 0 0 0-.37 2.207 4 4 0 0 0-.008.255v.255l.396 2.109q-.001.73.334 1.318.333.58.905.932.57.343 1.274.343.703 0 1.266-.334a2.55 2.55 0 0 0 1.248-2.206v-.018q0-.73-.325-1.292a2.3 2.3 0 0 0-.88-.896 2.53 2.53 0 0 0-1.291-.326q-.712 0-1.292.326-.572.315-.905.87a2.4 2.4 0 0 0-.334 1.274v.009h-.528v-2.32h.308q.228-.51.677-.94a3.4 3.4 0 0 1 1.107-.695q.66-.264 1.53-.264 1.22 0 2.153.545a3.9 3.9 0 0 1 1.459 1.494q.527.94.527 2.145v.017q0 1.284-.607 2.294a4.3 4.3 0 0 1-1.66 1.582q-1.065.58-2.435.58" fill="#fff"/><path d="M0 34h36c0 1.505 0 2.257-.17 2.838-.512 1.753-2.1 3.011-3.979 3.153-.622.047-1.385-.1-2.911-.395l-9.881-1.91c-.528-.103-.792-.154-1.059-.154s-.531.051-1.059.153l-9.88 1.91c-1.527.296-2.29.444-2.912.396-1.879-.142-3.467-1.4-3.98-3.153C0 36.258 0 35.505 0 34" fill="#FEBA19"/></svg>