<svg width="20" height="22" viewBox="0 0 20 22" fill="none" xmlns="http://www.w3.org/2000/svg"><path d="M0 6.4c0-2.24 0-3.36.436-4.216A4 4 0 0 1 2.184.436C3.04 0 4.16 0 6.4 0h7.2c2.24 0 3.36 0 4.216.436a4 4 0 0 1 1.748 1.748C20 3.04 20 4.16 20 6.4V17H0zM0 17h20c0 1.79 0 2.686-.305 3.315a3 3 0 0 1-2.208 1.659c-.685.113-1.534-.144-3.234-.659l-2.529-.765c-.856-.26-1.284-.39-1.724-.39s-.868.13-1.724.39l-2.529.765c-1.7.515-2.55.772-3.234.659a3 3 0 0 1-2.209-1.659C0 19.686 0 18.791 0 17" fill="#FEBA19"/><path d="M10.12 14.222a3.6 3.6 0 0 1-1.333-.254 3.2 3.2 0 0 1-1.142-.812q-.502-.56-.8-1.447-.292-.89-.292-2.152v-.013q0-1.55.431-2.647.432-1.105 1.245-1.689.812-.59 1.942-.59.813 0 1.466.298.654.299 1.086.826.431.52.577 1.212l.02.076h-1.416l-.026-.063a1.6 1.6 0 0 0-.368-.603q-.235-.254-.577-.394a1.9 1.9 0 0 0-.768-.146q-.768 0-1.257.457-.483.45-.718 1.206a6.5 6.5 0 0 0-.273 1.663q-.006.09-.006.178v.178l.273 1.53q0 .558.254 1.009.26.45.698.717t.971.267q.54 0 .972-.26.438-.261.691-.705.26-.444.26-.99v-.013q0-.566-.247-.996a1.75 1.75 0 0 0-.673-.686 1.9 1.9 0 0 0-.983-.254 2 2 0 0 0-.99.248 1.9 1.9 0 0 0-.699.679 1.87 1.87 0 0 0-.254.977v.007H7.81v-1.67h.222a2.4 2.4 0 0 1 .495-.685q.33-.318.812-.508.483-.197 1.105-.197.876 0 1.549.4.679.393 1.06 1.08.387.684.387 1.567v.013q0 .92-.432 1.644a3.05 3.05 0 0 1-1.174 1.13q-.749.412-1.714.412" fill="#fff"/></svg>