<svg width="40" height="45" viewBox="0 0 40 45" fill="none" xmlns="http://www.w3.org/2000/svg"><path fill="#8CC928" d="M0 0h40v38H0z"/><path d="m16.172 28 6.142-11.904v-.127H15.03v-2.06h9.805v2.099L18.809 28z" fill="#fff"/><path d="M0 37.5h40c0 1.756 0 2.633-.189 3.31-.57 2.046-2.334 3.514-4.42 3.68-.692.055-1.54-.117-3.236-.462L21.177 41.8c-.587-.119-.88-.178-1.177-.178s-.59.06-1.177.178L7.845 44.03c-1.696.344-2.544.516-3.235.46-2.087-.165-3.852-1.633-4.421-3.678C0 40.133 0 39.256 0 37.5" fill="#8CC928"/></svg>