<svg width="40" height="45" viewBox="0 0 40 45" fill="none" xmlns="http://www.w3.org/2000/svg"><path fill="#8CC928" d="M0 0h40v38H0z"/><path d="M19.99 28.273q-1.61 0-2.851-.517-1.24-.518-1.944-1.436-.693-.927-.693-2.138v-.02a3.4 3.4 0 0 1 .4-1.64 3.6 3.6 0 0 1 1.133-1.24 4.3 4.3 0 0 1 1.65-.694v-.059q-1.2-.323-1.943-1.152a2.9 2.9 0 0 1-.732-1.973v-.02q0-1.083.635-1.923.644-.849 1.767-1.338 1.133-.488 2.578-.488 1.466 0 2.588.488 1.124.489 1.758 1.338.635.84.635 1.924v.02q0 1.132-.733 1.972-.732.83-1.933 1.152v.059a4.2 4.2 0 0 1 1.65.693q.723.498 1.123 1.24.41.742.41 1.641v.02q0 1.21-.703 2.138-.694.917-1.933 1.436-1.24.517-2.862.517m0-1.923q.85 0 1.494-.293a2.5 2.5 0 0 0 1.026-.83q.37-.528.37-1.211v-.02q0-.684-.37-1.21a2.44 2.44 0 0 0-1.016-.83q-.644-.304-1.504-.304-.849 0-1.504.303a2.5 2.5 0 0 0-1.015.83 2.05 2.05 0 0 0-.371 1.211v.02q0 .683.37 1.21.382.528 1.026.83.654.294 1.494.294m0-6.622q.742 0 1.3-.263.566-.264.878-.733.322-.478.322-1.093v-.02q0-.615-.322-1.084a2.1 2.1 0 0 0-.879-.732q-.556-.264-1.299-.264-.732 0-1.299.264-.556.263-.878.732a1.9 1.9 0 0 0-.313 1.084v.02q0 .615.313 1.093.321.47.878.733.567.264 1.3.264" fill="#fff"/><path d="M0 37.5h40c0 1.756 0 2.633-.189 3.31-.57 2.046-2.334 3.514-4.42 3.68-.692.055-1.54-.117-3.236-.462L21.177 41.8c-.587-.119-.88-.178-1.177-.178s-.59.06-1.177.178L7.845 44.03c-1.696.344-2.544.516-3.235.46-2.087-.165-3.852-1.633-4.421-3.678C0 40.133 0 39.256 0 37.5" fill="#8CC928"/></svg>