<svg width="36" height="40" viewBox="0 0 36 40" fill="none" xmlns="http://www.w3.org/2000/svg"><path d="M0 8c0-3.771 0-5.657 1.172-6.828S4.229 0 8 0h20c3.771 0 5.657 0 6.828 1.172S36 4.229 36 8v27H0z" fill="#8CC928"/><path d="M18 25.255q-1.46 0-2.575-.466-1.116-.475-1.75-1.3a3.1 3.1 0 0 1-.623-1.917v-.017q0-.817.36-1.486a3.26 3.26 0 0 1 1.02-1.116 3.9 3.9 0 0 1 1.494-.624v-.053q-1.09-.29-1.758-1.037a2.62 2.62 0 0 1-.66-1.775v-.018q0-.975.572-1.74.58-.765 1.59-1.204 1.02-.44 2.33-.44t2.32.44q1.02.44 1.591 1.204.571.765.571 1.74v.018q0 1.02-.659 1.775-.66.747-1.749 1.037v.053q.844.167 1.494.624.65.448 1.011 1.116.37.668.37 1.486v.017q0 1.082-.634 1.916-.624.827-1.74 1.301-1.116.466-2.575.466m0-1.732q.765 0 1.345-.263.588-.272.923-.747.334-.484.334-1.09v-.018q0-.615-.334-1.09a2.17 2.17 0 0 0-.915-.755q-.588-.273-1.353-.273-.774 0-1.362.273a2.24 2.24 0 0 0-.914.755q-.326.475-.326 1.09v.018q0 .606.334 1.09.335.474.915.747.588.263 1.353.263m0-5.967q.668 0 1.169-.238.51-.245.791-.668a1.7 1.7 0 0 0 .29-.975v-.018q0-.553-.29-.975a1.85 1.85 0 0 0-.791-.668A2.7 2.7 0 0 0 18 13.776q-.66 0-1.169.238-.51.236-.8.668a1.7 1.7 0 0 0-.281.975v.018q0 .554.281.975.29.422.791.668.51.238 1.178.238" fill="#fff"/><path d="M0 34h36c0 1.505 0 2.257-.17 2.838-.512 1.753-2.1 3.011-3.979 3.153-.622.047-1.385-.1-2.911-.395l-9.881-1.91c-.528-.103-.792-.154-1.059-.154s-.531.051-1.059.153l-9.88 1.91c-1.527.296-2.29.444-2.912.396-1.879-.142-3.467-1.4-3.98-3.153C0 36.258 0 35.505 0 34" fill="#8CC928"/></svg>