<svg width="20" height="22" viewBox="0 0 20 22" fill="none" xmlns="http://www.w3.org/2000/svg"><path d="M0 6.4c0-2.24 0-3.36.436-4.216A4 4 0 0 1 2.184.436C3.04 0 4.16 0 6.4 0h7.2c2.24 0 3.36 0 4.216.436a4 4 0 0 1 1.748 1.748C20 3.04 20 4.16 20 6.4V17H0zM0 17h20c0 1.79 0 2.686-.305 3.315a3 3 0 0 1-2.208 1.659c-.685.113-1.534-.144-3.234-.659l-2.529-.765c-.856-.26-1.284-.39-1.724-.39s-.868.13-1.724.39l-2.529.765c-1.7.515-2.55.772-3.234.659a3 3 0 0 1-2.209-1.659C0 19.686 0 18.791 0 17" fill="#8CC928"/><path d="M10 14.171q-1.023 0-1.803-.336-.781-.336-1.225-.933a2.26 2.26 0 0 1-.445-1.378v-.012q0-.578.254-1.06.26-.483.718-.813a2.8 2.8 0 0 1 1.06-.463v-.032q-.768-.222-1.238-.762a1.9 1.9 0 0 1-.464-1.27V7.1q0-.705.4-1.25.407-.546 1.118-.864.71-.317 1.625-.317.913 0 1.618.317.71.318 1.111.864.406.546.406 1.25v.013q0 .73-.463 1.27-.464.539-1.232.761v.032q.604.127 1.054.463.457.33.711.813.26.482.26 1.06v.012q0 .775-.444 1.378-.438.597-1.225.933-.781.336-1.796.336m0-1.142q.584 0 1.034-.203.45-.21.705-.565.26-.361.26-.825v-.013q0-.47-.254-.832a1.66 1.66 0 0 0-.71-.571A2.4 2.4 0 0 0 10 9.81q-.591 0-1.041.21-.451.203-.705.571-.255.363-.254.832v.012q0 .465.254.826.26.355.71.565.451.203 1.036.203m0-4.367q.507 0 .895-.178a1.45 1.45 0 0 0 .609-.508q.216-.324.216-.736v-.013q0-.42-.222-.743a1.4 1.4 0 0 0-.603-.501A2.1 2.1 0 0 0 10 5.799q-.509 0-.902.184a1.46 1.46 0 0 0-.61.501 1.3 1.3 0 0 0-.215.743v.013q0 .412.216.736.222.324.61.508.386.178.9.178" fill="#fff"/></svg>