<svg width="40" height="45" viewBox="0 0 40 45" fill="none" xmlns="http://www.w3.org/2000/svg"><path fill="#74DE2A" d="M0 0h40v38H0z"/><path d="M19.824 13.586q1.133 0 2.149.42 1.025.41 1.806 1.28.792.868 1.24 2.236.45 1.356.45 3.251v.02q0 2.363-.694 4.053-.683 1.68-1.962 2.578-1.27.898-3.047.898-1.299 0-2.344-.468a4.8 4.8 0 0 1-1.719-1.31 4.44 4.44 0 0 1-.918-1.894l-.02-.107h2.481l.04.088q.185.488.526.86.352.37.84.575.498.196 1.114.196 1.122 0 1.826-.655.713-.663 1.064-1.767.362-1.114.41-2.451a4 4 0 0 0 .01-.284v-.263l-.44-2.354q0-.8-.37-1.445a2.7 2.7 0 0 0-1.006-1.025 2.67 2.67 0 0 0-1.416-.381 2.79 2.79 0 0 0-2.432 1.377 2.75 2.75 0 0 0-.371 1.416v.02q0 .81.361 1.445.362.624.987.986.634.351 1.425.351.81 0 1.446-.351a2.66 2.66 0 0 0 1.006-.967q.37-.615.37-1.416v-.01h.587v2.55h-.313q-.254.575-.762 1.064a3.8 3.8 0 0 1-1.25.78q-.741.294-1.709.294-1.347 0-2.392-.596a4.4 4.4 0 0 1-1.631-1.66q-.585-1.055-.586-2.383v-.02q0-1.434.674-2.548a4.75 4.75 0 0 1 1.855-1.748q1.193-.636 2.715-.635" fill="#fff"/><path d="M0 37.5h40c0 1.756 0 2.633-.189 3.31-.57 2.046-2.334 3.514-4.42 3.68-.692.055-1.54-.117-3.236-.462L21.177 41.8c-.587-.119-.88-.178-1.177-.178s-.59.06-1.177.178L7.845 44.03c-1.696.344-2.544.516-3.235.46-2.087-.165-3.852-1.633-4.421-3.678C0 40.133 0 39.256 0 37.5" fill="#74DE2A"/></svg>