<svg width="36" height="40" viewBox="0 0 36 40" fill="none" xmlns="http://www.w3.org/2000/svg"><path d="M0 8c0-3.771 0-5.657 1.172-6.828S4.229 0 8 0h20c3.771 0 5.657 0 6.828 1.172S36 4.229 36 8v27H0z" fill="#34C759"/><path d="M17.833 12.001a5 5 0 0 1 1.925.378q.914.378 1.617 1.16.713.782 1.116 2.013t.404 2.944v.018q0 2.136-.615 3.656t-1.758 2.329q-1.142.81-2.742.809-1.168 0-2.11-.422a4.3 4.3 0 0 1-1.546-1.178 3.9 3.9 0 0 1-.817-1.714l-.018-.096h2.224l.035.079q.167.448.475.782.315.325.755.51a2.6 2.6 0 0 0 1.002.184q1.011 0 1.644-.589.642-.597.958-1.59a8.3 8.3 0 0 0 .36-2.215q.009-.132.009-.255v-.255l-.396-2.11a2.58 2.58 0 0 0-1.239-2.24 2.34 2.34 0 0 0-1.265-.352q-.695 0-1.266.343-.571.333-.914.905-.343.57-.343 1.292v.017q0 .73.325 1.301.325.563.888.888.571.325 1.283.325.72 0 1.292-.316.572-.325.906-.88a2.4 2.4 0 0 0 .334-1.274v-.009h.527v2.32h-.299a3.2 3.2 0 0 1-.677.941 3.4 3.4 0 0 1-1.107.695q-.66.263-1.538.263-1.213 0-2.154-.545a3.9 3.9 0 0 1-1.459-1.494q-.527-.95-.527-2.144v-.018q0-1.283.598-2.294a4.26 4.26 0 0 1 1.67-1.582q1.072-.58 2.443-.58" fill="#fff"/><path d="M0 34h36c0 1.505 0 2.257-.17 2.838-.512 1.753-2.1 3.011-3.979 3.153-.622.047-1.385-.1-2.911-.395l-9.881-1.91c-.528-.103-.792-.154-1.059-.154s-.531.051-1.059.153l-9.88 1.91c-1.527.296-2.29.444-2.912.396-1.879-.142-3.467-1.4-3.98-3.153C0 36.258 0 35.505 0 34" fill="#34C759"/></svg>