<svg width="20" height="22" viewBox="0 0 20 22" fill="none" xmlns="http://www.w3.org/2000/svg"><path d="M0 6.4c0-2.24 0-3.36.436-4.216A4 4 0 0 1 2.184.436C3.04 0 4.16 0 6.4 0h7.2c2.24 0 3.36 0 4.216.436a4 4 0 0 1 1.748 1.748C20 3.04 20 4.16 20 6.4V17H0zM0 17h20c0 1.79 0 2.686-.305 3.315a3 3 0 0 1-2.208 1.659c-.685.113-1.534-.144-3.234-.659l-2.529-.765c-.856-.26-1.284-.39-1.724-.39s-.868.13-1.724.39l-2.529.765c-1.7.515-2.55.772-3.234.659a3 3 0 0 1-2.209-1.659C0 19.686 0 18.791 0 17" fill="#34C759"/><path d="M9.873 4.618q.69 0 1.326.26.641.254 1.15.813.507.552.799 1.44.292.889.292 2.153v.012q0 1.549-.432 2.654-.43 1.098-1.244 1.688-.806.585-1.942.584-.812 0-1.467-.298a3 3 0 0 1-1.079-.825 2.9 2.9 0 0 1-.584-1.213l-.019-.076H8.09l.025.063q.128.35.368.604.242.253.578.4.336.14.768.14.768 0 1.25-.452.49-.456.73-1.212.241-.756.274-1.663.006-.096.006-.184v-.172l-.28-1.53q0-.558-.26-1.009-.254-.45-.692-.717a1.8 1.8 0 0 0-.97-.266q-.534 0-.972.26a2 2 0 0 0-.692.704q-.26.438-.26.99v.013q0 .56.247.997.248.438.68.692.43.247.977.247.553 0 .99-.247a1.85 1.85 0 0 0 .953-1.657v-.006h.374v1.67h-.222q-.165.367-.495.685a2.5 2.5 0 0 1-.813.514 2.9 2.9 0 0 1-1.098.19q-.87 0-1.549-.393A2.9 2.9 0 0 1 6.94 9.385a3.16 3.16 0 0 1-.387-1.568v-.012q0-.921.425-1.638a3.1 3.1 0 0 1 1.18-1.136q.756-.413 1.715-.413" fill="#fff"/></svg>