<svg width="20" height="18" viewBox="0 0 20 18" fill="none" xmlns="http://www.w3.org/2000/svg"><path fill-rule="evenodd" clip-rule="evenodd" d="M.026.556C0 .65 0 .768 0 1v16c0 .233 0 .349.026.444a.75.75 0 0 0 .53.53C.65 18 .768 18 1 18s.349 0 .444-.026a.75.75 0 0 0 .53-.53C2 17.35 2 17.233 2 17v-2h16v2c0 .233 0 .349.026.444a.75.75 0 0 0 .53.53c.095.026.211.026.444.026s.349 0 .444-.026a.75.75 0 0 0 .53-.53C20 17.35 20 17.233 20 17V1c0-.232 0-.349-.026-.444a.75.75 0 0 0-.53-.53C19.35 0 19.233 0 19 0s-.349 0-.444.026a.75.75 0 0 0-.53.53C18 .65 18 .768 18 1v5H7v-.6c0-.84 0-1.26-.163-1.581a1.5 1.5 0 0 0-.656-.656C5.861 3 5.441 3 4.6 3H2V1c0-.232 0-.349-.026-.444a.75.75 0 0 0-.53-.53C1.35 0 1.232 0 1 0S.651 0 .556.026a.75.75 0 0 0-.53.53M2 8v2h2.6c.84 0 1.26 0 1.581.164a1.5 1.5 0 0 1 .656.655c.163.32.163.74.163 1.581v.6h11V8z" fill="#6D6D71"/></svg>