<svg width="16" height="16" viewBox="0 0 16 16" fill="none" xmlns="http://www.w3.org/2000/svg"><path d="M0 15.182V9.59Q0 8.2.76 7.473q.76-.737 2.18-.737h10.11q1.44 0 2.19.737Q16 8.2 16 9.59v5.59q0 .374-.232.592-.223.227-.603.227h-.593a.83.83 0 0 1-.603-.227q-.232-.219-.232-.591V13.89q-.074.027-.287.045-.214.01-.4.01H2.95q-.187 0-.4-.01a1.5 1.5 0 0 1-.287-.045v1.29q0 .374-.232.592a.83.83 0 0 1-.603.227H.835q-.381 0-.612-.227Q0 15.554 0 15.182m2.337-9.9V2.664q0-1.32.696-1.991Q3.737 0 5.063 0l5.76.004q1.316 0 2.021.673t.705 1.99v2.619h-2.476v-1.24q0-.673-.362-1.019-.36-.354-1.057-.354H6.241q-.695 0-1.066.354-.362.345-.362 1.018v1.237z" fill="#6D6D71"/></svg>