<svg width="23" height="15" viewBox="0 0 23 15" fill="none" xmlns="http://www.w3.org/2000/svg"><path d="M5.108 7.574V6.49q0-.82-.346-1.455a2.54 2.54 0 0 0-.942-.998 2.56 2.56 0 0 0-1.362-.364h-.331V2.381q0-.844.478-1.362Q3.091.5 3.871.5h5.41q.773 0 1.251.519.486.518.486 1.362v5.193zm6.874 0V2.38q0-.844.479-1.362Q12.946.5 13.718.5h5.41q.78 0 1.258.519.48.518.479 1.362v1.292h-.324a2.6 2.6 0 0 0-1.37.364q-.595.356-.941.998-.339.634-.339 1.455v1.084zM0 11.017V6.49q0-.82.471-1.323.479-.51 1.244-.511h.743q.765 0 1.237.51.478.504.478 1.324v2.066h14.661V6.49q0-.82.471-1.323.472-.51 1.237-.511h.743q.766 0 1.237.51Q23 5.67 23 6.49v4.527q0 .82-.478 1.332-.471.503-1.237.503H1.715q-.765 0-1.244-.504Q0 11.839 0 11.019M2.672 14.5a.66.66 0 0 1-.493-.194q-.184-.192-.184-.518v-1.71h1.84v1.71q0 .326-.184.518a.65.65 0 0 1-.494.194zm17.075 0a.73.73 0 0 1-.545-.217q-.206-.216-.206-.572v-1.78h1.987v1.78q0 .356-.213.572a.72.72 0 0 1-.545.217z" fill="#6D6D71"/></svg>