<svg width="22" height="22" viewBox="0 0 22 22" fill="none" xmlns="http://www.w3.org/2000/svg"><path d="M10.995 22q-2.257 0-4.247-.863a11.1 11.1 0 0 1-3.512-2.374 11.3 11.3 0 0 1-2.374-3.514A10.6 10.6 0 0 1 0 11q0-2.257.862-4.249A11.27 11.27 0 0 1 6.737.862 10.6 10.6 0 0 1 10.984 0q2.266 0 4.257.863a11.2 11.2 0 0 1 3.513 2.385 11.1 11.1 0 0 1 2.384 3.503Q22 8.743 22 11t-.862 4.249a11.24 11.24 0 0 1-5.897 5.888 10.6 10.6 0 0 1-4.246.863m-1.182-5.75q.299 0 .543-.139a1.3 1.3 0 0 0 .447-.415l4.981-7.773q.107-.171.192-.362a1 1 0 0 0 .085-.384q0-.415-.32-.67a1.07 1.07 0 0 0-.702-.256q-.522 0-.862.553l-4.406 7.05-2.044-2.598a1.4 1.4 0 0 0-.415-.373 1 1 0 0 0-.458-.107q-.405 0-.691.299a.96.96 0 0 0-.277.692q0 .202.074.394.075.192.213.372l2.608 3.174q.234.287.479.415t.553.128" fill="#fff"/></svg>