<svg width="22" height="19" viewBox="0 0 22 19" fill="none" xmlns="http://www.w3.org/2000/svg"><path d="M15.215 19q.314-.484.47-1.03.166-.546.166-1.151V4.432h4.085q.975 0 1.515.58.549.571.549 1.601V16.82q0 1.03-.549 1.601-.54.58-1.515.58zm2.718-9.98q0 .303.287.303h1.394q.296 0 .296-.303V7.67q0-.295-.296-.295H18.22q-.287 0-.287.294zm0 3.367q0 .303.287.303h1.394q.296 0 .296-.303v-1.35q0-.295-.296-.295H18.22q-.287 0-.287.294zm0 3.367q0 .303.287.303h1.394q.296 0 .296-.303v-1.35q0-.295-.296-.295H18.22q-.287 0-.287.295zM0 16.819V2.19Q0 1.16.54.58 1.089 0 2.073 0h10.286q.984 0 1.524.58.549.58.549 1.61v14.629q0 1.03-.55 1.601-.54.58-1.523.58H2.073q-.984 0-1.533-.58Q0 17.849 0 16.819m4.015.398h6.445v-2.571a.63.63 0 0 0-.2-.493q-.2-.19-.593-.19H4.703a.67.67 0 0 0-.496.19.65.65 0 0 0-.192.493zM3.858 4.995q0 .354.349.354h1.785q.348 0 .348-.354V3.367q0-.363-.348-.363H4.207q-.35 0-.349.363zm4.277 0q0 .354.348.354h1.777q.357 0 .357-.354V3.367q0-.363-.357-.363H8.483q-.348 0-.348.363zm-4.277 3.54q0 .354.349.355h1.785q.348 0 .348-.355V6.908q0-.364-.348-.364H4.207q-.35 0-.349.364zm4.277 0q0 .354.348.355h1.777q.357 0 .357-.355V6.908q0-.364-.357-.364H8.483q-.348 0-.348.364zm-4.277 3.54q0 .355.349.355h1.785q.348 0 .348-.355V10.44q0-.355-.348-.355H4.207q-.35 0-.349.355zm4.277 0q0 .355.348.355h1.777q.357 0 .357-.355V10.44q0-.355-.357-.355H8.483q-.348 0-.348.355z" fill="#6D6D71"/></svg>