<svg width="14" height="14" viewBox="0 0 14 14" fill="none" xmlns="http://www.w3.org/2000/svg"><path d="M7 14a6.7 6.7 0 0 1-2.704-.549 7.2 7.2 0 0 1-2.23-1.517 7.2 7.2 0 0 1-1.517-2.23A6.7 6.7 0 0 1 0 7q0-1.434.549-2.697a7.2 7.2 0 0 1 1.51-2.237A7.2 7.2 0 0 1 4.289.549 6.7 6.7 0 0 1 6.993 0q1.435 0 2.704.549a7.1 7.1 0 0 1 2.237 1.517 7.1 7.1 0 0 1 1.517 2.237A6.7 6.7 0 0 1 14 7a6.7 6.7 0 0 1-.549 2.704 7.2 7.2 0 0 1-1.517 2.23 7.1 7.1 0 0 1-2.237 1.517A6.7 6.7 0 0 1 7 14m0-1.167q1.215 0 2.272-.453a5.9 5.9 0 0 0 1.86-1.249 5.8 5.8 0 0 0 1.248-1.86A5.7 5.7 0 0 0 12.833 7q0-1.215-.453-2.272a5.9 5.9 0 0 0-1.256-1.86 5.7 5.7 0 0 0-1.86-1.248 5.7 5.7 0 0 0-2.27-.453q-1.216 0-2.272.453a5.7 5.7 0 0 0-1.853 1.249 5.9 5.9 0 0 0-1.25 1.86A5.8 5.8 0 0 0 1.175 7q0 1.215.446 2.272a5.9 5.9 0 0 0 1.249 1.86q.802.795 1.86 1.248a5.7 5.7 0 0 0 2.27.453m-1.201-1.997a.5.5 0 0 1-.357-.137.45.45 0 0 1-.144-.343q0-.206.144-.343a.5.5 0 0 1 .357-.138h.851v-3.15h-.734a.5.5 0 0 1-.357-.137.45.45 0 0 1-.144-.343q0-.206.144-.343a.5.5 0 0 1 .357-.137h1.29q.26 0 .398.171.137.165.137.446v3.493h.851q.212 0 .357.138a.45.45 0 0 1 .144.343.45.45 0 0 1-.144.343.5.5 0 0 1-.357.137zm1.14-6.217a.86.86 0 0 1-.632-.261.86.86 0 0 1-.26-.632q0-.377.26-.638a.86.86 0 0 1 .631-.26q.377 0 .632.26.26.261.26.638a.86.86 0 0 1-.26.632.85.85 0 0 1-.632.26" fill="#C8C7CB"/></svg>