<svg width="33" height="37" viewBox="0 0 33 37" fill="none" xmlns="http://www.w3.org/2000/svg"><path d="M32.5 18.546c0 9.263-10.92 15.975-14.717 18.03-.41.222-.616.333-.901.39a2.2 2.2 0 0 1-.764 0c-.285-.057-.49-.168-.9-.39C11.42 34.52.5 27.809.5 18.546v-7.853c0-1.66 0-2.49.262-3.204A4.16 4.16 0 0 1 1.855 5.85c.552-.504 1.3-.796 2.798-1.379L15.376.296c.416-.162.624-.243.838-.275q.286-.042.572 0c.214.032.422.113.838.275l10.723 4.175c1.497.583 2.246.875 2.798 1.38a4.16 4.16 0 0 1 1.093 1.638c.262.713.262 1.543.262 3.204z" fill="#3772FF"/><path d="M32.5 18.546c0 9.263-10.92 15.975-14.717 18.03-.41.222-.616.333-.901.39a2.2 2.2 0 0 1-.764 0c-.285-.057-.49-.168-.9-.39C11.42 34.52.5 27.809.5 18.546v-7.853c0-1.66 0-2.49.262-3.204A4.16 4.16 0 0 1 1.855 5.85c.552-.504 1.3-.796 2.798-1.379L15.376.296c.416-.162.624-.243.838-.275q.286-.042.572 0c.214.032.422.113.838.275l10.723 4.175c1.497.583 2.246.875 2.798 1.38a4.16 4.16 0 0 1 1.093 1.638c.262.713.262 1.543.262 3.204z" fill="url(#a)"/><path d="m21.813 25.728-2.11 5.846 3.218-2.57zm-5.208-6.098v3.703l3.547-2.082z" fill="#fff" fill-opacity=".15"/><path d="m22.921 29.004-1.108-3.277 3.338 1.39z" fill="#fff" fill-opacity=".25"/><path d="m20.152 21.251-3.547 2.082 5.208 2.394zm-2.29-2.052-1.257.431 3.547 1.621 4.356-4 .538-.476-2.08.654-1.123.684-.808.878z" fill="#fff" fill-opacity=".25"/><path d="M16.605 30.56v2.9l3.098-1.886 2.11-5.847zm.09-14.692 1.167 3.33-1.257.432zm8.351.907-.134 3.123-.734 1.517-1.422 2.335-.942 1.977.673-2.26 2.02-6.216zm-13.635 8.937 2.096 5.86-3.218-2.573zm5.194-6.082v3.703l-3.533-2.097zm6.091-2.647-.853 1.13 1.123-.684 1.332-1.1-.763-.55z" fill="#fff" fill-opacity=".35"/><path d="m24.912 19.898 2.798 4.174-3.532-2.657zm.238 7.22-2.394-3.368-.943 1.978zm-12.736-9.049 4.19 1.561-3.532 1.607z" fill="#fff" fill-opacity=".45"/><path fill-rule="evenodd" clip-rule="evenodd" d="m24.507 17.251-4.355 4 1.661 4.477.674-2.26z" fill="#fff" fill-opacity=".45"/><path d="m16.695 15.868-4.281 2.201 4.19 1.562zm7.603.462.748.445-2.08.655z" fill="#fff" fill-opacity=".45"/><path fill-rule="evenodd" clip-rule="evenodd" d="m16.694 15.868 1.168 3.346.015-.016 2.724-.177-1.213-1.368-.628-.64z" fill="#fff" fill-opacity=".45"/><path d="m20.915 11.971 1.138-1.546.823 2.23z" fill="#fff" fill-opacity=".45"/><path d="m22.966 11.763.763 1.205-.853-.312-.823-2.231.075-.535 1.571.223zM10.289 29l1.122-3.287-3.353 1.398z" fill="#fff" fill-opacity=".45"/><path d="m8.448 17.176-.54-.401.195 3.078.764 1.502 1.481 2.365.225-.223zm4.625 4.06 3.532 2.097-5.194 2.38z" fill="#fff" fill-opacity=".6"/><path d="m7.909 16.775 4.505 1.294.658 3.167-4.624-4.06zm8.696 13.785v-7.227l5.208 2.394zm2.769-12.923L20.6 19.02l.434-.03.808-.877.853-1.13-3.936.03zm4.744-3.241.928 2.379-.748-.446-.763-.55-.18-.134z" fill="#fff" fill-opacity=".6"/><path d="m21.364 15.987-2.604 1.026-2.065-1.145zm1.347-1.547v1.1l-.898.283-.389-1.383zm-12.363 9.28.225-.223.838 2.215-3.353 1.398zm6.257 6.84v2.9l-3.098-1.888-2.096-5.86z" fill="#fff" fill-opacity=".6"/><path d="m12.878 14.425 3.817 1.443-4.28 2.2zm-1.467 11.288 1.662-4.477-2.5 2.26zm3.937-12.135 1.347 2.29.494-3.004zm3.936-2.142-2.095 1.428-.704-.774-1.302-1.561 4.31.104 2.56-.208-1.138 1.546z" fill="#fff" fill-opacity=".7"/><path d="m24.178 21.415-1.422 2.334 2.395 3.368 2.56-3.045zM12.504 7.495 14.06 8.67l-1.122.49-.24-.029zm.374 6.93-4.97 2.35 4.506 1.294zm6.75 1.517 2.26-2.96-.464 1.458.39 1.383-.45.163z" fill="#fff" fill-opacity=".8"/><path d="m15.183 10.529 1.302 1.561-.928-.015-.21 1.502 1.348 2.29-3.817-1.442zm7.708-2.633.808 2.216-1.571-.223.314-1.368zM9.3 10.038l1.647-.178.255.937-1.093 1.011zm-1.197 9.815L5.5 24.062l3.368-2.707z" fill="#fff" fill-opacity=".8"/><path d="m13.072 21.236-4.624-4.06 2.125 6.32zm3.533 9.324v-7.227l-5.194 2.38zm2.679-19.124 1.631.535 1.961.684.853.313-1.84.015-2.26 2.96-2.934-.075.494-3.004z" fill="#fff"/><path d="m20.541 7.495 2.35.402-.45.624-2.17.64 1.782 1.264-2.545.208-4.325-.104-2.305 3.896-4.97 2.35 2.2-4.967 1.108-1.026 1.722-1.621 1.107-.491 2.455-.416 2.5.416zm-8.037 0 .194 1.636-2.095-.61.344 1.339-1.646.178.853-2.156zM8.867 21.356l1.481 2.364-2.29 3.39L5.5 24.063z" fill="#fff"/><defs><linearGradient id="a" x1=".53" y1="37" x2="36.999" y2="31.89" gradientUnits="userSpaceOnUse"><stop stop-color="#A950E1"/><stop offset="1" stop-color="#0E53FE"/></linearGradient></defs></svg>