<svg width="41" height="40" viewBox="0 0 41 40" fill="none" xmlns="http://www.w3.org/2000/svg"><rect x=".5" width="40" height="40" rx="10.667" fill="url(#a)"/><path d="M32 20.531c0 6.26-7.849 10.794-10.578 12.182-.295.15-.443.225-.647.264-.16.03-.39.03-.55 0-.204-.039-.352-.114-.647-.264C16.848 31.325 9 26.79 9 20.531v-5.306c0-1.122 0-1.683.188-2.165.166-.426.436-.806.786-1.107.397-.341.935-.538 2.01-.932l7.708-2.82c.3-.11.449-.165.602-.187q.206-.029.412 0c.153.022.303.077.602.186l7.707 2.821c1.076.394 1.614.59 2.01.932.351.301.62.681.787 1.107.188.482.188 1.043.188 2.165z" fill="#fff"/><defs><linearGradient id="a" x1="0" y1="0" x2="15.691" y2="47.954" gradientUnits="userSpaceOnUse"><stop stop-color="#2982EA"/><stop offset="1" stop-color="#17C8FE"/></linearGradient></defs></svg>