<svg width="229" height="10" viewBox="0 0 229 10" fill="none" xmlns="http://www.w3.org/2000/svg"><g clip-path="url(#a)"><path fill="#007AFF" d="M0 0h229v10H0z" data-line="line"/><path fill="url(#b)" style="mix-blend-mode:soft-light" d="M.5.5h228v9H.5z"/><path stroke="url(#c)" style="mix-blend-mode:soft-light" d="M.5.5h228v9H.5z"/><mask id="d" style="mask-type:alpha" maskUnits="userSpaceOnUse" x="0" y="0" width="229" height="10"><path fill="#D9D9D9" d="M0 0h229v10H0z"/></mask><g mask="url(#d)" stroke="#fff" stroke-opacity=".12" stroke-width="2"><path d="m0 11.5 13-13m-4 13 13-13m-4 13 13-13m-4 13 13-13m-4 13 13-13m-4 13 13-13m-4 13 13-13m-4 13 13-13m-4 13 13-13m-4 13 13-13m-4 13 13-13m-4 13 13-13m-4 13 13-13m-4 13 13-13m-4 13 13-13m-4 13 13-13m-4 13 13-13m-4 13 13-13m-4 13 13-13m-4 13 13-13m-4 13 13-13m-4 13 13-13m-4 13 13-13m-4 13 13-13m-4 13 13-13" style="mix-blend-mode:plus-lighter"/></g></g><defs><linearGradient id="b" x1="0" y1="5" x2="229" y2="5" gradientUnits="userSpaceOnUse"><stop stop-color="#fff" stop-opacity="0"/><stop offset=".396" stop-color="#fff" stop-opacity=".85"/><stop offset=".521" stop-color="#fff"/><stop offset=".646" stop-color="#fff" stop-opacity=".85"/><stop offset="1" stop-color="#fff" stop-opacity="0"/></linearGradient><linearGradient id="c" x1="0" y1="5" x2="229" y2="5" gradientUnits="userSpaceOnUse"><stop stop-color="#fff" stop-opacity="0"/><stop offset=".396" stop-color="#fff" stop-opacity=".85"/><stop offset=".521" stop-color="#fff"/><stop offset=".646" stop-color="#fff" stop-opacity=".85"/><stop offset="1" stop-color="#fff" stop-opacity="0"/></linearGradient><clipPath id="a"><path fill="#fff" d="M0 0h229v10H0z"/></clipPath></defs></svg>