<svg width="15" height="18" viewBox="0 0 15 18" fill="none" xmlns="http://www.w3.org/2000/svg"><path d="M0 10.601q0-.3.195-.493a.7.7 0 0 1 .51-.2q.305 0 .483.2a.7.7 0 0 1 .179.493q0 1.263.475 2.366.476 1.095 1.316 1.931.84.828 1.952 1.288 1.113.468 2.394.468 1.274 0 2.386-.468a6 6 0 0 0 1.952-1.288 6.2 6.2 0 0 0 1.316-1.931 5.9 5.9 0 0 0 .475-2.366q0-1.254-.475-2.35a6.1 6.1 0 0 0-1.316-1.922A6.2 6.2 0 0 0 9.89 5.033a6.1 6.1 0 0 0-2.386-.468q-.493 0-.934.042a7 7 0 0 0-.814.125l2.53 2.475a.6.6 0 0 1 .144.225q.05.117.05.251 0 .285-.195.477a.63.63 0 0 1-.475.192.66.66 0 0 1-.493-.192L3.82 4.699a.7.7 0 0 1-.161-.235.7.7 0 0 1 .161-.769L7.317.201A.65.65 0 0 1 7.818 0q.28 0 .467.2.195.193.195.486a.7.7 0 0 1-.05.25.6.6 0 0 1-.136.226L6.036 3.361q.33-.067.704-.1.375-.042.764-.042a7.4 7.4 0 0 1 2.912.577q1.367.568 2.394 1.58a7.3 7.3 0 0 1 1.604 2.357A7.1 7.1 0 0 1 15 10.601a7.2 7.2 0 0 1-.586 2.893 7.5 7.5 0 0 1-1.604 2.357 7.5 7.5 0 0 1-2.394 1.58A7.5 7.5 0 0 1 7.504 18a7.6 7.6 0 0 1-2.928-.569 7.5 7.5 0 0 1-2.386-1.58 7.6 7.6 0 0 1-1.613-2.357A7.3 7.3 0 0 1 0 10.6" fill="#007AFF"/></svg>