<svg width="22" height="22" viewBox="0 0 22 22" fill="none" xmlns="http://www.w3.org/2000/svg"><path d="M11 22a10.6 10.6 0 0 1-4.249-.863 11.3 11.3 0 0 1-3.505-2.383 11.3 11.3 0 0 1-2.383-3.505A10.6 10.6 0 0 1 0 11q0-2.254.863-4.238a11.3 11.3 0 0 1 2.372-3.516A11.3 11.3 0 0 1 6.74.863 10.6 10.6 0 0 1 10.99 0q2.253 0 4.248.863t3.516 2.383a11.2 11.2 0 0 1 2.383 3.516Q22 8.746 22 11a10.6 10.6 0 0 1-.863 4.249 11.3 11.3 0 0 1-2.383 3.505 11.2 11.2 0 0 1-3.516 2.383A10.5 10.5 0 0 1 11 22m-3.624-6.47a.92.92 0 0 0 .658-.26l2.977-2.997 2.987 2.998a.84.84 0 0 0 .636.258.87.87 0 0 0 .637-.258.9.9 0 0 0 .258-.637q0-.399-.258-.636l-2.998-2.987 3.008-2.998a.9.9 0 0 0 .26-.637.85.85 0 0 0-.26-.625.85.85 0 0 0-.625-.259.84.84 0 0 0-.615.259l-3.03 3.009-3.009-2.998a.9.9 0 0 0-.626-.248.85.85 0 0 0-.625.259.83.83 0 0 0-.259.625q0 .356.259.626l2.998 2.987-2.998 2.998a.85.85 0 0 0-.259.625q0 .367.259.637a.85.85 0 0 0 .625.258" fill="#999"/></svg>