<svg width="20" height="20" viewBox="0 0 20 20" fill="none" xmlns="http://www.w3.org/2000/svg"><rect x=".75" y="1.583" width="13.917" height="12.25" rx="1.75" stroke="#000" stroke-width="1.5"/><path d="M18.65 15.665a.38.38 0 0 1-.322.168.38.38 0 0 1-.317-.168l-1.22-1.67q-.189-.262-.091-.511.098-.25.408-.25h.872V3.426h-.872q-.31 0-.408-.25-.098-.249.091-.51L18.011 1a.37.37 0 0 1 .317-.168.36.36 0 0 1 .323.168l1.219 1.664q.195.262.098.511-.099.25-.415.25h-.866v9.808h.866q.323 0 .409.256.09.255-.092.505zM.168 17.817A.38.38 0 0 1 0 17.494q0-.195.168-.317l1.67-1.22q.262-.188.511-.09.25.096.25.408v.871H13.24v-.871q0-.312.249-.409t.51.092l1.665 1.219a.37.37 0 0 1 .168.317.36.36 0 0 1-.168.323L14 19.037q-.262.195-.511.097-.25-.097-.25-.415v-.865H2.6v.865q0 .324-.256.409-.255.09-.505-.092z" fill="#000"/></svg>