<svg width="22" height="14" viewBox="0 0 22 14" fill="none" xmlns="http://www.w3.org/2000/svg"><path fill-rule="evenodd" clip-rule="evenodd" d="M7.438 8.034c0 .99-.892 1.783-1.982 1.783s-1.98-.792-1.98-1.882c0-.99.99-1.882 1.98-1.882.991 0 1.982.891 1.982 1.98m9.113-1.981c-1.09 0-1.98.891-1.98 1.98 0 .992.89 1.784 1.98 1.784s1.982-.792 1.982-1.882a1.98 1.98 0 0 0-1.982-1.882m0 5.448c-2.08 0-3.764-1.585-3.764-3.566s1.684-3.566 3.764-3.566c1.982 0 3.666 1.585 3.666 3.566S18.533 11.5 16.55 11.5m-5.646-3.665c0-2.378-1.783-4.359-4.16-5.25 2.67-1.07 5.65-1.07 8.32 0-2.377.99-4.16 2.971-4.16 5.25M5.456 11.5c-2.08 0-3.764-1.585-3.764-3.566s1.684-3.566 3.764-3.566c1.982 0 3.666 1.585 3.666 3.566S7.438 11.5 5.456 11.5m14.76-7.43L22 2.091h-3.963a12.88 12.88 0 0 0-14.066 0H.008l1.783 1.98a5.15 5.15 0 0 0-.396 7.43c2.08 2.18 5.547 2.278 7.826.396l1.783 1.783 1.783-1.882a5.65 5.65 0 0 0 3.764 1.387c2.972 0 5.449-2.278 5.449-5.25a5.15 5.15 0 0 0-1.783-3.963z" fill="#000"/></svg>