<svg width="30" height="30" viewBox="0 0 30 30" fill="none" xmlns="http://www.w3.org/2000/svg"><g clip-path="url(#a)"><path d="M0 11.2c0-3.92 0-5.88.763-7.378A7 7 0 0 1 3.823.763C5.318 0 7.28 0 11.2 0h7.6c3.92 0 5.88 0 7.378.763a7 7 0 0 1 3.059 3.06C30 5.318 30 7.28 30 11.2v7.6c0 3.92 0 5.88-.763 7.378a7 7 0 0 1-3.06 3.059C24.68 30 22.72 30 18.8 30h-7.6c-3.92 0-5.88 0-7.378-.763a7 7 0 0 1-3.059-3.06C0 24.68 0 22.72 0 18.8z" fill="#5856D6"/><path d="M14.89 22.602q-1.56 0-2.752-.414-1.193-.405-1.963-1.105-.763-.692-1.044-1.552A1.7 1.7 0 0 1 9 18.906q0-.556.35-.902.36-.346 1.017-.346.5 0 .833.244.333.237.552.667.203.565.614.962.42.396 1.06.607.64.203 1.508.203.974 0 1.683-.228t1.087-.667q.386-.439.386-1.071 0-.836-.658-1.274-.647-.447-2.156-.776l-1.665-.355q-2.244-.498-3.384-1.501-1.14-1.005-1.14-2.692 0-1.325.746-2.312.753-.987 2.06-1.527 1.305-.548 2.989-.548 1.499 0 2.664.413 1.175.405 1.929 1.114.762.7 1.043 1.595a1.9 1.9 0 0 1 .105.615q0 .515-.35.819-.351.303-.965.304-.938 0-1.428-.878a2.65 2.65 0 0 0-1.64-1.519 4 4 0 0 0-1.323-.202q-.93 0-1.587.245-.648.244-.99.675a1.5 1.5 0 0 0-.333.961q0 .769.657 1.24.667.465 2.025.76l1.665.363q2.376.515 3.506 1.502 1.14.987 1.14 2.682 0 1.418-.798 2.439-.788 1.013-2.174 1.544-1.376.54-3.138.54m.062 1.898a.55.55 0 0 1-.412-.16.56.56 0 0 1-.158-.414V6.066q0-.254.158-.406a.55.55 0 0 1 .412-.16q.255 0 .412.16a.54.54 0 0 1 .157.405v17.861a.56.56 0 0 1-.157.414.55.55 0 0 1-.412.16" fill="#fff"/></g><defs><clipPath id="a"><path fill="#fff" d="M0 0h30v30H0z"/></clipPath></defs></svg>