<svg width="30" height="30" viewBox="0 0 30 30" fill="none" xmlns="http://www.w3.org/2000/svg"><g clip-path="url(#a)"><path d="M0 11.2c0-3.92 0-5.88.763-7.378A7 7 0 0 1 3.823.763C5.318 0 7.28 0 11.2 0h7.6c3.92 0 5.88 0 7.378.763a7 7 0 0 1 3.059 3.06C30 5.318 30 7.28 30 11.2v7.6c0 3.92 0 5.88-.763 7.378a7 7 0 0 1-3.06 3.059C24.68 30 22.72 30 18.8 30h-7.6c-3.92 0-5.88 0-7.378-.763a7 7 0 0 1-3.059-3.06C0 24.68 0 22.72 0 18.8z" fill="#8E8E93"/><path d="M5 15.028q0-2.243.741-4.08A9.1 9.1 0 0 1 7.86 7.777a9.5 9.5 0 0 1 3.24-2.055Q12.98 5 15.242 5q2.148 0 3.934.647 1.796.638 3.097 1.83a8.1 8.1 0 0 1 2.014 2.842q.713 1.65.713 3.677 0 1.83-.56 3.208-.561 1.38-1.606 2.149-1.035.76-2.48.76-1.15 0-1.948-.516A2.3 2.3 0 0 1 17.4 18.16h-.162q-.398.938-1.15 1.454-.75.507-1.823.507-1.254 0-2.205-.638-.94-.638-1.472-1.782t-.532-2.655q0-1.464.513-2.58.522-1.116 1.434-1.735.912-.62 2.12-.62 1.025 0 1.804.47.79.468 1.15 1.313h.171v-.6q0-.563.295-.873.303-.31.855-.31.56 0 .864.31t.304.873v5.422q0 .713.342 1.107.342.393.97.394.627 0 1.083-.497.465-.507.712-1.398.257-.9.257-2.102 0-1.726-.58-3.076a6.5 6.5 0 0 0-1.625-2.308 7 7 0 0 0-2.45-1.435q-1.397-.498-3.041-.498-1.806 0-3.288.591a7.4 7.4 0 0 0-2.555 1.68 7.5 7.5 0 0 0-1.654 2.589q-.58 1.491-.58 3.311 0 1.866.609 3.349.608 1.482 1.73 2.524 1.13 1.04 2.707 1.585 1.577.553 3.506.553.75 0 1.33-.084.58-.075 1.169-.197.161-.019.294-.038.133-.009.266-.009.438 0 .675.235a.8.8 0 0 1 .237.6.92.92 0 0 1-.19.581q-.18.255-.627.404-.56.196-1.444.31a16 16 0 0 1-2.033.112q-2.29 0-4.19-.694-1.9-.695-3.288-1.998a8.9 8.9 0 0 1-2.147-3.143Q5 17.318 5 15.028m9.843 3.04q.684 0 1.188-.366t.779-1.032.276-1.586q0-1.36-.609-2.148-.598-.788-1.624-.788-.675 0-1.169.366-.495.357-.77 1.023-.265.656-.265 1.566 0 .919.266 1.586.265.656.76 1.022.493.357 1.168.357" fill="#fff"/></g><defs><clipPath id="a"><path fill="#fff" d="M0 0h30v30H0z"/></clipPath></defs></svg>