<svg width="30" height="30" viewBox="0 0 30 30" fill="none" xmlns="http://www.w3.org/2000/svg"><g clip-path="url(#a)"><path d="M0 11.2c0-3.92 0-5.88.763-7.378A7 7 0 0 1 3.823.763C5.318 0 7.28 0 11.2 0h7.6c3.92 0 5.88 0 7.378.763a7 7 0 0 1 3.059 3.06C30 5.318 30 7.28 30 11.2v7.6c0 3.92 0 5.88-.763 7.378a7 7 0 0 1-3.06 3.059C24.68 30 22.72 30 18.8 30h-7.6c-3.92 0-5.88 0-7.378-.763a7 7 0 0 1-3.059-3.06C0 24.68 0 22.72 0 18.8z" fill="#007AFF"/><path d="M14.995 25a9.6 9.6 0 0 1-3.86-.784 10.1 10.1 0 0 1-3.194-2.159 10.3 10.3 0 0 1-2.157-3.194A9.6 9.6 0 0 1 5 15q0-2.052.784-3.863a10.25 10.25 0 0 1 5.341-5.353A9.6 9.6 0 0 1 14.985 5q2.063 0 3.87.784a10.2 10.2 0 0 1 3.194 2.169 10.1 10.1 0 0 1 2.167 3.184A9.6 9.6 0 0 1 25 15a9.6 9.6 0 0 1-.784 3.863 10.22 10.22 0 0 1-5.36 5.353 9.6 9.6 0 0 1-3.86.784m-.213-7.986q.417 0 .668-.213a.73.73 0 0 0 .27-.533v-.116q.03-.398.291-.687t.755-.61q.745-.474 1.19-.988.455-.522.455-1.403 0-.843-.465-1.423a2.87 2.87 0 0 0-1.2-.9 4.2 4.2 0 0 0-1.644-.31q-1.306 0-2.139.503t-1.083 1.22a3 3 0 0 0-.068.261q-.03.135-.03.271 0 .359.243.571a.85.85 0 0 0 .56.213 1 1 0 0 0 .475-.106 1.3 1.3 0 0 0 .348-.31l.146-.213q.183-.27.396-.455.213-.184.465-.28.26-.098.56-.098.6 0 .978.32.377.32.377.832 0 .485-.319.794-.32.3-.958.746a4.6 4.6 0 0 0-.89.813q-.348.426-.348 1.123v.106q0 .872.967.872m-.02 3.078q.484 0 .833-.31.348-.319.348-.794 0-.474-.348-.793a1.17 1.17 0 0 0-.832-.32q-.494 0-.842.32a1.05 1.05 0 0 0-.338.793q0 .475.348.794.349.31.832.31" fill="#fff"/></g><defs><clipPath id="a"><path fill="#fff" d="M0 0h30v30H0z"/></clipPath></defs></svg>