<svg width="30" height="30" viewBox="0 0 30 30" fill="none" xmlns="http://www.w3.org/2000/svg"><g clip-path="url(#a)"><path d="M0 11.2c0-3.92 0-5.88.763-7.378A7 7 0 0 1 3.823.763C5.318 0 7.28 0 11.2 0h7.6c3.92 0 5.88 0 7.378.763a7 7 0 0 1 3.059 3.06C30 5.318 30 7.28 30 11.2v7.6c0 3.92 0 5.88-.763 7.378a7 7 0 0 1-3.06 3.059C24.68 30 22.72 30 18.8 30h-7.6c-3.92 0-5.88 0-7.378-.763a7 7 0 0 1-3.059-3.06C0 24.68 0 22.72 0 18.8z" fill="#30B0C7"/><path d="M15.37 21.697q-.696 0-1.058-.362a2 2 0 0 1-.494-.917 6 6 0 0 1-.15-1.174 78 78 0 0 1-.01-1.103q0-.634-.45-1.041-.44-.415-1.129-.415-1.12 0-1.738-.608-.618-.609-.617-1.695 0-.838.494-1.535t1.314-1.12a3.94 3.94 0 0 1 1.818-.424q.441 0 .882.123.45.115.812.23.37.115.574.115.175 0 .273-.186.097-.195.097-.467 0-.195-.185-.433a1.5 1.5 0 0 0-.45-.414 1 1 0 0 0-.556-.177.17.17 0 0 0-.123.044.24.24 0 0 0-.053.124.52.52 0 0 1-.124.326q-.106.124-.326.124-.327 0-.565-.141-.239-.15-.441-.3a.63.63 0 0 0-.388-.15.38.38 0 0 0-.318.167q-.123.168-.265.389a1.4 1.4 0 0 1-.353.388q-.211.167-.6.167-.361 0-.573-.203a.7.7 0 0 1-.212-.529q0-.265.141-.468a5 5 0 0 1 .327-.414q.193-.22.335-.512.141-.29.141-.724 0-.441.353-.873.353-.44 1.138-.724.786-.291 2.1-.3 1.766 0 3.309.68a8.7 8.7 0 0 1 4.553 4.58A8.1 8.1 0 0 1 23.515 15q0 .503-.168.891-.159.388-.441.724a1.8 1.8 0 0 1-.83-.733 5 5 0 0 1-.476-1.059 48 48 0 0 0-.309-.944q-.124-.396-.291-.397a.2.2 0 0 0-.159.08 1.3 1.3 0 0 1-.15.159q-.088.07-.264.07-.204 0-.468-.185a8 8 0 0 1-.53-.424 7 7 0 0 0-.502-.432q-.23-.185-.38-.185-.168 0-.309.159a.56.56 0 0 0-.132.37q0 .168.273.362.274.194.627.432.362.23.635.494.274.256.274.547 0 .38-.238.724-.231.344-.468.609-.23.264-.23.423 0 .336.044.847.054.504-.282 1.05-.132.221-.45.724-.309.502-.759 1.059-.45.547-1.006.944-.547.388-1.155.388M17.595 9.68q.141 0 .282.097.15.09.389.089a.31.31 0 0 0 .247-.115.47.47 0 0 0 .097-.3q0-.31-.309-.52-.309-.212-.777-.212-.546 0-.846.176-.3.168-.3.485 0 .212.132.345a.5.5 0 0 0 .344.123.7.7 0 0 0 .353-.08q.15-.088.388-.088M15 24a8.7 8.7 0 0 1-3.476-.706 9.2 9.2 0 0 1-2.868-1.95 9.2 9.2 0 0 1-1.95-2.867A8.7 8.7 0 0 1 6 15q0-1.844.706-3.468a9.3 9.3 0 0 1 1.941-2.876 9.2 9.2 0 0 1 2.868-1.95A8.7 8.7 0 0 1 14.99 6q1.844 0 3.477.706a9.2 9.2 0 0 1 2.876 1.95q1.245 1.244 1.95 2.876A8.6 8.6 0 0 1 24 15q0 1.844-.706 3.477a9.2 9.2 0 0 1-1.95 2.867 9.2 9.2 0 0 1-2.876 1.95A8.6 8.6 0 0 1 15 24m0-1.2a7.4 7.4 0 0 0 3.009-.618 7.9 7.9 0 0 0 2.488-1.685 7.9 7.9 0 0 0 1.685-2.488A7.4 7.4 0 0 0 22.8 15a7.4 7.4 0 0 0-.618-3.009 7.9 7.9 0 0 0-1.694-2.488A7.9 7.9 0 0 0 18 7.818a7.4 7.4 0 0 0-3.009-.618 7.4 7.4 0 0 0-3.009.618 7.9 7.9 0 0 0-2.488 1.685A8.1 8.1 0 0 0 7.81 11.99 7.5 7.5 0 0 0 7.2 15q0 1.598.609 3.009.618 1.411 1.694 2.488a7.9 7.9 0 0 0 2.488 1.685A7.4 7.4 0 0 0 15 22.8" fill="#fff"/></g><defs><clipPath id="a"><path fill="#fff" d="M0 0h30v30H0z"/></clipPath></defs></svg>