<svg width="30" height="30" viewBox="0 0 30 30" fill="none" xmlns="http://www.w3.org/2000/svg"><g clip-path="url(#a)"><path d="M0 11.2c0-3.92 0-5.88.763-7.378A7 7 0 0 1 3.823.763C5.318 0 7.28 0 11.2 0h7.6c3.92 0 5.88 0 7.378.763a7 7 0 0 1 3.059 3.06C30 5.318 30 7.28 30 11.2v7.6c0 3.92 0 5.88-.763 7.378a7 7 0 0 1-3.06 3.059C24.68 30 22.72 30 18.8 30h-7.6c-3.92 0-5.88 0-7.378-.763a7 7 0 0 1-3.059-3.06C0 24.68 0 22.72 0 18.8z" fill="#34C759"/><path d="M10.98 19.004a25 25 0 0 1-2.54-2.965q-1.128-1.551-1.784-3.094T6 10.017q0-.923.333-1.736a4.2 4.2 0 0 1 1.044-1.487Q8.227 6 9.216 6q.415 0 .804.175.387.166.665.555l2.014 2.835q.25.351.37.646t.12.554q0 .342-.185.656a3.4 3.4 0 0 1-.508.628l-.684.693a.5.5 0 0 0-.148.36q0 .111.037.222a1 1 0 0 0 .083.175q.24.444.841 1.145.6.702 1.303 1.414.711.7 1.414 1.302.702.6 1.155.85.065.037.166.073a.7.7 0 0 0 .231.037.5.5 0 0 0 .36-.148l.684-.683q.324-.324.629-.499.315-.184.656-.184.258 0 .554.12.296.111.647.36l2.855 2.022q.389.278.555.656.165.37.166.785 0 .48-.212.951-.204.471-.583.896-.656.73-1.469 1.062A4.5 4.5 0 0 1 19.99 24q-1.386 0-2.939-.665-1.542-.655-3.104-1.792a25 25 0 0 1-2.966-2.54" fill="#fff"/></g><defs><clipPath id="a"><path fill="#fff" d="M0 0h30v30H0z"/></clipPath></defs></svg>