<svg width="30" height="30" viewBox="0 0 30 30" fill="none" xmlns="http://www.w3.org/2000/svg"><g clip-path="url(#a)"><path d="M0 11.2c0-3.92 0-5.88.763-7.378A7 7 0 0 1 3.823.763C5.318 0 7.28 0 11.2 0h7.6c3.92 0 5.88 0 7.378.763a7 7 0 0 1 3.059 3.06C30 5.318 30 7.28 30 11.2v7.6c0 3.92 0 5.88-.763 7.378a7 7 0 0 1-3.06 3.059C24.68 30 22.72 30 18.8 30h-7.6c-3.92 0-5.88 0-7.378-.763a7 7 0 0 1-3.059-3.06C0 24.68 0 22.72 0 18.8z" fill="#FC0"/><path d="M9.453 22.828a.85.85 0 0 1-.344-.553q-.055-.34.104-.805l1.648-4.825-4.199-2.977q-.408-.285-.568-.592a.8.8 0 0 1-.048-.648.83.83 0 0 1 .424-.482q.312-.165.816-.158l5.143.032 1.567-4.849q.152-.474.4-.718a.83.83 0 0 1 .6-.253.8.8 0 0 1 .6.253q.255.244.408.718l1.567 4.849 5.143-.032q.504-.007.816.158.313.159.424.482a.8.8 0 0 1-.048.647q-.16.309-.568.593l-4.199 2.977 1.648 4.825q.159.465.096.805a.82.82 0 0 1-.336.553.76.76 0 0 1-.632.158q-.352-.063-.752-.348l-4.167-3.024-4.159 3.024q-.4.285-.752.348a.76.76 0 0 1-.632-.158" fill="#fff"/></g><defs><clipPath id="a"><path fill="#fff" d="M0 0h30v30H0z"/></clipPath></defs></svg>