<svg width="30" height="30" viewBox="0 0 30 30" fill="none" xmlns="http://www.w3.org/2000/svg"><g clip-path="url(#a)"><path d="M0 11.2c0-3.92 0-5.88.763-7.378A7 7 0 0 1 3.823.763C5.318 0 7.28 0 11.2 0h7.6c3.92 0 5.88 0 7.378.763a7 7 0 0 1 3.059 3.06C30 5.318 30 7.28 30 11.2v7.6c0 3.92 0 5.88-.763 7.378a7 7 0 0 1-3.06 3.059C24.68 30 22.72 30 18.8 30h-7.6c-3.92 0-5.88 0-7.378-.763a7 7 0 0 1-3.059-3.06C0 24.68 0 22.72 0 18.8z" fill="#2AABEE"/><path d="M6.237 14.457q7.25-3.174 9.666-4.186c4.605-1.925 5.56-2.26 6.184-2.27.138-.003.443.03.643.193a.72.72 0 0 1 .235.451c.021.13.05.426.026.656-.248 2.636-1.328 9.031-1.877 11.983-.23 1.249-.69 1.668-1.132 1.709-.964.089-1.694-.64-2.626-1.254-1.459-.962-2.282-1.56-3.699-2.499-1.636-1.084-.575-1.68.358-2.654.243-.255 4.485-4.134 4.566-4.486.01-.044.02-.208-.078-.294-.096-.087-.238-.057-.342-.034-.148.033-2.476 1.582-6.993 4.647q-.99.684-1.797.667c-.59-.012-1.73-.336-2.577-.613-1.036-.34-1.862-.518-1.79-1.095q.056-.45 1.233-.92" fill="#fff"/></g><defs><clipPath id="a"><path fill="#fff" d="M0 0h30v30H0z"/></clipPath></defs></svg>