<svg width="30" height="30" viewBox="0 0 30 30" fill="none" xmlns="http://www.w3.org/2000/svg"><g clip-path="url(#a)"><path d="M0 11.2c0-3.92 0-5.88.763-7.378A7 7 0 0 1 3.823.763C5.318 0 7.28 0 11.2 0h7.6c3.92 0 5.88 0 7.378.763a7 7 0 0 1 3.059 3.06C30 5.318 30 7.28 30 11.2v7.6c0 3.92 0 5.88-.763 7.378a7 7 0 0 1-3.06 3.059C24.68 30 22.72 30 18.8 30h-7.6c-3.92 0-5.88 0-7.378-.763a7 7 0 0 1-3.059-3.06C0 24.68 0 22.72 0 18.8z" fill="#07F"/><path d="M15.849 21.5c-6.492 0-10.195-4.504-10.349-12h3.252c.107 5.502 2.504 7.832 4.403 8.312V9.5h3.061v4.745c1.875-.204 3.845-2.367 4.51-4.745h3.062a9.2 9.2 0 0 1-1.466 3.43 9.1 9.1 0 0 1-2.7 2.552 9.4 9.4 0 0 1 3.077 2.48A9.5 9.5 0 0 1 24.5 21.5h-3.37a5.94 5.94 0 0 0-1.817-2.895 5.83 5.83 0 0 0-3.097-1.393V21.5z" fill="#fff"/></g><defs><clipPath id="a"><path fill="#fff" d="M0 0h30v30H0z"/></clipPath></defs></svg>