<svg width="20" height="20" viewBox="0 0 20 20" fill="none" xmlns="http://www.w3.org/2000/svg"><path d="M5.283 11.3H9.99q.355 0 .595-.24t.24-.595V4.326a.8.8 0 0 0-.24-.595.8.8 0 0 0-.595-.24q-.345 0-.584.24a.8.8 0 0 0-.24.595V9.64H5.283a.84.84 0 0 0-.604.24.8.8 0 0 0-.24.585q0 .355.24.595a.84.84 0 0 0 .604.24M10 20a9.6 9.6 0 0 1-3.864-.787 10.1 10.1 0 0 1-3.193-2.158 10.3 10.3 0 0 1-2.166-3.184A9.7 9.7 0 0 1 0 9.995Q0 7.943.777 6.14a10.3 10.3 0 0 1 2.157-3.194Q4.314 1.564 6.127.787A9.6 9.6 0 0 1 9.99 0q2.052 0 3.864.787a10 10 0 0 1 3.193 2.158q1.38 1.38 2.167 3.194A9.5 9.5 0 0 1 20 9.995a9.6 9.6 0 0 1-.786 3.876 10.3 10.3 0 0 1-2.167 3.184 10 10 0 0 1-3.183 2.158A9.6 9.6 0 0 1 10 20" fill="#999"/></svg>