<svg width="18" height="22" viewBox="0 0 18 22" fill="none" xmlns="http://www.w3.org/2000/svg"><path d="M0 12.876V4.703q0-.963.373-1.406.384-.453 1.172-.789.352-.15.991-.4.64-.248 1.418-.53.778-.291 1.545-.573.768-.28 1.396-.497.64-.227.991-.324.267-.064.555-.12.287-.063.554-.064.277 0 .565.054.297.055.554.13.351.119.98.346.639.226 1.407.508.778.27 1.545.551.778.282 1.418.53.639.237.99.39.8.345 1.173.788T18 4.703v8.173q0 1.48-.426 2.594-.427 1.103-1.396 2.065-.96.951-2.547 1.957a75 75 0 0 1-3.88 2.281q-.213.108-.415.162a1.1 1.1 0 0 1-.341.065q-.139 0-.341-.065a2.3 2.3 0 0 1-.405-.162 75 75 0 0 1-3.88-2.292q-1.577-1.005-2.547-1.957-.959-.951-1.396-2.054Q0 14.357 0 12.876m9.187 6.81q.084-.032.191-.086.107-.043.235-.13 1.801-1.102 3.026-1.892 1.237-.8 1.972-1.513.746-.714 1.066-1.546.32-.843.32-2.043V5.049q0-.281-.075-.422-.075-.151-.288-.227-.49-.173-1.119-.4-.618-.227-1.31-.476-.683-.248-1.354-.497-.671-.248-1.268-.465a51 51 0 0 1-1.024-.4 1 1 0 0 0-.213-.065 2 2 0 0 0-.16-.032z" fill="#999"/></svg>