<svg width="19" height="22" viewBox="0 0 19 22" fill="none" xmlns="http://www.w3.org/2000/svg"><path d="M10.389 4.98 11.948.707A.98.98 0 0 1 12.474.1a.95.95 0 0 1 .784-.027q.415.147.581.533.175.377.019.8l-1.55 4.265zm.064-3.272a12.7 12.7 0 0 0-2.103 1.94 13.9 13.9 0 0 0-2.897 5.396q-.056.21-.203.23-.14.009-.24-.138a2.2 2.2 0 0 0-.378-.47 1.5 1.5 0 0 0-.61-.348q-.571-.222-1.097-.092-.517.12-1.061.496-.342.184-.637.257a.98.98 0 0 1-1.135-.551q-.184-.387 0-.864A8.6 8.6 0 0 1 1.098 5.67a9.7 9.7 0 0 1 1.605-1.774 10 10 0 0 1 2.14-1.416q1.2-.588 2.612-.809 1.41-.229 2.998.037m2.187.01q.396 1.038.526 2.279a12.7 12.7 0 0 1 0 2.556q-.12 1.314-.49 2.629-.36 1.305-.931 2.49-.12.249-.35.24-.222-.009-.379-.267a3.8 3.8 0 0 0-.664-.855 2.45 2.45 0 0 0-.84-.524 2.5 2.5 0 0 0-1.015-.137q-.516.036-1.088.257-.278.1-.443-.028-.158-.128-.093-.377.324-1.286.886-2.528.572-1.24 1.329-2.344a13.5 13.5 0 0 1 1.66-1.976 9 9 0 0 1 1.892-1.416m1.697 1.397q1.402.817 2.335 1.893a9.1 9.1 0 0 1 1.467 2.29q.544 1.212.738 2.454a9.5 9.5 0 0 1 .083 2.39 8.6 8.6 0 0 1-.452 2.096q-.176.486-.563.661a.97.97 0 0 1-1.218-.303 2.8 2.8 0 0 1-.323-.607 3.2 3.2 0 0 0-.498-1.048 1.83 1.83 0 0 0-.904-.643 1.6 1.6 0 0 0-.683-.11q-.315.018-.59.11-.185.055-.277-.046-.093-.11 0-.313.645-1.461.96-2.978.313-1.525.285-3.015a12 12 0 0 0-.36-2.831m-9.669 17.52 4.06-11.113 1.919.698-4.06 11.105a.94.94 0 0 1-.535.57.98.98 0 0 1-.775.046.98.98 0 0 1-.58-.533.96.96 0 0 1-.029-.772" fill="#999"/></svg>